<svg width="279" height="370" viewBox="0 0 279 370" fill="none" xmlns="http://www.w3.org/2000/svg">
<mask id="mask0_2143_43" style="mask-type:luminance" maskUnits="userSpaceOnUse" x="0" y="0" width="279" height="370">
<path d="M0 0H278.667V369.87H0V0Z" fill="white"/>
</mask>
<g mask="url(#mask0_2143_43)">
<path fill-rule="evenodd" clip-rule="evenodd" d="M267.771 369.854H9.98447C6.95322 369.854 4.34906 367.474 4.34906 364.224V310.922C4.34906 257.839 64.1876 251.99 101.698 239.641V215.375C87.3855 206.057 76.7657 191.542 72.6459 174.208C67.8751 170.526 65.0574 164.677 65.0574 158.609C65.0574 153.411 67.2241 148.208 70.9116 144.745V141.927C70.9116 141.708 70.9116 141.708 70.9116 141.495V116.578L42.2918 104.01V128.708H45.1095C53.1303 128.708 59.6355 135.208 59.6355 143.224V175.292C59.6355 183.307 53.1303 189.807 45.1095 189.807H27.9793C19.9584 189.807 13.4532 183.307 13.4532 175.292V143.224C13.4532 135.208 19.9584 128.708 27.9793 128.708H30.8022V99.026L3.69802 86.8958C-0.635318 84.9427 -1.07282 79.0938 3.04697 76.7083L135.953 1.09375C137.688 0.0104167 139.854 0.0104167 141.589 1.09375L274.714 76.7083C278.828 79.0938 278.396 85.1615 274.063 86.8958L206.849 116.578V142.359C206.849 142.792 207.068 143.443 207.068 144.094C207.068 144.307 207.068 144.526 207.068 144.745C210.537 148.427 212.703 153.411 212.703 158.609C212.703 164.677 209.886 170.526 205.115 174.208C200.995 191.542 190.37 206.057 176.063 215.375V239.641C213.573 251.99 273.412 259.573 273.412 310.922V364.224C273.412 367.474 270.807 369.854 267.771 369.854ZM113.188 240.292L138.771 255.672L164.573 240.292V221.443C156.552 224.906 147.875 226.641 138.771 226.641C129.88 226.641 120.995 224.906 113.188 221.443V240.292ZM109.938 207.141C110.37 207.359 110.589 207.573 111.021 207.792C119.261 212.557 128.797 215.156 138.771 215.156C148.964 215.156 158.5 212.557 166.74 207.792C166.958 207.573 167.391 207.359 167.609 207.141C181.047 199.125 191.021 185.693 194.276 169.661C195.141 164.891 201.214 165.76 201.214 158.609C201.214 151.891 195.359 152.542 195.359 147.344C195.359 146.693 195.359 145.828 195.359 145.177C195.359 145.177 195.359 144.958 195.359 144.745C192.755 107.042 156.333 106.609 135.083 124.594C131.615 127.625 125.979 125.245 125.761 120.479C124.026 92.7448 83.4845 88.8438 82.1824 141.708V142.578C82.4011 144.307 82.1824 146.042 82.1824 147.344C82.1824 152.76 76.547 151.677 76.547 158.609C76.547 165.542 82.4011 164.891 83.2657 169.661C86.5209 185.693 96.4949 199.125 109.938 207.141ZM82.1824 102.495C98.6616 80.8281 127.714 86.6771 135.521 110.292C156.552 97.5104 181.047 98.5938 195.359 114.193V81.6927L195.141 81.2604V80.8281L194.927 80.3958V79.526L194.49 78.6615V78.2292L194.276 77.7917L194.057 77.3594V76.9271L193.839 76.4948L193.625 76.0625L193.406 75.625L193.193 75.1927L192.974 74.9792L192.755 74.5417L192.542 74.1094L192.323 73.6771L191.672 73.026L191.458 72.5938L191.24 72.375L191.021 71.9427L190.589 71.7292L190.37 71.2917L189.938 71.0781L189.724 70.6458L189.287 70.4271L189.073 70.2083L188.636 69.776L188.422 69.5625L187.99 69.3438L187.552 69.125L187.339 68.6927L186.901 68.4792L186.469 68.2604L186.255 68.0417C186.037 68.0417 185.818 67.8281 185.818 67.8281L185.386 67.6094L184.953 67.3958L184.516 67.1771H184.083L183.651 66.9583L183.219 66.7448L183 66.526H182.568L182.136 66.3125H181.484L181.047 66.0938H180.615L180.182 65.875C180.182 65.875 179.964 65.875 179.75 65.875H179.313L178.88 65.6615H100.615C90.422 65.6615 82.1824 73.8958 82.1824 84.0781V102.495ZM138.771 270.406L115.141 293.375L134.219 358.589H143.542L162.401 293.375L138.771 270.406ZM166.958 281.891L179.531 252.641C176.495 251.776 173.677 250.906 171.078 249.823L148.094 263.474L166.958 281.891ZM155.464 358.589H261.922V310.922C261.922 275.391 223.542 265.208 190.589 255.891L174.328 293.589L155.464 358.589ZM106.682 250.042C104.083 250.906 101.266 251.776 98.2293 252.641L110.802 281.891L129.667 263.474L106.682 250.042ZM87.172 255.672C53.7814 264.776 15.8386 273.875 15.8386 310.922V358.589H122.292L103.432 293.589L87.172 255.672ZM100.615 54.1771H176.932C193.406 54.1771 206.849 67.6094 206.849 84.0781V104.01L258.886 81.0417L138.771 12.5781L42.2918 67.6094V91.4427L70.6928 104.01V84.0781C70.6928 67.8281 83.7032 54.6094 99.9636 54.1771C100.177 54.1771 100.396 54.1771 100.615 54.1771ZM18.6563 81.0417L30.8022 86.4583V74.1094L18.6563 81.0417ZM27.9793 140.193C26.4636 140.193 24.948 141.495 24.948 143.224V175.292C24.948 177.026 26.4636 178.328 27.9793 178.328H45.1095C46.6251 178.328 48.1459 177.026 48.1459 175.292V143.224C48.1459 141.495 46.6251 140.193 45.1095 140.193H27.9793Z" fill="#28A745"/>
</g>
</svg>
