<svg width="370" height="370" viewBox="0 0 370 370" fill="none" xmlns="http://www.w3.org/2000/svg">
<mask id="mask0_2143_8" style="mask-type:luminance" maskUnits="userSpaceOnUse" x="0" y="0" width="370" height="370">
<path d="M0 0H369.87V369.87H0V0Z" fill="white"/>
</mask>
<g mask="url(#mask0_2143_8)">
<path d="M340.859 72.5208H268.339V29.0104C268.339 13.0104 255.323 0 239.328 0H130.542C114.547 0 101.531 13.0104 101.531 29.0104V72.5208H29.0104C13.0104 72.5208 0 85.5365 0 101.531C0 114.135 0 330.214 0 340.859C0 356.854 13.0104 369.87 29.0104 369.87H340.859C356.854 369.87 369.87 356.854 369.87 340.859C369.87 330.266 369.87 114.13 369.87 101.531C369.87 85.5365 356.854 72.5208 340.859 72.5208ZM116.036 29.0104C116.036 21.0104 122.542 14.5052 130.542 14.5052H239.328C247.323 14.5052 253.833 21.0104 253.833 29.0104V72.5208H239.328V58.0156C239.328 42.0208 226.313 29.0104 210.318 29.0104H159.552C143.557 29.0104 130.542 42.0208 130.542 58.0156V72.5208H116.036V29.0104ZM224.823 72.5208H145.047V58.0156C145.047 50.0208 151.552 43.5156 159.552 43.5156H210.318C218.318 43.5156 224.823 50.0208 224.823 58.0156V72.5208ZM29.0104 87.026C62.0313 87.026 309.51 87.026 340.859 87.026C348.859 87.026 355.365 93.5365 355.365 101.531V195.813C355.365 203.813 348.859 210.318 340.859 210.318H217.568V188.563C217.568 184.557 214.323 181.307 210.318 181.307H159.552C155.547 181.307 152.297 184.557 152.297 188.563V210.318H29.0104C21.0104 210.318 14.5052 203.813 14.5052 195.813V101.531C14.5052 93.5365 21.0104 87.026 29.0104 87.026ZM166.802 195.813H203.063V221.198C203.063 231.193 194.932 239.328 184.932 239.328C174.938 239.328 166.802 231.193 166.802 221.198V195.813ZM340.859 355.365H29.0104C21.0104 355.365 14.5052 348.859 14.5052 340.859V220.922C18.776 223.396 23.7292 224.823 29.0104 224.823H152.505C154.313 241.115 168.167 253.833 184.932 253.833C201.703 253.833 215.552 241.115 217.365 224.823H340.859C346.141 224.823 351.094 223.396 355.365 220.922V340.859C355.365 348.859 348.859 355.365 340.859 355.365Z" fill="black"/>
</g>
</svg>
