<svg width="281" height="369" viewBox="0 0 281 369" fill="none" xmlns="http://www.w3.org/2000/svg">
<path d="M140.062 50.0078C86.9678 50.0078 43.7803 93.1901 43.7803 146.263C43.7803 199.326 86.9782 242.508 140.062 242.508C193.14 242.508 236.343 199.326 236.343 146.263C236.343 93.1901 193.14 50.0078 140.062 50.0078ZM140.062 230.221C93.7386 230.221 56.0719 192.565 56.0719 146.263C56.0719 99.9609 93.7386 62.2943 140.062 62.2943C186.379 62.2943 224.051 99.9609 224.051 146.263C224.051 192.565 186.379 230.221 140.062 230.221Z" fill="#FF5733"/>
<path d="M184.577 119.329L159.587 119.21L151.921 95.6211C150.223 90.3763 145.567 86.9961 140.061 86.9961C134.556 86.9961 129.895 90.3763 128.202 95.6211L120.358 119.329H95.5354C90.025 119.329 85.3687 122.71 83.6708 127.944C81.9781 133.189 83.7594 138.658 88.2073 141.887L108.353 156.678L100.681 180.267C98.9885 185.512 100.77 190.98 105.228 194.21C107.452 195.835 110.009 196.632 112.556 196.632C115.114 196.632 117.666 195.819 119.89 194.199L140.181 179.616L160.254 194.199C164.702 197.428 170.478 197.465 174.916 194.21C179.374 190.98 181.16 185.501 179.452 180.267L171.843 156.46L191.926 141.876C196.374 138.642 198.155 133.178 196.447 127.934C194.739 122.71 190.082 119.329 184.577 119.329ZM164.577 146.543C160.228 149.751 158.41 155.35 160.082 160.475L167.478 184.272L147.395 169.678C145.207 168.09 142.64 167.309 140.072 167.309C137.504 167.309 134.936 168.09 132.733 169.689L112.384 184.064L120.051 160.475C121.723 155.329 119.905 149.725 115.515 146.533L95.5458 131.616H120.374C125.791 131.616 130.561 128.163 132.233 123.007L140.197 99.293C140.197 99.293 140.218 99.3294 140.244 99.418L147.916 123.017C149.598 128.163 154.364 131.616 159.775 131.616L184.686 131.949L164.577 146.543Z" fill="#FF5733"/>
<path d="M271.342 163.484C267.701 157.328 263.941 150.953 263.941 146.208C263.941 141.516 267.691 135.203 271.306 129.073C276.712 119.943 282.306 110.484 279.243 101.036C276.014 91.2344 265.207 86.6146 255.686 82.5365C249.352 79.8333 242.826 77.0417 240.274 73.5417C237.654 69.9531 236.977 62.7813 236.326 55.8542C235.306 45.1042 234.264 33.9844 226.029 27.9635C217.894 22.0521 207.04 24.4375 196.556 26.75C189.712 28.2604 182.597 29.8073 178.332 28.4323C174.363 27.151 169.727 21.8698 165.264 16.7865C158.358 8.92187 150.545 0 140.061 0C129.576 0 121.759 8.92187 114.863 16.7708C110.389 21.8698 105.769 27.151 101.811 28.4167C97.4514 29.8177 90.4097 28.2604 83.5764 26.75C73.0764 24.4375 62.2534 22.0417 54.092 27.974C45.868 33.974 44.8107 45.0885 43.8055 55.8385C43.1389 62.7708 42.4618 69.9427 39.8472 73.5417C37.3003 77.0417 30.7639 79.8333 24.4462 82.5365C14.9097 86.6146 4.10761 91.2344 0.86282 101.063C-2.18405 110.495 3.40449 119.943 8.80032 129.073C12.4253 135.193 16.1753 141.516 16.1753 146.198C16.1753 150.953 12.4149 157.318 8.7899 163.474C3.39407 172.599 -2.18406 182.047 0.873236 191.484C4.10761 201.286 14.9201 205.906 24.4462 209.984C30.7639 212.688 37.3003 215.474 39.8472 218.979C42.4618 222.563 43.1389 229.729 43.8055 236.656C44.7639 246.875 45.9566 257.281 53.0191 263.401L18.6337 326.792C17.5034 328.896 17.6753 331.448 19.0868 333.365C20.5034 335.271 22.8993 336.24 25.2326 335.74L63.9826 328.01L78.6701 364.672C79.5555 366.891 81.6441 368.391 84.0295 368.516C84.1545 368.563 84.2639 368.563 84.3837 368.563C86.6337 368.563 88.7118 367.333 89.7951 365.344L130.571 289.974C133.3 291.411 136.457 292.516 140.061 292.516C143.17 292.516 146.227 291.646 149.29 290.063L190.082 365.359C191.16 367.333 193.238 368.563 195.488 368.563C195.613 368.563 195.733 368.563 195.832 368.552C198.217 368.417 200.295 366.917 201.191 364.708L215.889 328.047L254.628 335.776C256.936 336.255 259.358 335.307 260.774 333.401C262.186 331.5 262.368 328.932 261.227 326.844L226.998 263.51C234.165 257.344 235.342 246.927 236.316 236.703C236.977 229.776 237.644 222.599 240.274 219C242.806 215.51 249.342 212.714 255.66 210.021C265.186 205.943 275.998 201.323 279.243 191.484C282.29 182.047 276.722 172.609 271.342 163.484ZM85.2066 347.974L73.4982 318.734C72.5503 316.365 70.2639 314.875 67.7951 314.875C67.3993 314.875 66.993 314.911 66.592 315L35.6805 321.156L64.4149 268.182C64.5347 268.193 64.6597 268.182 64.7847 268.182C65.1284 268.203 65.4826 268.182 65.8264 268.193C67.3889 268.255 68.9722 268.229 70.5816 268.083C71.0243 268.047 71.4826 267.995 71.9357 267.932C73.5347 267.75 75.1337 267.516 76.743 267.208C77.1337 267.135 77.5139 267.073 77.9097 267C79.8159 266.62 81.7326 266.214 83.6232 265.786C90.4305 264.26 97.4514 262.651 101.79 264.078C105.795 265.365 110.451 270.708 114.962 275.859C116.842 278.01 118.759 280.208 120.764 282.26L85.2066 347.974ZM213.285 315C210.446 314.396 207.483 315.995 206.378 318.745L194.649 348L159.134 282.443C159.394 282.188 159.613 281.901 159.858 281.646C161.701 279.714 163.509 277.714 165.253 275.724C169.717 270.625 174.326 265.365 178.306 264.089C182.681 262.677 189.722 264.26 196.519 265.771C198.363 266.177 200.217 266.583 202.076 266.953C202.54 267.052 203.009 267.125 203.477 267.208C204.941 267.479 206.389 267.703 207.826 267.885C208.415 267.958 209.009 268.021 209.582 268.068C210.852 268.182 212.092 268.203 213.321 268.182C213.972 268.182 214.634 268.203 215.264 268.156C215.347 268.141 215.436 268.156 215.519 268.156L244.181 321.167L213.285 315ZM267.566 187.635C266.071 192.172 258.316 195.5 250.832 198.693C242.977 202.047 234.863 205.526 230.352 211.74C225.733 218.057 224.899 226.927 224.076 235.536C223.311 243.573 222.54 251.891 218.972 254.495C218.238 254.984 217.743 255.245 216.972 255.453C212.826 256.792 205.91 255.245 199.212 253.771C192.904 252.37 186.415 250.943 180.41 251.323C178.404 251.448 176.451 251.781 174.571 252.37C167.342 254.677 161.592 261.266 156.024 267.604C153.212 270.807 150.321 274.115 147.483 276.547C141.806 281.438 138.462 281.458 132.451 276.484C129.623 273.969 126.91 270.844 124.217 267.76C118.613 261.359 112.811 254.714 105.571 252.38C103.904 251.839 102.154 251.583 100.389 251.422C99.8941 251.375 99.3941 251.349 98.8889 251.323C98.493 251.313 98.1024 251.25 97.7066 251.25C97.217 251.25 96.7014 251.375 96.1962 251.396C94.2899 251.474 92.3732 251.646 90.4097 251.953C89.6962 252.063 88.993 252.146 88.2795 252.271C85.8368 252.714 83.3784 253.229 80.9462 253.771C79.2118 254.161 77.467 254.542 75.7587 254.885C70.8055 255.87 66.1337 256.448 62.8889 255.401C62.3732 255.245 61.8107 254.974 61.342 254.615C57.592 251.875 56.7951 243.573 56.0451 235.516C55.2326 226.927 54.3837 218.042 49.7899 211.74C45.2534 205.51 37.1441 202.047 29.3003 198.693C21.8159 195.49 14.0607 192.172 12.5764 187.661C11.2326 183.521 15.5712 176.188 19.3837 169.714C23.8576 162.146 28.4774 154.307 28.4774 146.198C28.4774 138.151 23.868 130.349 19.4097 122.818C15.5607 116.344 11.2118 109 12.5503 104.88C14.0503 100.339 21.7899 97.0208 29.2899 93.8281C37.1441 90.4844 45.2534 86.9948 49.7743 80.7813C54.3837 74.4635 55.2222 65.5833 56.0451 56.9844C56.8055 48.9479 57.592 40.6198 61.3316 37.8802C64.9774 35.1979 73.1024 37.0052 80.9305 38.724C89.3628 40.5677 98.0764 42.5104 105.571 40.1042C112.774 37.7813 118.54 31.2083 124.108 24.8542C129.54 18.6875 135.144 12.2865 140.061 12.2865C144.977 12.2865 150.592 18.6875 156.024 24.8802C161.592 31.2344 167.358 37.7917 174.571 40.125C182.04 42.4844 190.753 40.5833 199.201 38.7396C207.029 37.0052 215.113 35.224 218.79 37.8802C222.55 40.6302 223.326 48.9375 224.087 56.9948C224.899 65.5833 225.743 74.474 230.352 80.7813C234.878 87.0052 242.998 90.4844 250.852 93.8281C258.337 97.0313 266.082 100.339 267.566 104.844C268.91 109 264.571 116.344 260.733 122.818C256.274 130.349 251.665 138.151 251.665 146.198C251.665 154.307 256.285 162.146 260.759 169.714C264.753 176.505 268.894 183.521 267.566 187.635Z" fill="#FF5733"/>
</svg>
