<svg width="459" height="369" viewBox="0 0 459 369" fill="none" xmlns="http://www.w3.org/2000/svg">
<path d="M164.499 174.237H116.791V153.227H164.499V174.237ZM124.926 166.091H156.364V161.372H124.926V166.091Z" fill="#8E44AD"/>
<path d="M342.021 174.237H294.312V153.227H342.021V174.237ZM302.448 166.091H333.885V161.372H302.448V166.091Z" fill="black"/>
<path d="M164.499 335.086H116.791V314.18H164.499V335.086ZM124.926 326.94H156.364V322.326H124.926V326.94Z" fill="#8E44AD"/>
<path d="M351.176 161.372H107.635V114.867H351.176V161.372ZM115.77 153.227H343.041V123.013H115.77V153.227Z" fill="#8E44AD"/>
<path d="M312.141 123.013H146.672V92.1797H312.141V123.013ZM154.807 114.867H304.005V100.326H154.807V114.867Z" fill="#8E44AD"/>
<path d="M342.021 335.086H294.312V314.18H342.021V335.086ZM302.448 326.94H333.885V322.326H302.448V326.94Z" fill="#8E44AD"/>
<path d="M159.947 322.324H121.338V166.09H159.947V322.324ZM129.473 314.178H151.812V174.236H129.473V314.178Z" fill="#8E44AD"/>
<path d="M337.474 322.324H298.864V166.09H337.474V322.324ZM307 314.178H329.338V174.236H307V314.178Z" fill="#8E44AD"/>
<path d="M446.76 351.824H12.0781V139.762H111.698V147.908H20.2135V343.678H438.625V147.908H347.099V139.762H446.76V351.824Z" fill="#8E44AD"/>
<path d="M356.046 351.818H102.791V326.938H356.046V351.818ZM110.926 343.672H347.911V335.083H110.926V343.672Z" fill="#8E44AD"/>
<path d="M457.214 368.557H1.625V343.672H457.214V368.557ZM9.76042 360.411H449.078V351.818H9.76042V360.411Z" fill="#8E44AD"/>
<path d="M267.927 335.083H190.911V248.26C190.911 236.172 200.729 226.344 212.797 226.344H246.041C258.109 226.344 267.927 236.172 267.927 248.26V335.083ZM199.047 326.938H259.791V248.26C259.791 240.667 253.625 234.49 246.041 234.49H212.797C205.213 234.49 199.047 240.667 199.047 248.26V326.938Z" fill="#8E44AD"/>
<path d="M229.406 209.706C219.698 209.706 211.802 201.794 211.802 192.076C211.802 182.357 219.698 174.445 229.406 174.445C239.109 174.445 247.01 182.357 247.01 192.076C247.01 201.794 239.114 209.706 229.406 209.706ZM229.406 182.591C224.182 182.591 219.937 186.846 219.937 192.076C219.937 197.305 224.182 201.555 229.406 201.555C234.625 201.555 238.875 197.305 238.875 192.076C238.875 186.846 234.625 182.591 229.406 182.591Z" fill="#8E44AD"/>
<path d="M99.5104 208.923H76.25V165.309H99.5104V208.923ZM84.3854 200.777H91.375V173.46H84.3854V200.777Z" fill="#8E44AD"/>
<path d="M129.474 248.276H12.0625V226.344H129.474V248.276ZM20.1979 240.13H121.339V234.49H20.1979V240.13Z" fill="#8E44AD"/>
<path d="M446.749 248.276H329.338V226.344H446.749V248.276ZM337.473 240.13H438.614V234.49H337.473V240.13Z" fill="#8E44AD"/>
<path d="M99.5104 309.419H76.25V265.805H99.5104V309.419ZM84.3854 301.273H91.375V273.951H84.3854V301.273Z" fill="#8E44AD"/>
<path d="M382.562 309.419H359.302V265.805H382.562V309.419ZM367.437 301.273H374.427V273.951H367.437V301.273Z" fill="#8E44AD"/>
<path d="M382.562 208.923H359.302V165.309H382.562V208.923ZM367.437 200.777H374.427V173.46H367.437V200.777Z" fill="#8E44AD"/>
<path d="M324.801 100.323H134.01V64.599L229.406 0L324.801 64.599V100.323ZM142.145 92.1771H316.666V68.9271L229.406 9.83333L142.145 68.9271V92.1771Z" fill="#8E44AD"/>
<mask id="mask0_2143_90" style="mask-type:luminance" maskUnits="userSpaceOnUse" x="0" y="102" width="155" height="46">
<path d="M0 102.617H154.87V147.951H0V102.617Z" fill="white"/>
</mask>
<g mask="url(#mask0_2143_90)">
<path d="M111.698 147.905H0.0419922L14.891 103.504H154.818V118.941H146.683V111.655H20.7451L11.3441 139.759H111.698V147.905Z" fill="#8E44AD"/>
</g>
<mask id="mask1_2143_90" style="mask-type:luminance" maskUnits="userSpaceOnUse" x="302" y="102" width="157" height="46">
<path d="M302.869 102.617H458.838V147.951H302.869V102.617Z" fill="white"/>
</mask>
<g mask="url(#mask1_2143_90)">
<path d="M458.75 147.905H347.099V139.759H447.458L438.088 111.655H312.156V118.941H304.021V103.504H443.953L458.75 147.905Z" fill="#8E44AD"/>
</g>
<path d="M136.594 137.751V128.809H140.286V137.616C140.286 140.647 141.604 141.902 143.839 141.902C146.094 141.902 147.391 140.647 147.391 137.616V128.809H151.036V137.751C151.036 142.449 148.349 145.053 143.818 145.053C139.281 145.053 136.594 142.449 136.594 137.751Z" fill="#8E44AD"/>
<path d="M173.859 128.809V144.777H170.828L162.88 135.085V144.777H159.239V128.809H162.291L170.218 138.507V128.809H173.859Z" fill="#8E44AD"/>
<path d="M182.197 128.809H185.89V144.777H182.197V128.809Z" fill="#8E44AD"/>
<path d="M209.463 128.809L202.562 144.777H198.916L192.036 128.809H196.026L200.88 140.215L205.797 128.809H209.463Z" fill="#8E44AD"/>
<path d="M227.688 141.814V144.777H215.344V128.809H227.391V131.777H219.01V135.241H226.411V138.116H219.01V141.814H227.688Z" fill="#8E44AD"/>
<path d="M245.343 144.777L242.265 140.329H238.874V144.777H235.182V128.809H242.083C246.343 128.809 249.01 131.022 249.01 134.605C249.01 137.001 247.801 138.757 245.729 139.647L249.307 144.777H245.343ZM241.88 131.824H238.874V137.387H241.88C244.135 137.387 245.275 136.34 245.275 134.605C245.275 132.85 244.135 131.824 241.88 131.824Z" fill="#8E44AD"/>
<path d="M255.229 143.206L256.479 140.419C257.827 141.404 259.827 142.086 261.744 142.086C263.926 142.086 264.817 141.357 264.817 140.378C264.817 137.388 255.546 139.44 255.546 133.508C255.546 130.799 257.734 128.539 262.265 128.539C264.27 128.539 266.322 129.018 267.801 129.951L266.661 132.758C265.182 131.914 263.656 131.503 262.244 131.503C260.057 131.503 259.213 132.326 259.213 133.331C259.213 136.273 268.484 134.242 268.484 140.102C268.484 142.773 266.275 145.055 261.718 145.055C259.192 145.055 256.64 144.299 255.229 143.206Z" fill="#8E44AD"/>
<path d="M275.567 128.809H279.26V144.777H275.567V128.809Z" fill="#8E44AD"/>
<path d="M290.901 131.824H285.797V128.809H299.693V131.824H294.589V144.777H290.901V131.824Z" fill="#8E44AD"/>
<path d="M313.583 139.121V144.777H309.896V139.074L303.724 128.809H307.64L311.901 135.908L316.161 128.809H319.781L313.588 139.121H313.583Z" fill="#8E44AD"/>
</svg>
