<svg width="393" height="370" viewBox="0 0 393 370" fill="none" xmlns="http://www.w3.org/2000/svg">
<mask id="mask0_2143_91" style="mask-type:luminance" maskUnits="userSpaceOnUse" x="0" y="0" width="286" height="370">
<path d="M0 0H285.094V369.333H0V0Z" fill="white"/>
</mask>
<g mask="url(#mask0_2143_91)">
<path d="M266.677 368.714H17.2031C16.0729 368.714 14.9531 368.599 13.849 368.38C12.7396 368.156 11.6667 367.828 10.625 367.396C9.57812 366.964 8.58854 366.432 7.65104 365.802C6.70833 365.172 5.84375 364.458 5.04167 363.661C4.24479 362.859 3.53125 361.99 2.90625 361.047C2.27604 360.109 1.74479 359.115 1.3125 358.073C0.880209 357.026 0.552083 355.948 0.333333 354.839C0.109375 353.729 0 352.609 0 351.479V17.9219C0 16.7917 0.109375 15.6719 0.333333 14.5625C0.552083 13.4531 0.880209 12.375 1.3125 11.3281C1.74479 10.2865 2.27604 9.29167 2.90625 8.34896C3.53125 7.41146 4.24479 6.54167 5.04167 5.73958C5.84375 4.94271 6.70833 4.22396 7.65104 3.59896C8.58854 2.96875 9.57812 2.4375 10.625 2.00521C11.6667 1.57292 12.7396 1.24479 13.849 1.02083C14.9531 0.802083 16.0729 0.6875 17.2031 0.6875H266.677C267.807 0.6875 268.922 0.802083 270.031 1.02083C271.141 1.24479 272.214 1.57292 273.255 2.00521C274.297 2.4375 275.292 2.96875 276.229 3.59896C277.167 4.22917 278.036 4.94271 278.833 5.73958C279.63 6.54167 280.344 7.41146 280.974 8.34896C281.599 9.29167 282.13 10.2865 282.563 11.3281C282.995 12.375 283.323 13.4531 283.542 14.5625C283.766 15.6719 283.875 16.7917 283.875 17.9219V234.245C283.875 235.375 283.479 236.344 282.677 237.141L235.901 284L254.286 302.438L276.917 279.771C277.5 279.182 278.198 278.813 279.005 278.651C279.818 278.49 280.604 278.568 281.37 278.885C282.13 279.203 282.745 279.703 283.203 280.391C283.661 281.083 283.891 281.839 283.891 282.667V351.479C283.885 352.609 283.776 353.729 283.557 354.839C283.333 355.953 283.005 357.026 282.573 358.073C282.141 359.12 281.609 360.109 280.984 361.052C280.354 361.995 279.641 362.865 278.844 363.661C278.042 364.464 277.172 365.177 276.234 365.807C275.297 366.438 274.302 366.964 273.26 367.401C272.219 367.833 271.141 368.161 270.031 368.38C268.927 368.604 267.807 368.714 266.677 368.714ZM17.2031 8.86458C16.6094 8.86458 16.0208 8.92187 15.4427 9.04167C14.8594 9.15625 14.2969 9.32813 13.75 9.55729C13.1979 9.78125 12.6771 10.0625 12.1875 10.3906C11.6927 10.724 11.2396 11.099 10.8177 11.5156C10.401 11.9375 10.026 12.3958 9.69271 12.8854C9.36458 13.3802 9.08854 13.901 8.85938 14.4531C8.63021 15 8.45833 15.5677 8.34375 16.1458C8.22917 16.7292 8.17188 17.3177 8.17188 17.9115V351.469C8.17188 352.063 8.22917 352.651 8.34375 353.234C8.45833 353.818 8.63021 354.385 8.85938 354.932C9.08854 355.479 9.36458 356 9.69271 356.495C10.026 356.99 10.401 357.448 10.8177 357.865C11.2396 358.286 11.6927 358.661 12.1875 358.99C12.6771 359.323 13.1979 359.599 13.75 359.828C14.2969 360.057 14.8594 360.229 15.4427 360.344C16.0208 360.458 16.6094 360.521 17.2031 360.521H266.677C267.271 360.521 267.854 360.458 268.438 360.344C269.021 360.229 269.583 360.057 270.13 359.828C270.677 359.599 271.198 359.323 271.693 358.99C272.182 358.661 272.641 358.286 273.057 357.865C273.479 357.448 273.854 356.99 274.182 356.495C274.51 356 274.792 355.479 275.016 354.932C275.245 354.385 275.417 353.818 275.531 353.234C275.646 352.651 275.703 352.063 275.703 351.469V292.536L257.167 311.12C256.365 311.922 255.406 312.318 254.276 312.318C253.146 312.323 252.182 311.922 251.385 311.12L227.234 286.891C226.849 286.505 226.557 286.068 226.349 285.563C226.141 285.063 226.036 284.542 226.036 284C226.036 283.458 226.141 282.938 226.349 282.438C226.557 281.932 226.849 281.49 227.234 281.109L275.703 232.552V17.9115C275.703 17.3177 275.646 16.7292 275.531 16.151C275.417 15.5677 275.245 15 275.016 14.4531C274.792 13.901 274.51 13.3802 274.182 12.8906C273.854 12.3958 273.479 11.9375 273.057 11.5156C272.641 11.099 272.182 10.724 271.693 10.3906C271.198 10.0625 270.677 9.78125 270.13 9.55729C269.583 9.32813 269.021 9.15625 268.438 9.04167C267.854 8.92187 267.271 8.86458 266.677 8.86458H17.2031Z" fill="#3357FF"/>
</g>
<path d="M49.6922 67.551C48.562 67.551 47.6037 67.1499 46.8016 66.3479L39.5256 59.0458C39.1297 58.6656 38.8225 58.2229 38.6089 57.7177C38.3902 57.2177 38.2808 56.6864 38.2756 56.1395C38.2704 55.5927 38.3745 55.0614 38.5777 54.5562C38.786 54.0458 39.0829 53.5979 39.4735 53.2124C39.8589 52.8218 40.3068 52.5249 40.812 52.3166C41.3225 52.1083 41.8485 52.0093 42.3954 52.0093C42.9475 52.0145 43.4683 52.1291 43.9735 52.3427C44.4787 52.5614 44.9214 52.8687 45.3016 53.2593L49.6922 57.6604L60.8745 46.4624C61.26 46.0927 61.7027 45.8062 62.1975 45.6031C62.6975 45.4052 63.2131 45.3114 63.7495 45.3166C64.286 45.3166 64.8016 45.426 65.2912 45.6343C65.786 45.8374 66.2235 46.1343 66.6037 46.5145C66.9787 46.8947 67.2756 47.327 67.4787 47.8218C67.687 48.3166 67.7964 48.8322 67.7964 49.3687C67.8016 49.9104 67.7079 50.426 67.51 50.926C67.312 51.4208 67.0256 51.8635 66.6506 52.2489L52.5829 66.3479C51.7808 67.1499 50.8225 67.551 49.6922 67.551Z" fill="#3357FF"/>
<path d="M71.0622 82.0273H35.1351C34.6351 82.0273 34.1403 81.9753 33.6455 81.8815C33.1559 81.7826 32.682 81.6367 32.2184 81.444C31.7549 81.2513 31.3174 81.0169 30.9007 80.7409C30.484 80.4596 30.0986 80.1419 29.7445 79.7878C29.3903 79.4336 29.0726 79.0482 28.7965 78.6315C28.5153 78.2148 28.2809 77.7773 28.0882 77.3138C27.9007 76.8503 27.7549 76.3711 27.6559 75.8815C27.557 75.3867 27.5101 74.8919 27.5049 74.3919V38.4284C27.5101 37.9284 27.557 37.4284 27.6559 36.9388C27.7549 36.4492 27.9007 35.9753 28.0934 35.5117C28.2861 35.0482 28.5205 34.6107 28.8018 34.194C29.0778 33.7773 29.3955 33.3919 29.7497 33.0378C30.1038 32.6888 30.4893 32.3711 30.9059 32.0951C31.3226 31.8138 31.7601 31.5794 32.2236 31.3919C32.682 31.1992 33.1611 31.0534 33.6507 30.9544C34.1403 30.8607 34.6351 30.8086 35.1351 30.8086H71.0882C71.5882 30.8138 72.083 30.8607 72.5778 30.9596C73.0674 31.0586 73.5413 31.2044 74.0049 31.3919C74.4684 31.5846 74.9059 31.819 75.3226 32.1003C75.7341 32.3763 76.1195 32.694 76.4736 33.0482C76.8278 33.4023 77.1455 33.7878 77.4216 34.2044C77.7028 34.6211 77.9372 35.0586 78.1247 35.5221C78.3174 35.9857 78.4632 36.4648 78.5622 36.9544C78.6611 37.444 78.708 37.944 78.708 38.444V74.4076C78.708 74.9076 78.6559 75.4023 78.557 75.8971C78.458 76.3867 78.3122 76.8659 78.1195 77.3294C77.9268 77.793 77.6924 78.2305 77.4111 78.6471C77.1299 79.0638 76.8122 79.4492 76.458 79.8034C76.1038 80.1576 75.7184 80.4701 75.3018 80.7513C74.8851 81.0273 74.4424 81.2617 73.9788 81.4544C73.5153 81.6419 73.0413 81.7878 72.5466 81.8815C72.057 81.9805 71.5622 82.0273 71.0622 82.0273ZM35.6715 73.8398H70.5101V38.9961H35.6715V73.8398Z" fill="#3357FF"/>
<path d="M252.292 49.6836H102.224C101.683 49.6836 101.162 49.5794 100.662 49.3711C100.157 49.1628 99.7191 48.8659 99.3337 48.4857C98.9482 48.1003 98.6566 47.6576 98.4482 47.1576C98.2399 46.6523 98.1357 46.1315 98.1357 45.5898C98.1357 45.0482 98.2399 44.5221 98.4482 44.0221C98.6566 43.5221 98.9482 43.0794 99.3337 42.694C99.7191 42.3138 100.157 42.0169 100.662 41.8086C101.162 41.6003 101.683 41.4961 102.224 41.4961H252.292C252.834 41.4961 253.354 41.6003 253.854 41.8086C254.354 42.0169 254.797 42.3138 255.177 42.694C255.563 43.0794 255.86 43.5221 256.063 44.0221C256.271 44.5221 256.375 45.0482 256.375 45.5898C256.375 46.1315 256.271 46.6523 256.063 47.1576C255.86 47.6576 255.563 48.1003 255.177 48.4857C254.797 48.8659 254.354 49.1628 253.854 49.3711C253.354 49.5794 252.834 49.6836 252.292 49.6836Z" fill="#3357FF"/>
<path d="M252.292 71.3281H102.224C101.683 71.3281 101.162 71.224 100.662 71.0156C100.157 70.8073 99.7191 70.5104 99.3337 70.1302C98.9482 69.7448 98.6566 69.3021 98.4482 68.8021C98.2399 68.2969 98.1357 67.776 98.1357 67.2344C98.1357 66.6927 98.2399 66.1719 98.4482 65.6667C98.6566 65.1667 98.9482 64.724 99.3337 64.3385C99.7191 63.9583 100.157 63.6615 100.662 63.4531C101.162 63.2448 101.683 63.1406 102.224 63.1406H252.292C252.834 63.1406 253.354 63.2448 253.854 63.4531C254.354 63.6615 254.797 63.9583 255.177 64.3385C255.563 64.724 255.86 65.1667 256.063 65.6667C256.271 66.1719 256.375 66.6927 256.375 67.2344C256.375 67.776 256.271 68.2969 256.063 68.8021C255.86 69.3021 255.563 69.7448 255.177 70.1302C254.797 70.5104 254.354 70.8073 253.854 71.0156C253.354 71.224 252.834 71.3281 252.292 71.3281Z" fill="#3357FF"/>
<path d="M49.6922 151.135C48.562 151.135 47.6037 150.734 46.8016 149.938L39.5256 142.641C39.1297 142.26 38.8225 141.818 38.6089 141.313C38.3902 140.813 38.2808 140.281 38.2756 139.734C38.2704 139.188 38.3745 138.656 38.5777 138.151C38.786 137.641 39.0829 137.193 39.4735 136.807C39.8589 136.417 40.3068 136.12 40.812 135.911C41.3225 135.703 41.8485 135.604 42.3954 135.609C42.9475 135.609 43.4683 135.724 43.9735 135.938C44.4787 136.156 44.9214 136.464 45.3016 136.854L49.6922 141.255L60.8745 130.042C61.26 129.656 61.7027 129.365 62.2027 129.156C62.7027 128.948 63.2235 128.844 63.7652 128.844C64.3068 128.844 64.8277 128.948 65.3277 129.156C65.8277 129.365 66.2704 129.661 66.6558 130.042C67.036 130.427 67.3329 130.87 67.5412 131.37C67.7443 131.875 67.8485 132.396 67.8485 132.938C67.8485 133.479 67.7443 134.005 67.536 134.505C67.3329 135.005 67.036 135.448 66.6506 135.833L52.5829 149.932C51.786 150.734 50.8225 151.135 49.6922 151.135Z" fill="#3357FF"/>
<path d="M71.0622 165.605H35.1351C34.6351 165.605 34.1403 165.553 33.6455 165.46C33.1559 165.361 32.682 165.215 32.2184 165.022C31.7549 164.835 31.3174 164.595 30.9007 164.319C30.484 164.038 30.0986 163.725 29.7445 163.371C29.3903 163.017 29.0726 162.632 28.7965 162.215C28.5153 161.798 28.2809 161.355 28.0882 160.892C27.9007 160.428 27.7549 159.954 27.6559 159.46C27.557 158.97 27.5101 158.475 27.5049 157.97V122.007C27.5101 121.507 27.557 121.012 27.6559 120.517C27.7549 120.027 27.9007 119.548 28.0882 119.085C28.2809 118.621 28.5153 118.184 28.7965 117.767C29.0726 117.35 29.3903 116.965 29.7445 116.611C30.0986 116.257 30.484 115.939 30.9007 115.658C31.3174 115.382 31.7549 115.147 32.2184 114.954C32.682 114.762 33.1559 114.616 33.6455 114.517C34.1403 114.423 34.6351 114.371 35.1351 114.371H71.0882C71.5882 114.371 72.083 114.423 72.5778 114.522C73.0674 114.621 73.5413 114.767 74.0049 114.954C74.4684 115.147 74.9059 115.387 75.3226 115.663C75.7393 115.944 76.1195 116.257 76.4736 116.611C76.8278 116.965 77.1455 117.35 77.4216 117.767C77.7028 118.184 77.9372 118.626 78.1247 119.09C78.3174 119.553 78.4632 120.027 78.5622 120.522C78.6611 121.012 78.708 121.507 78.708 122.007V157.97C78.708 158.475 78.6611 158.97 78.5622 159.465C78.4632 159.954 78.3174 160.434 78.1247 160.897C77.932 161.361 77.6976 161.803 77.4163 162.22C77.1351 162.637 76.8226 163.022 76.4632 163.376C76.1091 163.73 75.7236 164.048 75.307 164.324C74.8903 164.605 74.4476 164.84 73.9841 165.027C73.5205 165.22 73.0413 165.366 72.5518 165.46C72.057 165.559 71.5622 165.605 71.0622 165.605ZM35.6715 157.418H70.5101V122.559H35.6715V157.418Z" fill="#3357FF"/>
<path d="M252.292 133.26H102.224C101.683 133.26 101.162 133.156 100.662 132.953C100.157 132.745 99.7191 132.448 99.3337 132.063C98.9482 131.682 98.6566 131.24 98.4482 130.734C98.2399 130.234 98.1357 129.714 98.1357 129.172C98.1357 128.625 98.2399 128.104 98.4482 127.604C98.6566 127.104 98.9482 126.661 99.3337 126.276C99.7191 125.891 100.157 125.599 100.662 125.391C101.162 125.182 101.683 125.078 102.224 125.078H252.292C252.834 125.078 253.354 125.182 253.854 125.391C254.354 125.599 254.797 125.891 255.177 126.276C255.563 126.661 255.86 127.104 256.063 127.604C256.271 128.104 256.375 128.625 256.375 129.172C256.375 129.714 256.271 130.234 256.063 130.734C255.86 131.24 255.563 131.682 255.177 132.063C254.797 132.448 254.354 132.745 253.854 132.953C253.354 133.156 252.834 133.26 252.292 133.26Z" fill="#3357FF"/>
<path d="M252.292 154.902H102.224C101.683 154.902 101.162 154.798 100.662 154.59C100.157 154.382 99.7191 154.085 99.3337 153.704C98.9482 153.319 98.6566 152.876 98.4482 152.376C98.2399 151.876 98.1357 151.35 98.1357 150.809C98.1357 150.267 98.2399 149.746 98.4482 149.241C98.6566 148.741 98.9482 148.298 99.3337 147.918C99.7191 147.533 100.157 147.236 100.662 147.027C101.162 146.819 101.683 146.715 102.224 146.715H252.292C252.834 146.715 253.354 146.819 253.854 147.027C254.354 147.236 254.797 147.533 255.177 147.918C255.563 148.298 255.86 148.741 256.063 149.241C256.271 149.746 256.375 150.267 256.375 150.809C256.375 151.35 256.271 151.876 256.063 152.376C255.86 152.876 255.563 153.319 255.177 153.704C254.797 154.085 254.354 154.382 253.854 154.59C253.354 154.798 252.834 154.902 252.292 154.902Z" fill="#3357FF"/>
<path d="M49.6922 234.712C48.562 234.712 47.6037 234.311 46.8016 233.515L39.5256 226.218C39.1297 225.837 38.8225 225.395 38.6089 224.89C38.3902 224.384 38.2808 223.858 38.2756 223.311C38.2704 222.765 38.3745 222.233 38.5777 221.728C38.786 221.218 39.0829 220.77 39.4735 220.384C39.8589 219.994 40.3068 219.697 40.812 219.488C41.3225 219.28 41.8485 219.176 42.3954 219.181C42.9475 219.186 43.4683 219.301 43.9735 219.515C44.4787 219.733 44.9214 220.035 45.3016 220.431L49.6922 224.832L60.8745 213.624C61.26 213.249 61.7027 212.962 62.1975 212.765C62.6975 212.567 63.2131 212.468 63.7495 212.473C64.286 212.478 64.8016 212.582 65.2912 212.791C65.786 212.999 66.2235 213.291 66.6037 213.671C66.9787 214.051 67.2756 214.488 67.4787 214.983C67.687 215.478 67.7964 215.994 67.7964 216.53C67.8016 217.067 67.7079 217.582 67.51 218.082C67.312 218.582 67.0256 219.025 66.6506 219.41L52.5829 233.515C51.7808 234.311 50.8225 234.712 49.6922 234.712Z" fill="#3357FF"/>
<path d="M71.0622 249.188H35.1351C34.6351 249.182 34.1403 249.135 33.6507 249.036C33.1559 248.938 32.682 248.797 32.2184 248.604C31.7549 248.411 31.3174 248.177 30.9007 247.896C30.484 247.62 30.0986 247.302 29.7445 246.948C29.3903 246.594 29.0726 246.208 28.7965 245.792C28.5205 245.375 28.2809 244.938 28.0934 244.474C27.9007 244.01 27.7549 243.531 27.6559 243.042C27.557 242.552 27.5101 242.052 27.5049 241.552V205.589C27.5101 205.089 27.557 204.594 27.6559 204.099C27.7549 203.609 27.9007 203.13 28.0882 202.667C28.2809 202.203 28.5153 201.766 28.7965 201.349C29.0726 200.932 29.3903 200.547 29.7445 200.188C30.0986 199.833 30.484 199.521 30.9007 199.24C31.3174 198.964 31.7549 198.729 32.2184 198.536C32.682 198.344 33.1559 198.198 33.6455 198.099C34.1403 198 34.6351 197.953 35.1351 197.953H71.0882C71.5882 197.953 72.083 198.005 72.5778 198.099C73.0674 198.198 73.5413 198.344 74.0049 198.536C74.4684 198.729 74.9059 198.964 75.3226 199.245C75.7393 199.521 76.1195 199.839 76.4736 200.193C76.8278 200.547 77.1455 200.932 77.4216 201.349C77.7028 201.766 77.9372 202.208 78.1247 202.667C78.3174 203.13 78.4632 203.609 78.5622 204.099C78.6611 204.594 78.708 205.089 78.708 205.589V241.552C78.708 242.052 78.6611 242.552 78.5622 243.042C78.4632 243.536 78.3174 244.016 78.1247 244.479C77.932 244.943 77.6924 245.38 77.4163 245.797C77.1351 246.214 76.8174 246.599 76.4632 246.958C76.1091 247.313 75.7236 247.625 75.307 247.906C74.8851 248.182 74.4476 248.417 73.9841 248.609C73.5205 248.802 73.0413 248.943 72.5518 249.042C72.057 249.141 71.5622 249.188 71.0622 249.188ZM35.6715 241H70.5101V206.135H35.6715V241Z" fill="#3357FF"/>
<path d="M252.292 216.839H102.224C101.683 216.839 101.162 216.734 100.662 216.526C100.157 216.323 99.7191 216.026 99.3337 215.641C98.9482 215.255 98.6566 214.818 98.4482 214.313C98.2399 213.813 98.1357 213.292 98.1357 212.75C98.1357 212.203 98.2399 211.682 98.4482 211.182C98.6566 210.682 98.9482 210.24 99.3337 209.854C99.7191 209.469 100.157 209.172 100.662 208.969C101.162 208.76 101.683 208.656 102.224 208.656H252.292C252.834 208.656 253.354 208.76 253.854 208.969C254.354 209.172 254.797 209.469 255.177 209.854C255.563 210.24 255.86 210.682 256.063 211.182C256.271 211.682 256.375 212.203 256.375 212.75C256.375 213.292 256.271 213.813 256.063 214.313C255.86 214.818 255.563 215.255 255.177 215.641C254.797 216.026 254.354 216.323 253.854 216.531C253.354 216.734 252.834 216.839 252.292 216.839Z" fill="#3357FF"/>
<path d="M252.292 238.484H102.224C101.683 238.484 101.162 238.38 100.662 238.172C100.157 237.964 99.7191 237.667 99.3337 237.281C98.9482 236.901 98.6566 236.458 98.4482 235.958C98.2399 235.453 98.1357 234.932 98.1357 234.391C98.1357 233.849 98.2399 233.323 98.4482 232.823C98.6566 232.323 98.9482 231.88 99.3337 231.495C99.7191 231.115 100.157 230.818 100.662 230.609C101.162 230.401 101.683 230.297 102.224 230.297H252.292C252.834 230.297 253.354 230.401 253.854 230.609C254.354 230.818 254.797 231.115 255.177 231.495C255.563 231.88 255.86 232.323 256.063 232.823C256.271 233.323 256.375 233.849 256.375 234.391C256.375 234.932 256.271 235.453 256.063 235.958C255.86 236.458 255.563 236.901 255.177 237.281C254.797 237.667 254.354 237.964 253.854 238.172C253.354 238.38 252.834 238.484 252.292 238.484Z" fill="#3357FF"/>
<path d="M49.6922 318.298C48.562 318.298 47.6037 317.897 46.8016 317.095L39.5256 309.803C39.1297 309.423 38.8225 308.98 38.6089 308.475C38.3902 307.97 38.2808 307.444 38.2756 306.897C38.2704 306.345 38.3745 305.819 38.5777 305.308C38.786 304.803 39.0829 304.355 39.4735 303.964C39.8589 303.579 40.3068 303.277 40.812 303.074C41.3225 302.865 41.8485 302.761 42.3954 302.766C42.9475 302.772 43.4683 302.881 43.9735 303.1C44.4787 303.313 44.9214 303.621 45.3016 304.016L49.6922 308.418L60.8745 297.204C61.2652 296.855 61.7027 296.584 62.1922 296.402C62.687 296.214 63.1922 296.131 63.7183 296.141C64.2391 296.152 64.7443 296.261 65.2287 296.47C65.7079 296.678 66.135 296.964 66.51 297.334C66.8797 297.704 67.1662 298.131 67.3745 298.615C67.5829 299.095 67.6922 299.6 67.7079 300.126C67.7235 300.652 67.6402 301.162 67.4579 301.652C67.2756 302.147 67.01 302.584 66.6558 302.975L52.5829 317.095C51.7808 317.897 50.8225 318.298 49.6922 318.298Z" fill="#3357FF"/>
<path d="M71.0622 332.764H35.1351C34.6351 332.764 34.1403 332.717 33.6455 332.618C33.1559 332.52 32.682 332.374 32.2184 332.181C31.7549 331.993 31.3174 331.754 30.9007 331.478C30.484 331.197 30.0986 330.884 29.7445 330.53C29.3903 330.171 29.0726 329.785 28.7965 329.368C28.5153 328.952 28.2809 328.514 28.0882 328.051C27.9007 327.587 27.7549 327.108 27.6559 326.618C27.557 326.129 27.5101 325.629 27.5049 325.129V289.171C27.5101 288.671 27.557 288.171 27.6559 287.681C27.7549 287.186 27.9007 286.712 28.0882 286.249C28.2809 285.785 28.5153 285.342 28.7965 284.926C29.0726 284.509 29.3903 284.124 29.7445 283.77C30.0986 283.415 30.484 283.098 30.9007 282.822C31.3174 282.54 31.7549 282.306 32.2184 282.113C32.682 281.921 33.1559 281.78 33.6455 281.681C34.1403 281.582 34.6351 281.535 35.1351 281.535H71.0882C71.5882 281.535 72.083 281.582 72.5778 281.681C73.0674 281.78 73.5413 281.926 74.0049 282.118C74.4684 282.311 74.9059 282.546 75.3226 282.822C75.7393 283.103 76.1195 283.421 76.4736 283.775C76.8278 284.129 77.1455 284.514 77.4216 284.931C77.7028 285.348 77.9372 285.785 78.1247 286.249C78.3174 286.712 78.4632 287.191 78.5622 287.681C78.6611 288.171 78.708 288.671 78.708 289.171V325.129C78.708 325.629 78.6611 326.129 78.5622 326.618C78.4632 327.113 78.3174 327.592 78.1247 328.056C77.932 328.52 77.6976 328.962 77.4163 329.379C77.1351 329.796 76.8226 330.181 76.4632 330.535C76.1091 330.889 75.7236 331.207 75.307 331.483C74.8903 331.764 74.4476 331.999 73.9841 332.191C73.5205 332.379 73.0413 332.525 72.5518 332.624C72.057 332.717 71.5622 332.764 71.0622 332.764ZM35.6715 324.582H70.5101V289.717H35.6715V324.582Z" fill="#3357FF"/>
<path d="M205.479 300.422H102.224C101.683 300.422 101.162 300.318 100.662 300.109C100.157 299.901 99.7191 299.609 99.3337 299.224C98.9482 298.839 98.6566 298.396 98.4482 297.896C98.2399 297.396 98.1357 296.87 98.1357 296.328C98.1357 295.786 98.2399 295.266 98.4482 294.76C98.6566 294.26 98.9482 293.818 99.3337 293.438C99.7191 293.052 100.157 292.755 100.662 292.547C101.162 292.339 101.683 292.234 102.224 292.234H205.479C206.021 292.234 206.542 292.339 207.042 292.547C207.547 292.755 207.985 293.052 208.37 293.438C208.75 293.818 209.047 294.26 209.256 294.76C209.464 295.266 209.568 295.786 209.568 296.328C209.568 296.87 209.464 297.396 209.256 297.896C209.047 298.396 208.75 298.839 208.37 299.224C207.985 299.609 207.547 299.901 207.042 300.109C206.542 300.318 206.021 300.422 205.479 300.422Z" fill="#3357FF"/>
<path d="M195.235 322.063H102.224C101.683 322.063 101.162 321.958 100.662 321.75C100.157 321.542 99.7191 321.245 99.3337 320.859C98.9482 320.479 98.6566 320.036 98.4482 319.531C98.2399 319.031 98.1357 318.51 98.1357 317.969C98.1357 317.427 98.2399 316.901 98.4482 316.401C98.6566 315.901 98.9482 315.458 99.3337 315.073C99.7191 314.687 100.157 314.396 100.662 314.188C101.162 313.979 101.683 313.875 102.224 313.875H195.235C195.776 313.875 196.297 313.979 196.797 314.188C197.297 314.396 197.74 314.687 198.125 315.073C198.506 315.458 198.802 315.901 199.011 316.401C199.214 316.901 199.318 317.427 199.318 317.969C199.318 318.51 199.214 319.031 199.011 319.531C198.802 320.036 198.506 320.479 198.125 320.859C197.74 321.245 197.297 321.542 196.797 321.75C196.297 321.958 195.776 322.063 195.235 322.063Z" fill="#3357FF"/>
<path d="M254.276 312.318C253.146 312.323 252.182 311.922 251.385 311.12L227.234 286.891C226.849 286.505 226.557 286.068 226.349 285.563C226.14 285.063 226.036 284.542 226.036 284C226.036 283.458 226.14 282.938 226.349 282.438C226.557 281.932 226.849 281.49 227.234 281.109L356.088 152.031C358.067 150.036 360.359 148.5 362.953 147.422C365.552 146.344 368.255 145.807 371.067 145.813H371.099C372.135 145.818 373.172 145.896 374.198 146.052C375.229 146.203 376.239 146.438 377.234 146.74C378.229 147.042 379.192 147.417 380.135 147.865C381.073 148.313 381.974 148.828 382.838 149.406C383.698 149.984 384.515 150.625 385.286 151.328C386.057 152.026 386.771 152.781 387.427 153.589C388.083 154.391 388.682 155.245 389.213 156.135C389.75 157.031 390.213 157.958 390.609 158.922C391.005 159.885 391.333 160.87 391.583 161.88C391.833 162.891 392.01 163.911 392.109 164.948C392.213 165.984 392.239 167.026 392.187 168.068C392.135 169.104 392.005 170.135 391.802 171.156C391.599 172.177 391.323 173.177 390.974 174.161C390.619 175.141 390.203 176.089 389.713 177.005C389.218 177.927 388.666 178.802 388.047 179.641C387.427 180.474 386.75 181.26 386.015 182L257.166 311.12C256.364 311.922 255.406 312.318 254.276 312.318ZM235.89 284L254.276 302.438L380.239 176.224C381.146 175.318 381.901 174.292 382.505 173.161C383.114 172.026 383.541 170.828 383.791 169.568C384.041 168.307 384.104 167.042 383.979 165.76C383.854 164.479 383.552 163.25 383.062 162.057C382.573 160.87 381.922 159.781 381.109 158.786C380.297 157.792 379.354 156.932 378.291 156.219C377.224 155.505 376.078 154.958 374.849 154.583C373.625 154.203 372.369 154.016 371.083 154.01C369.359 154.005 367.698 154.333 366.104 154.995C364.51 155.651 363.104 156.594 361.885 157.818L235.89 284Z" fill="#3357FF"/>
<path d="M375.068 191.318C373.937 191.323 372.974 190.922 372.177 190.12L348.01 165.917C347.625 165.531 347.333 165.089 347.125 164.589C346.917 164.083 346.812 163.563 346.812 163.021C346.812 162.479 346.917 161.958 347.125 161.453C347.333 160.953 347.625 160.51 348.01 160.125L356.099 152.026C356.589 151.531 357.104 151.068 357.641 150.625C358.177 150.188 358.729 149.771 359.307 149.385C359.885 149 360.479 148.646 361.089 148.318C361.703 147.99 362.328 147.693 362.969 147.427C363.609 147.161 364.26 146.927 364.922 146.724C365.589 146.521 366.26 146.354 366.938 146.219C367.62 146.083 368.307 145.979 368.995 145.911C369.688 145.844 370.375 145.812 371.068 145.812C371.766 145.812 372.453 145.844 373.146 145.911C373.833 145.979 374.521 146.083 375.203 146.219C375.88 146.354 376.552 146.521 377.219 146.724C377.88 146.927 378.531 147.161 379.172 147.427C379.812 147.693 380.438 147.99 381.052 148.313C381.661 148.641 382.255 149 382.833 149.385C383.411 149.771 383.964 150.182 384.5 150.625C385.036 151.063 385.552 151.531 386.042 152.021C386.531 152.51 386.995 153.026 387.438 153.563C387.875 154.099 388.292 154.656 388.677 155.234C389.063 155.813 389.417 156.406 389.745 157.021C390.068 157.635 390.365 158.26 390.63 158.901C390.896 159.542 391.13 160.198 391.333 160.859C391.531 161.526 391.703 162.198 391.839 162.88C391.974 163.563 392.073 164.25 392.141 164.938C392.208 165.63 392.245 166.323 392.245 167.016C392.245 167.714 392.208 168.406 392.141 169.099C392.073 169.786 391.974 170.474 391.839 171.156C391.703 171.839 391.531 172.51 391.333 173.177C391.13 173.839 390.896 174.495 390.63 175.135C390.37 175.776 390.073 176.401 389.745 177.016C389.417 177.63 389.063 178.224 388.677 178.802C388.292 179.38 387.88 179.938 387.438 180.474C387 181.01 386.536 181.526 386.042 182.016L377.953 190.12C377.156 190.922 376.193 191.323 375.068 191.318ZM356.682 163.005L375.068 181.422L380.266 176.214C380.865 175.604 381.401 174.948 381.875 174.24C382.344 173.526 382.74 172.776 383.063 171.99C383.385 171.198 383.63 170.385 383.797 169.547C383.958 168.714 384.042 167.865 384.042 167.016C384.036 166.161 383.953 165.318 383.786 164.479C383.62 163.641 383.37 162.828 383.047 162.042C382.719 161.255 382.318 160.505 381.844 159.797C381.37 159.089 380.833 158.432 380.234 157.828C379.63 157.224 378.974 156.688 378.266 156.214C377.557 155.74 376.812 155.339 376.026 155.01C375.24 154.682 374.427 154.438 373.594 154.271C372.76 154.099 371.917 154.016 371.063 154.016C370.214 154.01 369.37 154.094 368.531 154.26C367.698 154.422 366.885 154.667 366.099 154.99C365.313 155.318 364.563 155.714 363.854 156.188C363.141 156.656 362.484 157.193 361.88 157.797L356.682 163.005Z" fill="#3357FF"/>
<path d="M219.484 322.96C219.161 322.96 218.849 322.918 218.536 322.845C218.229 322.773 217.927 322.663 217.646 322.517C217.359 322.377 217.094 322.2 216.849 321.997C216.604 321.788 216.391 321.559 216.198 321.299C216.01 321.043 215.854 320.767 215.724 320.476C215.599 320.179 215.51 319.877 215.458 319.559C215.401 319.247 215.385 318.929 215.406 318.606C215.427 318.288 215.484 317.976 215.578 317.668L226.198 282.814C226.302 282.476 226.448 282.158 226.63 281.856C226.818 281.554 227.036 281.283 227.292 281.043C227.547 280.799 227.833 280.59 228.141 280.424C228.448 280.252 228.776 280.127 229.115 280.038C229.458 279.955 229.807 279.913 230.156 279.918C230.51 279.924 230.854 279.97 231.198 280.064C231.536 280.158 231.859 280.293 232.161 280.476C232.469 280.653 232.745 280.866 232.995 281.116L257.156 305.325C257.406 305.575 257.62 305.851 257.797 306.153C257.974 306.46 258.109 306.783 258.203 307.122C258.297 307.465 258.349 307.809 258.349 308.163C258.354 308.517 258.318 308.861 258.229 309.205C258.146 309.549 258.016 309.877 257.849 310.184C257.677 310.491 257.474 310.778 257.229 311.033C256.984 311.288 256.714 311.507 256.417 311.694C256.115 311.882 255.797 312.028 255.458 312.127L220.667 322.767C220.281 322.892 219.885 322.955 219.484 322.96ZM232.031 291.72L225.635 312.7L246.583 306.293L232.031 291.72Z" fill="#3357FF"/>
</svg>
