<?xml version="1.0" encoding="UTF-8"?>
<svg id="katman_2" data-name="katman 2" xmlns="http://www.w3.org/2000/svg" xmlns:xlink="http://www.w3.org/1999/xlink" viewBox="0 0 1556.78 352.36">
  <defs>
    <linearGradient id="Nueva_muestra_de_degradado_2" data-name="Nueva muestra de degradado 2" x1="222.62" y1="-5.43" x2="442.77" y2="383.1" gradientUnits="userSpaceOnUse">
      <stop offset="0" stop-color="#b86b08"/>
      <stop offset=".5" stop-color="#fde480"/>
      <stop offset="1" stop-color="#b86b08"/>
    </linearGradient>
    <linearGradient id="Nueva_muestra_de_degradado_2-2" data-name="Nueva muestra de degradado 2" x1="-3.87" y1="-13.6" x2="206.24" y2="423.95" xlink:href="#Nueva_muestra_de_degradado_2"/>
    <linearGradient id="Nueva_muestra_de_degradado_2-3" data-name="Nueva muestra de degradado 2" x1="495.81" y1="-13.6" x2="705.91" y2="423.95" xlink:href="#Nueva_muestra_de_degradado_2"/>
    <linearGradient id="Nueva_muestra_de_degradado_2-4" data-name="Nueva muestra de degradado 2" x1="721.84" y1="912.8" x2="742.95" y2="950.04" gradientTransform="translate(-37.67 -941) rotate(12.14)" xlink:href="#Nueva_muestra_de_degradado_2"/>
    <linearGradient id="Nueva_muestra_de_degradado_2-5" data-name="Nueva muestra de degradado 2" x1="691.1" y1="264.69" x2="998.63" y2="264.69" xlink:href="#Nueva_muestra_de_degradado_2"/>
    <linearGradient id="Nueva_muestra_de_degradado_2-6" data-name="Nueva muestra de degradado 2" x1="681.43" y1="95.65" x2="1556.78" y2="95.65" xlink:href="#Nueva_muestra_de_degradado_2"/>
  </defs>
  <g id="katman_1" data-name="katman 1">
    <path d="M390.22,311.57c-.05-1.08-.39-2.17-.95-3.11-1.02-1.72-2.65-2.99-4.32-4.08-1.28-.84-2.65-1.6-4.15-1.91-2.12-.44-4.33.05-6.49-.14-3.07-.28-5.82-1.94-8.45-3.56-10.7-6.63-29.32-24.85-28.08-25.58,5.13-3.03,8.38-10.03,13.94-12.17,1.83-.71,3.71-1.37,5.32-2.5,3.39-2.37,5.16-6.42,6.41-10.37,2.61-8.24,3.62-16.97,3.08-25.59.75-.28,1.49-.57,2.24-.86,1.01,2.28,1.61,4.75,1.72,7.24.06,1.3.18,2.9,1.37,3.4.61.26,1.31.11,1.96-.03,7.09-1.49,14.58-.99,21.41,1.42,1.19.42,2.5.9,3.69.46,1.85-.69,2.56-3.32,4.51-3.67.24-1.03-.6-2.06-1.58-2.46-.98-.4-2.08-.36-3.14-.42-7.09-.37-13.45-5.99-15.15-12.81,5.88-3.26,11.44-7.12,16.57-11.92,1.46-1.37,2.91-2.8,4.28-4.28,1.06-.26,2.12-.55,3.14-.85,5.71-1.66,11.41-3.32,17.12-4.98,2.28-.66,4.57-1.33,6.74-2.31,4.79-2.18,9.63-5.98,14.69-4.56,2.05,7.06,4.11,14.15,7.25,20.79.43.91.88,1.81,1.33,2.72-.05.2-.1.4-.16.59.16.02.31.03.47.04,1.81,3.63,3.59,7.3,4.06,11.3.38,3.23-.12,6.56-1.44,9.52,5.2,2.29,10.65-.17,14.57,3.06.49-4.78-1.13-9.74-4.36-13.29-.89-.98-1.88-1.85-2.7-2.89-.82-1.04-1.44-2.23-2.01-3.42-.69-1.44-1.32-2.9-1.92-4.39,2.99-.22,5.6-.36,8.17,1.26-.11-4.8-2.35-9.52-6-12.64-1-.86-2.1-1.6-3.04-2.53-.94-.93-1.7-2.03-2.43-3.14-.45-.7-.86-1.42-1.29-2.13-.29-3.15-.39-6.32-.24-9.47.12-2.54.36-5.21-.67-7.53-2.42-.59-4.56-2.22-7.01-2.51-.8-3.38-1.37-6.81-1.65-10.27-.2-2.54-.3-5.21-1.61-7.39-2.61-.3-5.06-1.79-7.68-1.61-1.73.12-3.32.97-4.88,1.73-7.66,3.73-16.1,5.76-24.61,6.06-.14-.48-.28-.95-.42-1.43-2.6-9.13-3.86-18.65-3.72-28.14.05-3.4.54-7.29,3.36-9.19,1.87-1.26,4.29-1.28,6.55-1.24,7.75.14,20.21,7.99,22.24,4.18.82-3.37,2.84-8.29,0-10.29-1.87-1.32-5.13-3.01-7.13-4.14-8.37-4.7-5.82-9.04-10.27-13.33-1.36-1.31-3.18-2.37-5.27-3.24.34-.03.68-.05,1.03-.05,3.39.02,6.94,1.89,8.12,5.07-.67-4.08-2.98-7.87-6.3-10.35,1.94-.44,4.1-1.02,5.12-2.73-3.08.75-6.41.45-9.31-.85,1.21-1.01,2.32-2.13,3.32-3.35-2.56,2.06-6.13,2.31-9.4,1.92-.05,0-.1-.01-.15-.02.06-.12.12-.25.17-.36.48-1.24.5-2.82.49-4.13,0-.54-.76-3.94-.6-4.14-.72.87-3.33,4.69-4.75,7.87-.37-.06-.74-.12-1.12-.17,0-.11,0-.24,0-.34-.09-1.33-.74-2.77-1.31-3.95-.23-.49-2.37-3.24-2.3-3.49-.16.61-.46,2.32-.69,4.3-2.48,3-7.73,5.11-10.72,5.57-4.87.74-9.93.02-12.46,5.4-.15.31-.29.65-.57.86-.27.19-.62.22-.95.25-3.8.29-7.6.59-11.39.88,1.49,1.13,3.2,1.96,5.01,2.44-3.49.55-6.65,2.9-8.2,6.08,1.49-1.97,4.87-2.04,6.45-.14.21.25.4.56.37.89-.02.33-.25.6-.47.84-2.57,2.8-5.99,4.65-8.98,6.99-2.99,2.35-4.82-3.94-6.17-6.25-1.72-2.93-6.14-2.5-8.97-4.39-2.73-1.83-3.88-5.79-7.03-6.72-1.59-.46-3.28,0-4.89.35-3.78.82-5.63,1.31-9.48.89-1.08-.85-.51-2.56-.19-4.19,3.28-.2,7.14-.76,7.48-1.61.11-.27.24-.8-.33-1.6-.78-1.09-1.27-2.07-.69-3.99.04-.15.19-.26.21-.41.08-.59-.98-1.01-.69-1.53.1-.18.34-.25.42-.44.18-.42-.55-.7-.62-1.16-.03-.19.06-.37.15-.54l1.09-2.1c.19-.38.08-.84-.28-1.07l-3.57-2.4c-.93-.63-1.89-1.29-2.44-2.26-.79-1.4-.56-3.13-.44-4.74.04-.5.05-1.02.02-1.54.99-.6,1.98-1.22,2.94-1.87,1.75-1.18,3.52-2.51,4.4-4.43-2.3-.05-4.59.21-6.84.71-.25-2.35-1.06-4.66-1.57-7-.3-1.36-1.72-2.15-3.04-1.69-5.48,1.92-10.96,3.97-16.54,5.55-2.7.76-12.13,4-10.38,7.71,1.73,3.68,4.14,7.03,7.07,9.84.32.31.66.61,1.07.76.09.03.18.03.27.05.01,3.04.56,7.57,1.35,9.73l.09-1.66c1.5,3.38,2.87,6.82,4.1,10.31.31.86.58,1.91.01,2.63-.3.38-.77.57-1.21.76-2.82,1.22-5.43,2.93-7.68,5.03-.61.57-1.21,1.2-1.54,1.97-.34.8-.36,1.69-.35,2.56.14,10.55-3.86,20.86-2.58,31.33.08.68,2.99,3.83,3.24,4.46.58,1.48,7.93-.38,9.41.21.82.33,1.65.56,2.49.73.53,2.11.8,4.33,1.01,6.53.82,8.53,1.15,17.15,2.61,25.56.11.65.26,1.32.44,1.97-6.65,2.18-12.54,4.95-14.72,8.54-.91,1.49-1.73,3.02-2.48,4.58-5.11-3.68-15.12-1.43-18.78,2.86-1.69,1.97-2.42,4.58-2.87,7.14-.45,2.56-.67,5.17-1.53,7.62s-2.5,4.78-4.92,5.72c-2.42.95-5.63.03-6.61-2.37-.21,1.25-.42,2.54-.16,3.79.26,1.24,1.11,2.45,2.35,2.75-.83,1.58-2.83,2.24-4.6,2.03-1.77-.21-3.37-1.11-4.92-1.99,1.77,2.96,4.05,5.62,6.72,7.8-1.07,2.55-3.9,3.89-5.5,6.14-.95,1.34-1.43,2.97-1.67,4.6-.96,6.71,2.16,13.5,6.77,18.47,1.99,2.14,4.26,4.01,6.08,6.29,1.83,2.28,3.22,5.09,3.02,8-.22,3.32-2.75,6.31-5.92,7.25-27.49-26.68-44.58-64.02-44.58-105.35,0-81.08,65.73-146.8,146.8-146.8,37.54,0,71.78,14.1,97.74,37.28C424.76,24.48,379.4,3.13,329.05,3.13c-96.3,0-174.37,78.07-174.37,174.37s78.07,174.37,174.37,174.37c87.91,0,160.62-65.06,172.62-149.66-12.98,54.61-56.46,97.39-111.45,109.36ZM423.45,173.22c4.48-2.76,8.8-7.15,14-6.37.92,2.13,1.85,4.26,2.81,6.37-6.76,1.9-13.86,2.59-20.87,2.11,1.39-.63,2.76-1.31,4.06-2.11ZM343.63,161.1s.04-.03.1-.07c-.03.02-.07.05-.1.07ZM353.16,154.14c-1.57,1.25-3.12,2.44-4.68,3.59-1.3-3.15-4.42-2.71-5.33-6.21,2.38.26,1.78.83,4.1,1.76,1.88.75,3.9.99,5.91.86ZM344.5,146.97c-1.59.47-.31-.5-1.59.47-.31-1.28-.54-2.48-.75-3.67,2.56-.02,5.12-.39,7.56-1.15-.34,2.37-2.93,3.65-5.23,4.34ZM343.03,135.59c1.62-.38,4.22,3.57,5.3,4.78-1.67,1.68-3.87,2.83-6.19,3.27-.42-2.49-.65-4.9-.76-7.66,1.65-.37,0,0,1.65-.39ZM257.08,273.92c5.03.48,10.47.41,13.92-3.12,2.89-2.95,3.42-7.48,3.05-11.59-.38-4.11-1.51-8.16-1.32-12.28,1.27,2.9,3.13,6.24,6.29,6.42-2.08-.55-3-3.05-2.97-5.21.03-2.16.67-4.32.29-6.44-.56-3.14-3.3-5.79-3.05-8.98.21-2.69,2.45-4.69,4.21-6.73,3.13-3.63,5.05-8.11,6.85-12.56.4,4.12,1.34,8.23,2.9,12.22.28.72.6,1.41.93,2.11.36,12.1.62,29.12-.41,30.11-12.92,12.41-6.88,13.03-6.03,14.6.68,1.25,2.01,1.97,3.27,2.64,13.83,7.4,26.27,17.37,36.49,29.26,1.09,1.27,2.23,2.61,3.82,3.14,2.15.72,4.57-.23,6.75.4,2.36.68,3.67,2.89,4.43,5.32-30.61-4.68-58.1-18.81-79.41-39.32ZM355.32,314.89c.73-1.83.36-4.03-.67-5.74-1.12-1.88-2.9-3.28-4.74-4.48-1.41-.92-2.9-1.76-4.55-2.1-2.33-.49-4.75.06-7.12-.16-3.37-.31-6.39-2.13-9.26-3.91-11.73-7.27-32.15-27.25-30.79-28.05,5.63-3.32,9.19-11,15.29-13.35,2.01-.77,4.07-1.51,5.84-2.74,3.72-2.6,5.66-7.04,7.03-11.37.68-2.14,1.26-4.31,1.74-6.5.19-.36.39-.65.61-.88.31,10.91.49,25.22-.41,26.09-11.78,11.32-6.27,11.89-5.5,13.32.62,1.14,1.84,1.8,2.98,2.41,12.61,6.75,23.95,15.84,33.28,26.69.99,1.15,2.04,2.38,3.48,2.87,1.96.66,4.17-.21,6.15.36,2.79.8,3.98,3.96,4.55,6.87-4.73.46-9.52.72-14.37.72-1.18,0-2.36-.02-3.54-.04Z" fill="url(#Nueva_muestra_de_degradado_2)"/>
    <path d="M0,44.3c52.98,0,64.82-20.64,75.42-44.3h46.13v352.36H52.98V83.56H0v-39.26Z" fill="url(#Nueva_muestra_de_degradado_2-2)"/>
    <path d="M499.67,44.3c52.98,0,64.82-20.64,75.42-44.3h46.13v352.36h-68.56V83.56h-52.98v-39.26Z" fill="url(#Nueva_muestra_de_degradado_2-3)"/>
    <polygon points="490.69 137.35 480.42 131.81 470.03 137.13 472.12 125.65 463.85 117.41 475.42 115.85 480.69 105.44 485.75 115.96 497.28 117.76 488.84 125.82 490.69 137.35" fill="url(#Nueva_muestra_de_degradado_2-4)"/>
    <path d="M822.9,258.11c.3.91-4.86,4.25-17.91,11.23-27.31,14.87-25.8,13.35-27.92,19.12-2.73,7.28-11.53,22.16-17,28.83-9.41,11.53-23.98,21.85-33.99,24.28-5.16,1.21-5.77,1.21-9.41.61-6.98-1.52-9.11-7.89-4.86-15.18,4.25-7.28,24.89-23.67,49.47-39.15,5.77-3.64,10.62-6.68,10.93-6.98.61-.61,4.25-15.78,4.25-18.21,0-1.21-.3-2.43-.91-2.43s-6.07,4.55-12.14,10.02c-16.69,15.17-18.82,16.69-24.58,17.3-4.25.3-5.16,0-6.68-1.82-3.64-4.25-.91-17,5.77-26.71,2.43-3.64,4.25-5.46,6.07-5.46.91,0,1.52.3,2.12.91,1.52,1.21,1.21,1.82-2.12,7.28-4.25,6.98-5.77,10.62-6.68,16.39-.61,3.34-.3,4.25.91,4.25,1.52,0,12.44-9.1,23.07-19.12,3.03-3.04,7.59-6.37,10.32-7.59,4.55-1.82,4.86-1.82,7.59-.3,3.64,2.13,4.25,4.86,2.73,12.44-.61,3.64-.91,6.68-.61,6.98.3.3,6.98-2.43,17.3-8.19,18.51-10.32,22.76-11.84,23.67-8.5h.61ZM752.19,315.17c4.86-6.07,15.18-22.46,14.57-23.67-2.73,0-36.12,23.67-44.01,31.56-5.46,5.46-8.19,10.62-6.98,13.35,1.21,2.43,7.59,1.21,14.57-2.43,7.59-4.25,17.3-12.14,22.46-18.51l-.61-.3ZM863.57,262.97c9.71-6.37,13.66-7.59,14.26-4.55,0,.61-2.43,2.43-6.07,5.16-8.19,5.77-19.73,12.44-28.83,17-12.75,6.37-17.6,7.89-23.98,7.89-4.25,0-5.77-.61-8.5-2.73-2.43-1.82-3.34-3.34-3.34-5.77,0-3.95,3.34-12.14,7.28-17.91,4.25-6.37,6.68-9.1,8.8-9.1.91,0,1.82.61,2.73,1.52,1.21,1.21.61,2.73-3.95,10.02-8.5,13.66-9.11,18.82-1.82,18.82,6.68,0,23.98-7.59,43.7-20.33h-.3ZM941.87,256.9c.91,0,1.82.91,2.12,1.82,0,.61-1.82,2.43-4.55,5.16-7.89,7.28-22.16,18.21-29.44,22.46-13.96,7.89-25.49,10.62-33.08,8.19-3.03-.91-6.37-4.25-7.89-7.59-3.64-9.1,1.82-26.4,15.78-49.47,14.26-23.67,36.12-45.52,49.77-49.77,2.43-.61,3.64-.91,4.55-.91s1.82.3,3.34,1.21c14.26,8.8-9.71,41.58-45.22,61.91-3.95,2.12-8.8,4.55-10.93,5.16-3.64,1.21-3.95,1.82-6.98,10.02-3.95,10.93-4.55,20.33-1.52,23.07,4.55,4.25,16.39,1.52,30.05-6.98,3.34-2.12,13.96-10.02,20.64-14.87,4.55-3.34,12.44-9.71,13.35-9.71v.3ZM894.23,233.83c-5.16,7.89-8.5,14.26-7.28,14.26.61,0,5.46-2.73,10.62-6.07,10.32-6.68,22.46-16.69,29.44-24.28,8.19-8.8,14.26-20.64,12.75-24.58-.3-.91-.61-1.21-1.21-1.21s-1.52.3-3.03.91c-10.02,4.25-30.05,24.28-41.28,41.28v-.3ZM984.37,262.97c9.71-6.37,13.66-7.59,14.26-4.55,0,.61-2.43,2.43-6.07,5.16-8.19,5.77-19.73,12.44-28.83,17-12.75,6.37-17.6,7.89-23.98,7.89-4.25,0-5.77-.61-8.5-2.73-2.43-1.82-3.34-3.34-3.34-5.77,0-3.95,3.34-12.14,7.28-17.91,4.25-6.37,6.68-9.1,8.8-9.1.91,0,1.82.61,2.73,1.52,1.21,1.21.61,2.73-3.95,10.02-8.5,13.66-9.11,18.82-1.82,18.82,6.68,0,23.98-7.59,43.7-20.33h-.3ZM695.45,285.42c9.71-4.16,20.1,4.16,15.25,11.79-2.77,4.16-11.79,4.85-16.64,1.39-4.85-3.47-3.47-11.09,2.08-13.17h-.69Z" fill="url(#Nueva_muestra_de_degradado_2-5)"/>
    <path d="M681.96,142.34c0-10.37.27-13.3,2.39-20.21,4.52-14.89,13.56-33.77,22.87-47.86,22.07-33.5,57.97-61.16,88.28-67.8,12.76-2.66,23.4,1.33,26.06,9.84,2.66,8.24-5.32,27.92-17.81,43.61-7.18,9.04-12.5,14.09-14.62,14.09-3.19,0-2.92-2.13.53-5.58,14.09-14.09,25.79-35.37,25.79-47.06,0-5.58,0-5.85-2.92-7.98-2.66-1.86-3.99-2.13-8.24-2.13-13.83,0-34.04,9.31-53.45,24.73-24.46,19.41-41.21,41.75-54.24,71.53-8.24,18.88-10.64,33.5-7.71,47.06,2.39,10.64,7.71,17.55,16.49,20.47,10.9,3.46,23.13,1.6,32.97-1.06,11.97-3.46,25.53-9.84,40.95-19.41,11.97-7.45,28.98-19.15,43.34-31.11,12.76-10.64,15.95-12.5,17.28-9.84.53.8-3.46,4.52-13.56,12.76-37.76,31.11-63.02,46-88.01,51.85-11.97,2.66-23.13,4.52-35.1.53-9.84-3.19-16.22-9.84-20.21-20.21-1.33-3.72-1.6-7.18-1.6-16.75l.53.53ZM924.99,105.11c1.06,1.86,0,3.19-10.37,10.1-14.36,9.84-27.65,16.22-34.3,15.95-7.71-.27-9.57-5.58-9.04-10.37l.53-5.32-7.18,5.85c-11.7,9.31-17.81,10.9-21.8,6.12-2.39-2.92-.53-9.84,4.79-18.88,4.52-7.45,6.38-8.77,9.04-6.65,1.33,1.06,1.06,1.6-2.13,6.91-1.86,3.19-3.99,7.18-4.79,9.04-1.6,3.72-1.86,7.98-.53,7.98s9.04-5.58,19.68-14.09c9.57-7.71,11.97-8.77,13.3-5.85.27.53-.8,4.52-2.39,8.51-1.6,3.99-2.92,8.24-2.92,9.31,0,6.91,14.36,1.33,37.76-14.62,2.13-1.6,4.25-2.92,5.85-3.99,1.86-1.33,3.99-1.86,4.79-.27l-.27.27ZM1031.35,104.84c.8,1.86.27,2.39-11.97,11.43-19.94,14.89-30.84,19.41-38.82,16.22-3.72-1.59-4.52-4.79-2.66-11.43.8-3.19,2.13-7.45,2.66-9.31.53-1.86.8-3.46.53-3.72-.8-.8-7.45,3.19-16.49,9.57-8.24,5.85-11.43,7.18-14.09,5.58-1.86-1.06-2.13-3.46-1.06-11.17.53-4.79.53-5.58-.53-5.58-3.46,0-14.36,8.51-26.06,20.21-4.52,4.52-5.85,5.32-7.98,5.05-2.13-.27-2.39-.53-2.39-3.72,0-6.38,9.84-28.19,13.03-29.25.8-.27,1.86,0,2.39.53,1.33,1.06.53,3.46-4.25,13.83-1.86,3.72-3.19,6.91-2.92,6.91s2.92-2.13,6.12-4.79c11.7-10.1,17.55-13.83,22.6-13.83,5.85,0,7.45,3.19,5.85,12.5l-.8,4.52,7.45-5.32c10.37-7.44,14.62-9.57,18.88-10.1,3.19-.27,3.99,0,5.32,1.86,1.6,1.86,1.6,2.39-.8,10.9-3.46,11.7-3.46,11.17-2.13,12.76,1.06,1.33,1.6,1.33,5.58.27,7.45-2.13,14.62-7.18,29.78-18.61,8.51-6.38,11.17-7.71,12.23-5.32h.53ZM1105,104.58c.27.53-1.06,2.13-3.19,4.25-6.91,6.38-22.6,17.02-29.51,19.41-7.18,2.39-14.89.8-16.75-3.46-.53-1.33-1.06-5.58-1.06-9.31s-.27-6.91-.8-6.91c-2.13,0-13.03,6.91-23.4,14.89-6.38,5.05-12.23,9.04-13.03,9.04s-2.13-.53-2.66-1.06c-1.6-1.6-1.06-3.99,3.19-13.56,9.57-21.01,45.74-73.12,52.12-74.98,2.39-.8,3.99-.27,3.46,2.13,0,.53-2.66,4.52-7.18,10.37-9.57,12.5-19.94,27.39-27.92,39.88-6.38,9.84-14.89,25.26-14.36,25.79.27.27,4.25-2.39,8.77-5.85,8.51-6.65,18.88-12.23,22.34-12.23,1.06,0,2.66.53,3.72,1.06,1.6,1.06,1.86,2.39,2.39,10.64l.27,5.58c.27,3.99,1.06,3.99,3.72,4.25s4.79-.53,10.37-3.46c6.65-3.46,21.8-14.36,24.2-15.69,2.66-1.6,4.25-2.13,5.05-.53l.27-.27ZM1174.66,105.11c1.06,1.86,0,3.19-10.37,10.1-14.36,9.84-27.65,16.22-34.3,15.95-7.71-.27-9.57-5.58-9.04-10.37l.53-5.32-7.18,5.85c-11.7,9.31-17.81,10.9-21.8,6.12-2.39-2.92-.53-9.84,4.79-18.88,4.52-7.45,6.38-8.77,9.04-6.65,1.33,1.06,1.06,1.6-2.13,6.91-1.86,3.19-3.99,7.18-4.79,9.04-1.6,3.72-1.86,7.98-.53,7.98s9.04-5.58,19.68-14.09c9.57-7.71,11.97-8.77,13.3-5.85.27.53-.8,4.52-2.39,8.51-1.6,3.99-2.92,8.24-2.92,9.31,0,6.91,14.36,1.33,37.76-14.62,2.13-1.6,4.25-2.92,5.85-3.99,1.86-1.33,3.99-1.86,4.79-.27l-.27.27ZM1215.61,105.38c5.85-2.13,8.51-2.13,8.51.27,0,.8-1.33,1.86-3.46,2.92-3.46,1.59-9.04,2.92-13.83,3.19-7.71.53-11.7-1.6-14.89-4.79-1.33-1.33-2.66-2.39-3.19-2.39-1.33,0-11.43,9.84-20.47,19.68-4.52,5.05-8.77,9.04-9.57,9.04s-1.86-.53-2.39-1.06c-1.6-1.6,1.33-8.77,8.24-19.94,5.85-9.57,7.71-11.17,10.1-9.04,1.33,1.06,1.33,1.33-.53,4.52-2.13,3.19-1.86,3.19,6.12-3.19,9.84-7.71,11.17-7.98,14.36-2.66,2.13,3.19,3.46,4.79,9.84,4.79,3.72,0,6.91-.53,10.9-1.86l.27.53ZM1269.05,109.1c8.51-5.58,11.97-6.65,12.5-3.99,0,.53-2.13,2.13-5.32,4.52-7.18,5.05-17.28,10.9-25.26,14.89-11.17,5.58-15.42,6.91-21.01,6.91-3.72,0-5.05-.53-7.45-2.39-2.13-1.6-2.92-2.92-2.92-5.05,0-3.46,2.92-10.64,6.38-15.69,3.72-5.58,5.85-7.98,7.71-7.98.8,0,1.6.53,2.39,1.33,1.06,1.06.53,2.39-3.46,8.77-7.45,11.97-7.98,16.49-1.6,16.49,5.85,0,21.01-6.65,38.29-17.81h-.27ZM1239.81,90.22c-.8-1.59,4.25-8.24,6.12-7.98,3.19.53,3.46,2.66.8,5.85-2.66,3.19-5.85,4.25-6.91,2.13ZM1348.82,104.84c.27.8-4.25,3.72-15.69,9.84-23.93,13.03-22.6,11.7-24.46,16.75-2.39,6.38-10.1,19.41-14.89,25.26-8.24,10.1-21.01,19.14-29.78,21.27-4.52,1.06-5.05,1.06-8.24.53-6.12-1.33-7.98-6.91-4.25-13.29,3.72-6.38,21.8-20.74,43.34-34.3,5.05-3.19,9.31-5.85,9.57-6.12.53-.53,3.72-13.83,3.72-15.95,0-1.06-.27-2.13-.8-2.13s-5.32,3.99-10.64,8.77c-14.62,13.3-16.49,14.62-21.54,15.16-3.72.27-4.52,0-5.85-1.59-3.19-3.72-.8-14.89,5.05-23.4,2.13-3.19,3.72-4.79,5.32-4.79.8,0,1.33.27,1.86.8,1.33,1.06,1.06,1.6-1.86,6.38-3.72,6.12-5.05,9.31-5.85,14.36-.53,2.92-.27,3.72.8,3.72,1.33,0,10.9-7.98,20.21-16.75,2.66-2.66,6.65-5.58,9.04-6.65,3.99-1.6,4.25-1.6,6.65-.27,3.19,1.86,3.72,4.25,2.39,10.9-.53,3.19-.8,5.85-.53,6.12.27.27,6.12-2.13,15.16-7.18,16.22-9.04,19.94-10.37,20.74-7.45h.53ZM1286.87,154.83c4.25-5.32,13.29-19.68,12.76-20.74-2.39,0-31.64,20.74-38.56,27.65-4.79,4.79-7.18,9.31-6.12,11.7,1.06,2.13,6.65,1.06,12.76-2.13,6.65-3.72,15.16-10.64,19.68-16.22l-.53-.27ZM1388.97,109.36c9.57-7.45,10.64-5.32,10.37-3.72,0,.8-2.66,3.99-8.78,8.77-19.68,15.42-33.24,21.27-44.94,19.41-9.04-1.6-13.83-6.38-13.03-13.03,1.06-9.31,12.5-19.41,20.74-19.41,1.06,0,2.13.27,3.19.8,4.52,2.13,4.25,6.91-1.06,11.43-2.92,2.66-6.12,3.19-9.31,3.46-5.32.27-5.85-.53-6.65,1.06-.53,1.06-.8,3.19-.53,4.79.27,4.25,3.72,6.38,10.37,6.38,9.31,0,21.27-6.12,39.35-20.21l.27.27ZM1346.43,108.57c-1.86,1.59-2.13,2.39-1.33,2.92q1.6.8,5.05-.8c2.66-1.33,4.79-4.25,3.72-5.05h-.53c-1.33,0-4.52,1.59-7.18,3.72l.27-.8ZM1452.25,63.9c30.31.27,31.91.53,31.38,3.99-.27,1.86-5.05,2.66-6.91,1.33-1.06-.8-46.8-1.06-53.18-.27-3.19.53-3.72,1.06-6.65,6.12-1.86,2.92-5.85,9.57-8.77,14.62-41.21,70.73-48.13,85.35-48.13,90.41,0,1.86-.27,3.99-.8,4.52-1.33,1.6-5.32,1.33-6.38-.53-1.86-2.92,8.51-24.99,24.46-52.91,5.85-10.37,13.83-24.2,17.55-30.84,3.72-6.65,9.31-16.22,12.23-21.27,2.93-5.05,5.05-9.31,4.79-9.57-.53-.53-34.3,1.06-43.08,2.13-6.38.8-7.18.8-8.24-.53-1.86-2.13,0-3.19,7.98-4.25,8.24-1.06,33.5-2.66,42.01-2.66h5.32l5.85-9.04c4.25-6.38,6.38-9.04,7.71-9.31,3.72-.53,3.46,2.39-1.06,9.84-2.39,3.99-4.25,7.45-4.25,7.71s12.76.53,28.45.8l-.27-.27ZM1463.95,109.1c8.51-5.58,11.97-6.65,12.5-3.99,0,.53-2.13,2.13-5.32,4.52-7.18,5.05-17.28,10.9-25.26,14.89-11.17,5.58-15.42,6.91-21.01,6.91-3.72,0-5.05-.53-7.45-2.39-2.13-1.6-2.92-2.92-2.92-5.05,0-3.46,2.92-10.64,6.38-15.69,3.72-5.58,5.85-7.98,7.71-7.98.8,0,1.6.53,2.39,1.33,1.06,1.06.53,2.39-3.46,8.77-7.45,11.97-7.98,16.49-1.6,16.49,5.85,0,21.01-6.65,38.29-17.81h-.27ZM1434.7,90.22c-.8-1.59,4.25-8.24,6.12-7.98,3.19.53,3.46,2.66.8,5.85-2.66,3.19-5.85,4.25-6.91,2.13ZM1556.75,103.78c.27.8-1.33,2.66-4.25,5.05-7.45,6.38-22.07,16.22-31.64,20.21-9.57,4.25-15.95,3.72-19.14-1.33-1.86-2.92-1.33-6.12,2.13-15.16,1.33-3.46,2.13-6.38,1.86-6.65-1.33-1.06-14.36,6.65-21.54,12.76s-17.02,12.76-18.88,12.76c-1.06,0-2.66-.53-3.46-1.33-1.06-.8-1.33-2.13-1.06-3.99,1.06-5.85,11.43-23.13,15.16-24.99,1.06-.53,1.86-.53,2.92.53,1.6,1.33,1.6,1.6-.8,4.79-3.46,4.79-9.84,15.42-10.64,17.81-.53,1.33,2.39-.53,9.84-6.38,17.55-13.56,27.39-18.08,31.91-14.62,2.66,1.86,2.39,5.58-.53,12.76-2.66,6.38-3.19,11.43-1.33,11.97,4.79,1.33,19.14-6.12,37.76-19.41,7.45-5.32,9.84-6.12,10.9-3.72l.8-1.06Z" fill="url(#Nueva_muestra_de_degradado_2-6)"/>
  </g>
</svg>