<?xml version="1.0" encoding="UTF-8"?>
<svg id="katman_2" data-name="katman 2" xmlns="http://www.w3.org/2000/svg" xmlns:xlink="http://www.w3.org/1999/xlink" viewBox="0 0 587.08 184.08">
  <defs>
    <clipPath id="clippath">
      <path d="M66.02,111.46c-2.2,0-3.99,1.79-3.99,3.99v46.96c.08-.02.16-.05.25-.08.56-.17,1.36-.41,2.35-.77,21.6-7.66,36.35-27.48,37.97-50.1h-36.58Z" fill="none"/>
    </clipPath>
    <clipPath id="clippath-1">
      <path d="M65.75,108.31h36.79c.05-.96.07-1.92.07-2.89v-41.73h-40.86v40.62c0,2.21,1.79,4,4,4Z" fill="none"/>
    </clipPath>
    <clipPath id="clippath-2">
      <path d="M55.7,111H18.78c1.63,22.82,16.52,42.82,38.32,50.55,1.17.41,2.06.69,2.62.85v-47.38c0-2.22-1.8-4.02-4.02-4.02Z" fill="none"/>
    </clipPath>
  </defs>
  <g id="katman_1" data-name="katman 1">
    <g>
      <g>
        <path d="M422.92,139.48c-1.15-.77-2.31-1.73-3.08-2.89l1.54-1.35c.77.96,1.54,1.92,2.69,2.5.96.58,2.12.96,3.08.96,1.35,0,2.5-.38,3.46-1.15.96-.77,1.35-1.92,1.35-3.08,0-.96-.19-1.73-.77-2.5-.58-.77-1.15-1.35-1.73-1.73-.77-.38-1.73-.96-2.89-1.54s-2.12-.96-3.27-1.73c-.77-.58-1.35-1.15-1.92-1.92-.58-.96-.77-1.92-.77-3.08s.19-2.12.77-3.08c.58-.96,1.35-1.54,2.31-2.12s2.12-.77,3.27-.77c2.5,0,4.81,1.35,6.35,3.27l-1.35,1.54c-.58-.77-1.35-1.35-2.31-1.92-.77-.58-1.73-.77-2.69-.77-1.15,0-2.31.38-3.27,1.15-.77.77-1.35,1.73-1.35,2.89,0,.77.19,1.54.77,2.12.38.58.96,1.15,1.73,1.54.96.58,1.73.96,2.69,1.35,1.35.58,2.5,1.35,3.46,1.73.96.58,1.54,1.35,2.12,2.12.58.96.96,2.12.96,3.46,0,2.31-1.15,4.43-3.27,5.39-1.15.58-2.5.96-3.66.77-1.54.19-2.89-.38-4.23-1.15h0Z" fill="#fff"/>
        <path d="M445.83,139.09c-1.73-1.15-3.27-2.69-4.23-4.43-2.12-3.85-2.12-8.47,0-12.31.96-1.92,2.5-3.46,4.23-4.43,3.66-2.12,8.08-2.31,11.74-.38v2.31c-.77-.38-1.54-.77-2.5-1.15-.96-.19-1.92-.38-3.08-.38-1.92,0-3.66.38-5.19,1.35-1.54.96-2.69,2.31-3.66,3.85-.77,1.54-1.35,3.27-1.35,5.19,0,1.73.38,3.66,1.35,5.19.77,1.54,2.12,2.89,3.66,3.85,1.54.96,3.46,1.54,5.19,1.35.96,0,1.92-.19,3.08-.38.96-.19,1.73-.58,2.5-1.15v2.31c-1.73.77-3.66,1.15-5.39,1.15-2.12-.19-4.43-.77-6.35-1.92h0Z" fill="#fff"/>
        <polygon points="481.2 116.39 481.2 140.44 479.28 140.44 479.28 129.28 465.62 129.28 465.62 140.44 463.5 140.44 463.5 116.39 465.62 116.39 465.62 127.36 479.28 127.36 479.28 116.39 481.2 116.39" fill="#fff"/>
        <path d="M504.88,137.36c1.54-.96,2.89-2.31,3.66-3.85,1.73-3.27,1.73-7.12,0-10.2-2.89-5-9.24-6.73-14.04-3.85h-.19c-1.54.96-2.89,2.31-3.66,3.85-.77,1.54-1.35,3.27-1.35,5.19,0,1.73.38,3.66,1.35,5.19,2.89,4.81,9.24,6.54,14.24,3.66h0ZM493.15,139.09c-1.92-1.15-3.27-2.69-4.43-4.43-2.12-3.85-2.12-8.47,0-12.31.96-1.92,2.5-3.46,4.43-4.43,4.04-2.31,8.85-2.31,12.7,0,1.92,1.15,3.27,2.69,4.43,4.43,2.12,3.85,2.12,8.47,0,12.31-.96,1.92-2.5,3.46-4.43,4.43-3.85,2.31-8.66,2.31-12.7,0Z" fill="#fff"/>
        <path d="M535.54,137.36c1.54-.96,2.89-2.31,3.66-3.85,1.73-3.27,1.73-7.12,0-10.2-2.89-5-9.24-6.73-14.04-3.85h-.19c-1.54.96-2.89,2.31-3.66,3.85-.96,1.54-1.35,3.27-1.35,5.19,0,1.73.38,3.66,1.35,5.19,2.89,4.81,9.04,6.54,14.24,3.66-.19,0,0,0,0,0h0ZM523.8,139.09c-1.92-1.15-3.27-2.69-4.43-4.43-2.12-3.85-2.12-8.47,0-12.31.96-1.92,2.5-3.46,4.43-4.43,4.04-2.31,8.85-2.31,12.7,0,1.92,1.15,3.27,2.69,4.43,4.43,2.12,3.85,2.12,8.47,0,12.31-.96,1.92-2.5,3.46-4.43,4.43-3.85,2.31-8.66,2.31-12.7,0Z" fill="#fff"/>
        <polygon points="559.99 138.32 559.99 140.44 548.45 140.44 548.45 116.39 550.56 116.39 550.56 138.32 559.99 138.32" fill="#fff"/>
      </g>
      <polygon points="192.73 103.82 177.56 84 177.56 103.82 170.32 103.82 170.32 60.9 177.56 60.9 177.56 82.1 192.56 60.9 201 60.9 185.32 82.79 201.52 103.82 192.73 103.82" fill="#fff"/>
      <path d="M261.67,95.03c2.07-1.38,3.79-3.1,5-5.34,1.21-2.24,1.72-4.83,1.72-7.41s-.52-5-1.72-7.24c-1.21-2.07-2.93-3.96-5-5.17-2.24-1.38-5-1.9-7.58-1.9h-4.83v28.96h4.83c2.76.17,5.34-.52,7.58-1.9h0ZM265.46,63.83c3.1,1.9,5.69,4.48,7.58,7.76,1.72,3.27,2.76,7.07,2.59,10.86,0,3.79-.86,7.58-2.59,10.86-1.72,3.27-4.31,5.86-7.58,7.76-3.45,1.9-7.41,2.93-11.38,2.76h-11.89v-42.92h11.89c3.96,0,7.93.86,11.38,2.93Z" fill="#fff"/>
      <polygon points="285.46 67.8 285.46 78.66 298.21 78.66 298.21 85.55 285.46 85.55 285.46 96.93 302.35 96.93 302.35 103.82 278.39 103.82 278.39 60.9 302.35 60.9 302.35 67.8 285.46 67.8" fill="#fff"/>
      <polygon points="346.12 103.82 340.61 79.35 329.23 104.34 328.37 104.34 317.17 79.69 312.17 103.82 304.93 103.82 314.41 60.21 315.44 60.21 328.72 90.72 342.16 60.21 343.19 60.21 353.36 103.82 346.12 103.82" fill="#fff"/>
      <polygon points="390.07 103.82 374.91 84 374.91 103.82 367.67 103.82 367.67 60.9 374.91 60.9 374.91 82.1 389.9 60.9 398.35 60.9 382.49 82.79 398.86 103.82 390.07 103.82" fill="#fff"/>
      <polygon points="150.5 60.39 149.47 60.39 130.34 103.82 138.09 103.82 141.54 95.72 141.54 95.72 144.3 88.83 149.98 75.21 155.67 88.83 158.43 95.72 158.77 96.24 161.88 103.82 169.63 103.82 150.5 60.39" fill="#fff"/>
      <polygon points="221.68 60.39 220.65 60.39 201.52 103.82 209.27 103.82 212.72 95.72 215.65 88.83 221.17 75.21 226.85 88.83 226.85 88.83 229.78 95.72 229.96 96.24 233.06 103.82 240.82 103.82 221.68 60.39" fill="#fff"/>
      <g>
        <polygon points="363.7 62.63 363.7 60.9 356.47 60.9 356.47 69.35 363.7 62.63" fill="#fff"/>
        <polygon points="356.47 72.45 356.47 103.82 363.7 103.82 363.7 65.38 356.47 72.45" fill="#fff"/>
      </g>
      <polygon points="587.08 60.9 587.08 64.18 583.46 67.8 583.46 60.9 587.08 60.9" fill="#fff"/>
      <polygon points="587.08 67.11 587.08 103.82 583.46 103.82 583.46 70.73 587.08 67.11" fill="#fff"/>
      <polygon points="436.95 103.82 418 83.83 418 103.82 414.2 103.82 414.2 60.73 418 60.73 418 82.28 436.95 60.73 441.44 60.73 421.79 82.97 441.95 103.82 436.95 103.82" fill="#fff"/>
      <path d="M476.77,98.3c2.76-1.72,5-3.96,6.55-6.89,3.1-5.69,3.1-12.75,0-18.44-5-8.96-16.55-12.06-25.34-7.07,0,0-.17,0-.17.17-2.76,1.55-5,3.96-6.55,6.72-1.55,2.76-2.41,6.03-2.41,9.31s.86,6.38,2.41,9.31c1.55,2.93,3.79,5.34,6.72,6.89,5.69,3.45,12.93,3.45,18.79,0h0ZM455.74,101.41c-3.27-1.9-6.03-4.83-7.93-8.1-1.9-3.45-2.76-7.24-2.76-11.2s1.03-7.76,2.93-11.2c1.9-3.45,4.48-6.2,7.93-8.1,7.24-3.96,15.86-3.96,23.1,0,3.27,1.9,6.03,4.83,7.93,8.1,1.9,3.45,2.76,7.24,2.76,11.03s-.86,7.76-2.76,11.2c-1.9,3.45-4.65,6.2-7.93,8.1-7.41,4.14-16.03,4.14-23.27.17h0Z" fill="#fff"/>
      <polygon points="520.03 100.2 520.03 103.82 499.17 103.82 499.17 60.73 502.79 60.73 502.79 100.2 520.03 100.2" fill="#fff"/>
      <polygon points="530.2 64.18 530.2 79.86 545.37 79.86 545.37 83.48 530.2 83.48 530.2 100.2 549.33 100.2 549.33 103.82 526.58 103.82 526.58 60.73 549.33 60.73 549.33 64.18 530.2 64.18" fill="#fff"/>
      <path d="M557.78,103.3c-1.55-.69-3.1-1.9-4.31-3.1l2.41-2.76c.86,1.03,2.07,1.9,3.27,2.41,1.21.52,2.41.86,3.62.86,1.9.17,3.79-.52,5.17-2.07,1.21-1.55,1.9-3.62,1.72-5.69v-32.23h3.62v32.75c.17,2.93-.86,5.69-2.76,7.93-2.07,2.07-4.83,3.27-7.76,3.1-1.72,0-3.45-.52-5-1.21h0Z" fill="#fff"/>
      <g>
        <path d="M152.58,116.04h2.78v24.6h-2.78v-24.6Z" fill="#fff"/>
        <path d="M180.32,115.97v25.04h-.14l-16.86-18.72v18.37h-2.78v-25.01h.15l16.85,18.71v-18.39h2.78Z" fill="#fff"/>
        <path d="M200.76,118.78h-7.13v21.85h-2.78v-21.85h-7.16v-2.75h17.06v2.75Z" fill="#fff"/>
        <path d="M206.91,118.77v7.78h10.12v2.78h-10.12v8.55h11.67v2.76h-14.45v-24.6h14.45v2.73h-11.67Z" fill="#fff"/>
        <path d="M237.25,140.64l-6.87-9.6h-4.59v9.6h-2.78l-.02-24.6h7.26c4.56,0,8.29,3.51,8.29,7.84,0,3.19-2.18,5.94-5.17,6.84l7.31,9.92h-3.43ZM230.35,128.7c2.93,0,5.34-2.23,5.34-4.88,0-2.84-2.44-5.04-5.34-5.04h-4.58v9.9l4.58.02Z" fill="#fff"/>
        <path d="M263.31,115.97v25.04h-.14l-16.86-18.72v18.37h-2.78v-25.01h.15l16.85,18.71v-18.39h2.78Z" fill="#fff"/>
        <path d="M284.54,136.59h-13.43l-1.8,4.04h-3.01l11.37-24.98h.31l11.38,24.98h-3.02l-1.8-4.04ZM283.47,134.18l-5.63-12.65-5.65,12.65h11.28Z" fill="#fff"/>
        <path d="M304.53,118.78h-7.13v21.85h-2.78v-21.85h-7.16v-2.75h17.06v2.75Z" fill="#fff"/>
        <path d="M307.9,116.04h2.78v24.6h-2.78v-24.6Z" fill="#fff"/>
        <path d="M314.57,128.35c0-6.97,5.69-12.67,12.64-12.67s12.65,5.69,12.65,12.67-5.69,12.61-12.67,12.61-12.62-5.68-12.62-12.61ZM337.05,128.34c0-5.42-4.43-9.86-9.86-9.86s-9.81,4.44-9.81,9.86,4.41,9.81,9.81,9.81,9.86-4.41,9.86-9.81Z" fill="#fff"/>
        <path d="M363.53,115.97v25.04h-.14l-16.86-18.72v18.37h-2.78v-25.01h.15l16.85,18.71v-18.39h2.78Z" fill="#fff"/>
        <path d="M384.76,136.59h-13.43l-1.8,4.04h-3.01l11.37-24.98h.31l11.38,24.98h-3.02l-1.8-4.04ZM383.69,134.18l-5.63-12.65-5.65,12.65h11.28Z" fill="#fff"/>
        <path d="M407.39,137.87v2.76h-14.83v-24.6h2.78v21.84h12.06Z" fill="#fff"/>
      </g>
    </g>
    <g>
      <polygon points="122.08 44.72 122.08 34.68 111.2 34.68 122.08 44.72" fill="#fff"/>
      <g>
        <g>
          <path d="M60.52,181.73c-.07-.02-1.79-.45-4.63-1.46C23.75,168.88,2.16,138.2,2.16,103.93V36.83h.02v-.02h117.72s.02,2.18.02,2.18v64.94c0,34.28-21.59,64.96-53.72,76.35-2.84,1.01-4.58,1.44-4.65,1.46l-.51.13-.51-.13Z" fill="#fff"/>
          <path d="M117.74,38.96s.02.02.02.02v64.94c0,33.32-20.88,63.18-52.29,74.32-2.77.99-4.44,1.39-4.44,1.39,0,0-1.65-.41-4.42-1.39-31.41-11.14-52.31-41-52.31-74.32V38.98s.02,0,.02-.02h113.41M117.74,34.65H.02v.02H0v4.31s0,64.94,0,64.94c0,35.18,22.17,66.68,55.18,78.38,2.93,1.05,4.75,1.5,4.83,1.52l1.03.25,1.03-.25c.08-.02,1.92-.47,4.87-1.52,32.98-11.69,55.15-43.19,55.15-78.38V34.67l-4.33-.02h0Z" fill="#fff"/>
        </g>
        <g>
          <g>
            <path d="M77.86,32.96c-.26,0-.67-.09-.91-.17-2.15-.8-4.54-1.39-7.31-1.8-2.71-.4-5.49-.59-8.53-.59h-.96c-4.25.06-8.1.52-11.75,1.41-1.29.31-2.24.61-3.09.95-.25.1-.7.2-.98.2-.82,0-1.91-.48-2.27-1.84-.21-.8-.48-1.58-.76-2.39-.25-.73-.09-1.54.41-2.12.41-.47,1.01-.74,1.62-.74.14,0,.28.01.43.04,0,0,1.01.21,1.28.26.34.06.7.09,1.05.09.17,0,.34,0,.51-.03.14-.01.3-.03.56-.49.38-.67.64-1.48.8-2.48.05-.31.21-1.6.21-1.6.04-1.04.82-1.71,1.53-1.95.22-.07.49-.12.72-.12.77,0,1.6.52,1.99,1.19.59.8,1.22,1.67,1.96,2.35.24.22.51.45.72.53.01,0,.03,0,.05,0,.07,0,.16-.04.31-.17.53-.45.97-1.09,1.49-2.14.76-1.54,1.28-3.18,1.83-5.17.2-1.35,1.3-2.01,2.3-2.01.93.01,2.08.57,2.33,2.12.43,1.64,1.02,3.65,1.98,5.46.48.91.9,1.45,1.38,1.81l1.49,1.87-1.11-1.85c.55-.33,1.03-.86,1.46-1.39.26-.31.51-.64.76-.96l.46-.59c.55-.9,1.5-1.01,1.88-1.01.17,0,.37.03.54.07.75.18,1.62.83,1.76,2.1.09.88.2,1.84.45,2.69.15.5.32.94.54,1.34.18.33.33.45.79.45.68,0,1.39-.09,2.25-.3.17-.04.48-.08.65-.08.73,0,1.42.35,1.83.94.4.57.48,1.51.24,2.17-.24.69-.48,1.41-.65,2.14-.26,1.09-1.17,1.82-2.25,1.82Z" fill="#fff"/>
            <path d="M45.16,39.42c-1.22,0-2.21-.78-2.48-1.94-.33-1.42.5-2.72,1.97-3.08,1.37-.33,2.74-.57,3.9-.76,1.58-.25,3.13-.45,4.58-.59,1.4-.12,2.81-.22,4.21-.31,1.06-.06,2.11-.09,3.17-.09h1.04c2.19,0,4.53.12,7.18.36,3.21.3,6.03.74,8.62,1.33.2.04.89.19,1.46.83.72.82.86,1.94.36,2.88-.44.83-1.3,1.35-2.24,1.35h0c-.15,0-.4-.03-.55-.06l-1.59-.33c-1.61-.32-3.36-.56-5.51-.77-2.53-.25-5.15-.37-8.03-.37-1.08,0-2.17.02-3.25.05-3.07.09-5.9.33-8.65.76-1.19.18-2.37.4-3.54.66-.15.03-.49.07-.65.07Z" fill="#fff"/>
            <path d="M45.26,38.09c-.99,0-2.13-.67-2.3-2.13-.17-1.46-.4-2.74-.7-3.93-.33-1.32.35-2.52,1.64-2.92,2.57-.77,5.24-1.36,7.97-1.76,3.19-.47,6.32-.71,9.3-.71h1.11c2.66.06,5.4.31,8.37.75,2.43.37,4.9.93,7.36,1.67,1.49.42,2.16,1.57,1.81,2.97-.3,1.31-.52,2.57-.68,3.93-.17,1.45-1.31,2.11-2.29,2.11h0c-.18,0-.49-.04-.66-.09-2.59-.67-5.38-1.1-8.81-1.36-2.05-.15-4.04-.23-6.28-.23h-.89c-1.97,0-4.14.1-6.44.31-2.91.26-5.47.68-7.84,1.29-.17.04-.5.09-.68.09Z" fill="#fff"/>
            <path d="M75.53,29.97c-1.15-.06-2.74-.53-3.81-2.43-.41-.74-.69-1.5-.89-2.21-.07.07-.14.14-.21.21-.49.47-.96.84-1.47,1.12-.74.42-1.5.64-2.28.64s-1.93-.23-3.05-1.31c-1.05-1.02-1.67-2.21-2.19-3.34-.2-.44-.39-.88-.56-1.32-.3.76-.64,1.52-1.05,2.26-.41.76-.83,1.39-1.3,1.94-1.25,1.47-2.6,1.78-3.51,1.78-1.04,0-2.06-.39-3.02-1.16-.32-.25-.61-.52-.89-.79-.07.23-.14.47-.23.7-.3.82-.63,1.46-1.04,2.03-.79,1.09-1.92,1.74-3.28,1.86-.27.02-.54.04-.8.04-.74,0-1.47-.09-2.2-.19l-.7-.09c-.37-.05-1.54-.29-2-1.66-.55-1.34-1.16-2.6-1.84-3.78-.39-.68-.75-1.27-1.11-1.81-.88-.11-1.66-.52-2.25-1.17-.74-.83-1.07-1.99-.92-3.26.03-.23.07-.46.12-.68-.14-.12-.26-.27-.37-.42-.39-.59-.47-1.34-.2-2,.16-.4.2-.76.12-1.2-.17-.91.26-1.84,1.07-2.29.33-.18.69-.27,1.05-.27.53,0,1.06.2,1.46.57.36.33.68.5,1.06.57.71.12,1.31.59,1.6,1.24.07.15.11.29.15.45,1.29.45,2.28,1.44,2.68,2.69.27.86.25,1.78-.05,2.63.43.58.89,1.14,1.41,1.62.01.01.03.02.04.03l.04-.04c.52-.53.79-1.23.84-2.2.03-.56-.02-1.14-.17-1.79-.61-.27-1.13-.67-1.52-1.21-.65-.89-.87-2.03-.6-3.2.04-.18.09-.35.15-.53-.11-.12-.2-.25-.29-.4-.34-.62-.36-1.37-.04-2.01.2-.39.26-.75.21-1.19-.1-.93.41-1.81,1.26-2.19.28-.13.59-.19.89-.19.59,0,1.17.24,1.59.7.33.36.63.56,1.01.65.69.18,1.25.69,1.49,1.37.05.15.09.3.11.46.96.39,1.74,1.09,2.19,2,.51,1.02.54,2.22.09,3.27-.07.17-.16.33-.25.49.65,1.13,1.35,1.97,2.18,2.6.2.15.32.2.36.21,0-.02.13-.08.33-.27.62-.59,1.07-1.42,1.46-2.68.25-.8.41-1.66.47-2.6-.6-.56-1.04-1.29-1.24-2.11-.31-1.25-.04-2.57.74-3.62.27-.36.56-.67.88-.94-.06-.17-.1-.35-.12-.53-.06-.71.23-1.4.77-1.85.56-.46.9-.97,1.12-1.66.28-.89,1.1-1.49,2.03-1.5h.02c.92,0,1.74.59,2.04,1.46.25.75.6,1.26,1.11,1.67.56.44.87,1.14.81,1.86-.02.21-.06.41-.13.6.64.55,1.3,1.33,1.59,2.46.38,1.53-.09,3.1-1.19,4.14.1,1.61.41,2.87.97,3.99.38.76.77,1.25,1.25,1.56.6-.32,1.1-.79,1.68-1.53.3-.38.57-.79.86-1.29-.42-.72-.61-1.55-.51-2.41.15-1.34.95-2.49,2.17-3.11,0-.05.02-.1.03-.15.16-.69.65-1.26,1.31-1.52.41-.16.69-.38.96-.75.41-.57,1.07-.89,1.75-.89.22,0,.44.03.65.1.89.28,1.49,1.1,1.5,2.03,0,.49.1.84.32,1.17.4.6.47,1.35.19,2.01-.04.1-.09.2-.15.29.13.31.22.63.28.96.25,1.51-.23,2.54-.69,3.13-.31.4-.8.87-1.56,1.17-.27,1.13-.24,2.12.09,3.04.19.56.44.84.63.99.51-.4.92-.91,1.37-1.49.04-.05.07-.1.11-.15-.35-.95-.32-1.98.09-2.98.49-1.18,1.41-2,2.64-2.39.29-.64.86-1.16,1.55-1.28.43-.08.75-.24,1.08-.55.41-.39.94-.59,1.48-.59.35,0,.71.09,1.03.26.82.45,1.26,1.36,1.09,2.28-.09.48-.06.84.09,1.21.27.66.2,1.41-.19,2.01-.05.08-.12.16-.18.24.1.51.12,1.03.07,1.57-.17,1.77-1.52,3.14-3.22,3.34-1.25,1.9-2.22,3.76-2.95,5.65-.5,1.24-1.51,1.51-1.92,1.56l-.22.03c-.92.13-1.86.27-2.88.27-.18,0-.36,0-.54-.01Z" fill="#fff"/>
          </g>
          <g>
            <path d="M78.54,28.07c-.91.22-1.82.36-2.76.36-1.21,0-2.1-.51-2.68-1.57-.31-.56-.54-1.15-.72-1.77-.29-.99-.42-2.01-.52-3.03-.01-.11-.02-.24-.13-.27-.1-.03-.15.1-.2.18-.42.53-.82,1.08-1.25,1.6-.59.71-1.21,1.39-2.02,1.87-.93.55-1.9.51-2.77-.14-.89-.66-1.49-1.57-2-2.53-1.01-1.9-1.64-3.94-2.18-6.01-.04-.16-.03-.43-.22-.43-.19,0-.17.27-.22.42-.52,1.9-1.1,3.79-1.98,5.56-.52,1.05-1.12,2.04-2.02,2.81-.72.62-1.54.89-2.48.56-.57-.2-1.03-.57-1.47-.98-.9-.83-1.62-1.82-2.34-2.81-.05-.07-.08-.18-.19-.14-.09.03-.07.13-.08.2-.07.55-.13,1.09-.22,1.64-.18,1.12-.49,2.21-1.05,3.21-.49.86-1.17,1.46-2.2,1.57-.73.08-1.45.04-2.17-.09-.43-.07-.86-.17-1.34-.27.3.86.58,1.69.81,2.54.06.24.13.29.37.19,1.1-.44,2.23-.76,3.38-1.04,4.02-.98,8.1-1.41,12.23-1.47,3.29-.04,6.57.13,9.82.61,2.64.39,5.24.97,7.75,1.91.17.06.26.08.31-.13.19-.8.45-1.58.72-2.36.08-.23.04-.26-.19-.2Z" fill="#143256"/>
            <path d="M76.95,36.46c-2.75-.63-5.53-1.03-8.34-1.29-2.45-.23-4.91-.37-7.37-.35-1.23,0-2.46,0-3.69.08-1.38.08-2.76.18-4.14.3-1.48.13-2.96.33-4.43.57-1.25.2-2.5.42-3.73.73-.33.08-.45.25-.39.5.05.22.26.31.56.25,1.22-.27,2.44-.49,3.68-.68,2.95-.45,5.93-.69,8.91-.78,3.86-.11,7.71-.05,11.56.33,1.92.19,3.83.43,5.72.81.54.11,1.08.23,1.62.34.19.04.35-.03.44-.2.08-.15.05-.3-.06-.43-.09-.1-.21-.13-.33-.16Z" fill="#143256"/>
            <path d="M77.44,31.12c-2.32-.7-4.67-1.24-7.06-1.6-2.68-.4-5.38-.67-8.1-.72-3.37-.07-6.72.18-10.05.67-2.59.38-5.14.93-7.64,1.69-.2.06-.25.12-.19.34.35,1.38.58,2.78.75,4.2.03.23.09.26.31.21,2.69-.69,5.42-1.1,8.18-1.34,2.52-.23,5.05-.34,7.33-.31,2.38,0,4.51.07,6.63.23,3.09.23,6.16.64,9.16,1.41.2.05.26.03.28-.19.16-1.37.39-2.72.7-4.06.11-.46.15-.38-.31-.52ZM47.4,32.94c-.08.25-.3.46-.5.65-.01.01-.03,0-.07.02-.18-.13-.45-.24-.52-.42-.07-.2.24-.32.35-.51.05-.09.12-.15.24-.08.03.02.08.03.1.05.13.11.45.14.4.29ZM52.33,32.4c-.39.29-.77.59-1.15.89-.1.08-.18.11-.3.03-.42-.29-.85-.56-1.31-.86.46-.35.91-.69,1.35-1.03.1-.07.17-.05.26,0,.37.24.75.47,1.13.7.14.09.17.15.02.26ZM56.54,31.79c-.23.17-.46.36-.7.52-.13.08-.21-.07-.3-.13-.51-.35-.5-.34-.04-.74.22-.19.39-.22.61-.01.13.12.31.19.43.33,0,.02,0,.03,0,.03ZM60.84,33.39c-.67-1.05-1.7-1.49-2.86-1.87,1.16-.38,2.2-.81,2.86-1.86.82.89,1.8,1.5,3.05,1.86-1.24.38-2.24.96-3.04,1.87ZM66.73,32.07c-.13.09-.27.18-.42.28-.14-.11-.28-.21-.41-.32q-.36-.28.01-.52t.83.03-.01.52ZM71.25,33.36c-.08.05-.16.03-.24-.03-.4-.32-.8-.63-1.21-.95-.12-.09-.11-.15.02-.23.41-.24.81-.49,1.21-.74.08-.05.14-.07.23,0,.45.35.9.7,1.37,1.07-.48.3-.93.59-1.39.88ZM75.63,33.41c-.23.19-.35.19-.54-.06-.38-.51-.4-.5.2-.74.04-.01.07-.03.11-.04.16.04.21.19.3.29.26.31.24.3-.07.56Z" fill="#dc001e"/>
            <path d="M85.58,16.14c-.33-.79-.37-1.57-.22-2.42-.63.59-1.33.94-2.16,1.09.22.37.32.73.35,1.11-.38-.03-.75-.06-1.13,0-.83.12-1.48.49-1.81,1.28-.32.77-.18,1.5.38,2.13.1.12.08.18,0,.29-.29.4-.57.81-.87,1.2-.57.75-1.17,1.48-1.94,2.03-.77.54-1.49.53-2.26,0-.76-.53-1.24-1.28-1.54-2.13-.64-1.83-.42-3.64.2-5.43.05-.14.14-.15.27-.16,1.22-.12,1.81-.89,1.6-2.09-.11-.65-.49-1.15-.96-1.58-.08-.07-.16-.15-.25-.22.33-.3.71-.52,1.22-.63-.47-.71-.67-1.47-.68-2.33-.5.7-1.12,1.18-1.91,1.49.35.38.52.8.61,1.25-.55-.01-1.1.04-1.62.26-1.37.6-1.56,2.3-.37,3.17.16.12.18.2.1.37-.48.97-1.01,1.9-1.68,2.75-.63.8-1.32,1.52-2.2,2.04-.79.47-1.57.47-2.35-.04-.92-.6-1.52-1.45-2-2.41-.92-1.86-1.2-3.85-1.23-5.89,0-.17.09-.21.21-.27.87-.45,1.32-1.45,1.08-2.4-.2-.78-.74-1.27-1.36-1.71-.44-.31-.91-.54-1.43-.75.3-.51.69-.96,1.28-1.3-.89-.7-1.45-1.58-1.82-2.66-.35,1.09-.93,1.95-1.8,2.67.58.33.97.77,1.26,1.28-.05.02-.09.04-.13.05-.88.37-1.72.82-2.3,1.61-.83,1.12-.45,2.65.78,3.26.15.07.17.15.17.29,0,1.41-.18,2.8-.6,4.15-.42,1.34-.99,2.6-2.04,3.6-1.14,1.09-2.24,1.16-3.48.21-1.56-1.19-2.59-2.78-3.41-4.53-.06-.14-.04-.21.09-.3.32-.2.56-.47.71-.82.45-1.06-.19-2.21-1.39-2.52-.49-.13-1-.14-1.5-.12-.02,0-.04,0-.05,0,.02-.53.14-1.04.51-1.53-.82-.21-1.48-.65-2.06-1.28.09.86-.05,1.63-.43,2.38.62.06,1.09.33,1.5.7-.56.47-.99,1.01-1.15,1.74-.25,1.14.37,2.02,1.53,2.12.14.01.22.05.27.2.38,1.15.62,2.32.55,3.54-.08,1.35-.48,2.58-1.45,3.58-1,1.03-2.02,1.06-3.08.09-.95-.86-1.69-1.89-2.41-2.94-.08-.12-.07-.18.02-.29,1-1.24.48-2.87-1.06-3.31-.54-.15-1.09-.13-1.64-.05-.01-.51.07-1.01.38-1.5-.84-.15-1.52-.53-2.16-1.11.16.85.08,1.63-.24,2.41.61.01,1.08.23,1.52.54-.51.56-.83,1.22-.92,2-.18,1.54.82,2.24,1.93,2.02.18-.04.26.05.35.18.62.88,1.19,1.79,1.72,2.72.76,1.33,1.42,2.7,2,4.12.04.1.05.23.21.25,1.09.12,2.17.33,3.27.23.72-.07,1.31-.39,1.74-.98.33-.46.57-.97.76-1.5.54-1.5.67-3.06.68-4.63,0-.17-.02-.34.03-.52.12.03.16.11.21.18.38.49.74.99,1.13,1.48.75.94,1.5,1.88,2.44,2.64,1.26,1.02,2.48.9,3.53-.34.41-.48.75-1.01,1.05-1.57.87-1.61,1.43-3.34,1.97-5.07.26-.85.49-1.71.73-2.57.04-.13.05-.31.24-.32.21-.01.2.18.24.31.11.37.2.74.31,1.12.54,1.95,1.12,3.88,1.97,5.72.45.98.95,1.93,1.74,2.69.82.8,1.76.92,2.76.34.38-.22.72-.49,1.03-.8,1.15-1.12,2.12-2.39,3.07-3.67.05-.07.09-.2.2-.16.09.03.04.16.04.24-.01.99.02,1.98.18,2.96.18,1.09.44,2.16.99,3.14.45.8,1.1,1.28,2.04,1.33,1.09.05,2.16-.11,3.24-.26.12-.02.17-.1.21-.21.93-2.4,2.18-4.64,3.63-6.76.17-.24.32-.32.62-.27.92.16,1.7-.46,1.79-1.39.09-.97-.19-1.77-.76-2.46.36-.2.75-.33,1.22-.33Z" fill="#143256"/>
          </g>
          <g>
            <path d="M118.06,103.89V38.63s-.01-.02-.02-.02H4.04s-.01.01-.02.02v65.27c0,33.5,20.99,63.52,52.57,74.71,2.78.98,4.45,1.4,4.45,1.41,0,0,1.68-.42,4.46-1.41,31.57-11.2,52.56-41.21,52.56-74.71ZM65.4,177.07c-2.72.97-4.36,1.38-4.37,1.38,0,0-1.64-.41-4.35-1.37-30.88-10.95-51.41-40.3-51.41-73.07v-63.83s.01-.01.02-.02h111.48s.02,0,.02.02v63.83c0,32.76-20.52,62.11-51.4,73.06Z" fill="#143256"/>
            <g>
              <g>
                <g>
                  <path d="M70.16,171.65l-.08-.19.46-.34s.08-.09.1-.15c.02-.06.01-.12-.02-.18l-2.04-4.49c-.03-.06-.07-.11-.13-.13-.06-.03-.11-.04-.17-.02l-.56.13-.09-.19,2.13-.97.08.19-.46.33s-.08.08-.1.15c-.02.06-.01.12.02.18l2.04,4.49c.03.06.07.11.12.13.06.02.12.03.18.02l.56-.12.09.19-2.13.97Z"/>
                  <path d="M73.95,169.93l-.1-.18.42-.4s.07-.09.08-.16c.01-.06,0-.12-.03-.17l-2.36-4.28c-.03-.06-.08-.1-.14-.12s-.12-.02-.17,0l-.6.17-.1-.18,1.3-.72,4.61,2.27.66.33-2.03-3.68c-.03-.06-.08-.1-.13-.12-.06-.02-.12-.02-.17,0l-.56.15-.1-.18,1.69-.93.1.18-.42.4s-.07.09-.09.16c-.01.06,0,.12.03.18l2.17,3.92.39.99-.22.12-4.99-2.46-.74-.37,2.21,4.01c.03.06.08.1.14.12.06.02.12.02.17,0l.56-.15.1.18-1.68.93Z"/>
                  <path d="M81.67,165.39l-.12-.17.47-.47s.06-.1.07-.16c0-.06-.01-.12-.05-.18l-2.94-4.28-1.17.8s-.08.07-.08.11c0,.04,0,.08.01.12l.29.99-.19.13-.83-1.21,4.23-2.9.83,1.21-.19.13-.82-.63s-.08-.05-.11-.06c-.04-.01-.08,0-.13.03l-1.18.81,2.94,4.28c.04.06.09.09.15.11.06.02.12.01.17-.01l.6-.27.12.17-2.08,1.43Z"/>
                  <path d="M86.25,162.15l-.13-.16.36-.45s.05-.1.06-.17c0-.06-.02-.12-.06-.17l-3.14-3.8c-.04-.05-.1-.08-.16-.1-.06-.01-.12,0-.17.02l-.51.27-.13-.16,3.43-2.84.91,1.1-.19.16-.85-.53s-.08-.04-.12-.04c-.04,0-.08,0-.12.04l-1.65,1.36,1.55,1.87,1.08-.89s.07-.07.07-.11c0-.04,0-.08-.02-.12l-.27-.72.17-.14,1.33,1.6-.17.14-.65-.39s-.08-.04-.12-.05-.08.01-.13.05l-1.08.89,1.71,2.07,1.94-1.6s.06-.07.07-.11,0-.08-.02-.12l-.45-1.01.19-.16.99,1.2-3.71,3.07Z"/>
                  <path d="M91.38,157.81l-.15-.15.31-.48c.03-.05.04-.11.04-.17,0-.06-.03-.11-.08-.16l-3.48-3.5s-.1-.08-.17-.08-.12,0-.17.04l-.48.31-.15-.15,1.6-1.58c.32-.32.62-.55.88-.69.27-.14.51-.22.73-.23.22,0,.41.03.58.11.17.08.32.19.45.32.23.24.38.49.44.77.06.28.06.54,0,.8s-.15.47-.26.65l-.35.6-.73.49-.17-.22s.08-.04.15-.1.15-.12.22-.19c.08-.07.14-.12.18-.17.22-.22.35-.44.41-.67.05-.23.04-.46-.03-.67-.08-.22-.2-.41-.36-.57-.33-.34-.66-.49-.99-.46-.33.03-.66.2-.99.53l-.42.42,3.66,3.69s.1.08.16.09c.06.01.11,0,.17-.04l.55-.38.15.15-1.72,1.7ZM95.44,153.79l-.66.66c-.12.12-.24.21-.34.25-.1.04-.2.06-.31.06s-.24-.02-.4-.05l-2.71-.44.44-.68,2.82.4c.09.01.2.02.31,0,.12,0,.21-.04.27-.07l.43-.27.15.15Z"/>
                  <path d="M96.35,152.77l-.16-.13.25-.53c.03-.06.03-.11.02-.18-.01-.06-.04-.11-.09-.15l-3.77-3.11c-.05-.04-.11-.06-.17-.06-.06,0-.12.02-.16.06l-.49.38-.16-.13.95-1.15,5.12.42.73.07-3.24-2.68c-.05-.04-.11-.06-.17-.06-.06,0-.12.02-.17.06l-.47.34-.16-.13,1.23-1.49.16.13-.25.53c-.03.05-.03.11-.02.17.01.06.04.11.09.16l3.45,2.85.73.78-.16.19-5.54-.46-.82-.07,3.53,2.92c.05.04.11.06.17.06.06,0,.11-.02.16-.06l.47-.34.16.13-1.23,1.49Z"/>
                  <path d="M100.83,147.26l-.17-.12.12-.38c.04-.12.01-.24-.07-.36l-2.84-4.03-.55-1.02.1-.14,5.88,1.34c.06.01.13.02.19,0,.07-.01.12-.04.17-.07l.31-.26.17.12-1.21,1.79-.17-.12.31-.72-4.32-.97-.62-.15h0s2.93,4.08,2.93,4.08l.56-.54.17.12-.96,1.43ZM99.84,144.67l-.2-.3,1.12-1.66.36.07-1.27,1.89Z"/>
                  <path d="M105.24,140.39l-.18-.1.21-.63c.02-.06.02-.12,0-.17s-.06-.1-.12-.13l-4.55-2.49-.68,1.24c-.03.05-.04.1-.02.13s.04.07.07.11l.71.75-.11.21-1.29-.7,2.47-4.5,1.29.7-.11.21-1.02-.19s-.09,0-.12,0c-.04,0-.07.04-.1.09l-.69,1.26,4.55,2.49c.06.03.12.04.18.03.06-.01.11-.04.15-.09l.42-.51.18.1-1.21,2.22Z"/>
                  <path d="M107.8,135.46l-.19-.08.12-.56c.01-.06,0-.12-.02-.17s-.07-.1-.13-.12l-4.5-2.01c-.06-.03-.12-.03-.19-.02-.06.02-.11.05-.14.1l-.33.47-.19-.09.96-2.14.19.08-.12.56c-.01.06,0,.12.02.17.03.06.07.1.13.13l4.5,2.01c.06.03.12.03.18.01s.11-.05.15-.1l.34-.46.19.08-.96,2.14Z"/>
                  <path d="M110.56,128.96c-.19.57-.49,1.01-.88,1.32-.39.31-.85.49-1.38.54s-1.08-.02-1.68-.23c-.56-.19-1.03-.47-1.41-.84s-.64-.8-.78-1.29-.1-1.02.08-1.57c.21-.61.52-1.06.93-1.36s.88-.47,1.4-.5c.52-.04,1.06.04,1.61.23.36.12.71.3,1.03.52.32.22.59.5.81.81.22.32.36.67.42,1.07.06.4.01.83-.15,1.3ZM110.29,128.78c.13-.39.13-.76,0-1.1-.14-.34-.38-.64-.73-.9-.35-.27-.76-.48-1.25-.65-.56-.19-1.08-.29-1.55-.3-.48,0-.89.09-1.22.29-.34.2-.58.52-.73.96-.14.41-.14.79.02,1.14s.41.64.76.89.75.46,1.2.61c.55.19,1.06.29,1.54.3.48.01.89-.08,1.24-.27.35-.2.6-.52.75-.95Z"/>
                  <path d="M111.91,124.2l-.21-.04-.03-.58c0-.06-.02-.12-.06-.17s-.09-.08-.15-.09l-4.79-.97c-.07-.01-.13,0-.18.02-.05.03-.09.07-.12.13l-.25.57-.21-.04.29-1.46,4.71-2.04.68-.29-4.12-.83c-.07-.01-.13,0-.18.02-.05.03-.09.07-.12.13l-.26.52-.2-.04.38-1.89.2.04.03.58c0,.06.02.12.06.17.04.05.09.08.15.09l4.39.89,1.01.34-.05.24-5.1,2.21-.76.32,4.49.91c.07.01.13,0,.18-.02.05-.03.09-.07.12-.13l.26-.52.2.04-.38,1.89Z"/>
                  <path d="M113.28,116.99h-.21s-.08-.4-.08-.4c-.03-.12-.11-.21-.24-.28l-4.48-2.07-.98-.6v-.17s5.77-1.79,5.77-1.79c.06-.02.12-.05.17-.09.05-.04.09-.09.11-.15l.14-.37h.21s-.15,2.17-.15,2.17l-.21-.02-.09-.78-4.23,1.32-.61.18h0s4.58,2.06,4.58,2.06l.21-.74h.21s-.12,1.74-.12,1.74ZM111.12,115.25l-.33-.16.14-2,.35-.11-.15,2.28Z"/>
                  <path d="M113.6,109.86h-.21l-.12-.56c-.02-.06-.04-.11-.09-.15-.05-.04-.1-.06-.17-.06h-4.93c-.07,0-.13.02-.17.06-.05.04-.08.09-.09.15l-.12.56h-.21v-2.37h.21l.12.59c.01.06.04.11.09.15.05.04.11.06.17.06h5.19v-2.25c0-.06-.03-.1-.09-.13-.06-.03-.11-.05-.15-.06l-1.17-.34v-.24h1.74v4.58Z"/>
                  <path d="M113.35,100.53l-1.57.11v-.24l.88-.35s.08-.04.12-.09c.05-.04.08-.08.1-.11.09-.14.17-.3.24-.47.07-.17.12-.33.16-.5s.06-.3.06-.41c0-.37-.1-.68-.31-.9-.21-.22-.51-.33-.89-.33-.27,0-.5.07-.67.22-.17.15-.31.35-.42.6-.1.22-.17.44-.21.66-.04.22-.11.44-.2.66-.13.33-.32.59-.57.77-.25.18-.55.27-.91.27-.34,0-.64-.08-.91-.25-.27-.17-.49-.4-.65-.69-.16-.29-.24-.62-.24-.99,0-.21.01-.4.04-.6.03-.19.06-.38.11-.56.04-.18.09-.36.15-.52h1.44v.24l-.82.31s-.08.04-.12.08-.06.08-.09.11c-.07.09-.13.21-.17.34-.05.13-.08.27-.1.4-.02.13-.04.25-.04.34,0,.35.09.62.27.82.19.2.42.3.71.3.25,0,.48-.06.69-.17.22-.11.39-.33.51-.66.08-.22.14-.43.19-.63.05-.21.12-.43.23-.68.08-.18.17-.36.29-.52.12-.17.27-.31.46-.41.19-.11.43-.16.72-.16.31,0,.61.08.91.23.29.15.54.4.73.73.19.33.28.76.28,1.29,0,.17-.02.36-.06.56s-.08.4-.15.61c-.06.21-.12.41-.19.62Z"/>
                  <path d="M112.41,89.83v-.08h.37c.14.16.28.35.43.58.15.23.27.48.37.75s.15.56.15.85c0,.59-.13,1.11-.38,1.55-.26.44-.62.78-1.1,1.02-.48.24-1.04.36-1.69.36s-1.19-.13-1.67-.39c-.48-.26-.85-.61-1.12-1.05s-.4-.94-.4-1.49c0-.2.02-.41.05-.65.04-.24.08-.47.13-.7.05-.23.11-.42.16-.57h1.42v.23l-.83.3s-.06.03-.08.06c-.02.03-.05.07-.08.12-.1.18-.19.41-.27.68-.08.27-.12.53-.12.77,0,.53.22.96.66,1.3s1.11.51,2,.51,1.62-.2,2.09-.59c.46-.39.7-.96.7-1.69,0-.32-.04-.6-.13-.83-.09-.23-.19-.44-.31-.6-.12-.17-.23-.31-.34-.43Z"/>
                  <path d="M113.6,88.41h-.21l-.12-.56c-.02-.06-.04-.11-.09-.15-.05-.04-.1-.06-.17-.06h-4.93c-.07,0-.13.02-.17.06-.05.04-.08.09-.09.15l-.12.56h-.21v-2.34h.21l.12.56c.01.06.04.11.09.15.05.04.11.06.17.06h2.17v-2.97h-2.17c-.07,0-.13.02-.17.06-.05.04-.08.09-.09.15l-.12.56h-.21v-2.34h.21l.12.56c.01.06.04.11.09.15.05.04.11.06.17.06h4.93c.07,0,.12-.02.17-.06.05-.04.08-.09.09-.15l.12-.56h.21v2.34h-.21l-.12-.56c-.02-.06-.04-.11-.09-.15-.05-.04-.1-.06-.17-.06h-2.42v2.97h2.42c.07,0,.12-.02.17-.06.05-.04.08-.09.09-.15l.12-.56h.21v2.34Z"/>
                  <path d="M113.74,77.96c0,.6-.14,1.11-.41,1.53s-.65.74-1.13.96c-.48.22-1.03.33-1.66.33-.59,0-1.13-.11-1.61-.34s-.87-.55-1.15-.97c-.29-.42-.43-.93-.43-1.52,0-.64.15-1.17.44-1.58.29-.42.68-.73,1.16-.93.48-.2,1.01-.3,1.59-.3.38,0,.77.05,1.14.16.38.11.72.28,1.03.5.31.23.56.52.75.88.19.36.28.78.28,1.28ZM113.42,77.87c0-.41-.12-.76-.36-1.03s-.57-.48-.98-.62c-.41-.14-.88-.21-1.39-.21-.59,0-1.12.07-1.57.22-.46.15-.81.37-1.07.67-.25.3-.38.68-.38,1.14,0,.44.13.79.38,1.07.26.27.59.47,1,.6.41.12.85.19,1.33.19.58,0,1.1-.07,1.55-.21.46-.15.82-.36,1.09-.66.26-.3.4-.68.4-1.14Z"/>
                  <path d="M113.74,70.77c0,.6-.14,1.11-.41,1.53-.27.42-.65.74-1.13.96-.48.22-1.03.33-1.66.33-.59,0-1.13-.11-1.61-.34-.48-.22-.87-.55-1.15-.97-.29-.42-.43-.93-.43-1.52,0-.64.15-1.17.44-1.58.29-.42.68-.73,1.16-.93s1.01-.3,1.59-.3c.38,0,.77.05,1.14.16.38.11.72.28,1.03.51.31.23.56.52.75.88.19.36.28.78.28,1.28ZM113.42,70.68c0-.41-.12-.76-.36-1.04-.24-.27-.57-.48-.98-.62s-.88-.21-1.39-.21c-.59,0-1.12.07-1.57.22-.46.15-.81.37-1.07.67-.25.3-.38.68-.38,1.14s.13.79.38,1.07c.26.27.59.47,1,.6.41.13.85.19,1.33.19.58,0,1.1-.07,1.55-.22.46-.14.82-.36,1.09-.66.26-.3.4-.68.4-1.14Z"/>
                  <path d="M113.6,66.43h-.21l-.12-.56c-.02-.06-.04-.11-.09-.15-.05-.04-.1-.06-.17-.06h-4.93c-.07,0-.13.02-.17.06-.05.04-.08.09-.09.15l-.12.56h-.21v-2.37h.21l.12.59c.01.06.04.11.09.15.05.04.11.06.17.06h5.19v-2.24c0-.06-.03-.11-.09-.13-.06-.03-.11-.04-.15-.06l-1.17-.34v-.23h1.74v4.58Z"/>
                </g>
                <g>
                  <path d="M7.52,61.64h.23s.12.41.12.41c.04.13.13.22.29.28l5.03,1.91,1.12.58v.19l-6.13,2.39c-.06.03-.12.06-.18.11-.05.05-.09.11-.11.17l-.12.42h-.23v-2.36s.22,0,.22,0l.16.84,4.49-1.76.65-.24h0s-5.14-1.89-5.14-1.89l-.18.82h-.23v-1.88ZM10,63.37l.37.15v2.19s-.36.15-.36.15v-2.49Z"/>
                  <path d="M8.86,75.74v.09h-.41c-.15-.17-.3-.38-.47-.63s-.3-.52-.41-.82c-.11-.3-.17-.61-.17-.93,0-.65.13-1.21.41-1.69.28-.48.67-.85,1.19-1.11.52-.26,1.13-.39,1.84-.4.69,0,1.3.14,1.82.41.52.28.93.66,1.23,1.14.29.48.44,1.03.45,1.63,0,.21-.02.45-.06.71-.04.26-.08.51-.14.76-.06.25-.11.46-.17.63h-1.54s0-.25,0-.25l.9-.33s.06-.03.09-.06c.02-.03.05-.07.08-.13.11-.2.21-.44.29-.74.08-.3.12-.58.12-.84,0-.58-.25-1.05-.73-1.41-.48-.37-1.21-.55-2.18-.55-1.01,0-1.77.22-2.27.65s-.76,1.05-.75,1.85c0,.35.05.65.15.91s.21.47.34.65c.13.18.26.34.37.47Z"/>
                  <path d="M7.57,77.83h.23s.12.41.12.41c.04.13.13.22.29.28l5.03,1.91,1.12.58v.19l-6.13,2.39c-.06.03-.12.06-.18.11-.05.05-.09.11-.11.17l-.12.42h-.23v-2.36s.22,0,.22,0l.16.84,4.49-1.76.65-.24h0s-5.14-1.89-5.14-1.89l-.18.82h-.23v-1.88ZM10.05,79.56l.37.15v2.19s-.36.15-.36.15v-2.49Z"/>
                  <path d="M7.6,86.36h.23s.13.61.13.61c.02.06.05.12.1.16.05.04.11.06.18.06l5.38-.02c.07,0,.14-.02.19-.06.05-.04.08-.1.1-.16l.12-.62h.23v2.76c.01.26-.02.54-.08.84-.06.3-.17.6-.31.89s-.35.56-.6.8c-.25.24-.57.43-.96.58s-.84.22-1.38.22c-.76,0-1.38-.15-1.87-.45-.49-.3-.85-.7-1.09-1.21-.24-.5-.36-1.06-.36-1.67v-2.74ZM13.92,88.05l-5.95.02v1.11c0,.77.25,1.34.75,1.72.5.37,1.18.56,2.07.56.65,0,1.21-.11,1.68-.33.47-.22.84-.52,1.09-.91.25-.39.38-.84.38-1.35v-.82Z"/>
                  <path d="M7.63,95.12h.23l.13.61c.02.06.05.12.1.16.05.04.11.06.19.06l5.38-.02c.08,0,.14-.02.19-.07.05-.04.09-.1.1-.16l.12-.61h.23s.02,4.86.02,4.86h-1.56s0-.27,0-.27l1.03-.35s.09-.04.12-.07c.03-.03.05-.07.05-.13v-2.33s-2.65,0-2.65,0v1.53c0,.06.02.11.05.14s.07.05.11.07l.79.27v.24s-2.27,0-2.27,0v-.24l.78-.28c.05-.02.09-.04.12-.07.03-.03.05-.08.05-.14v-1.53s-2.93,0-2.93,0v2.75c.01.06.02.1.06.13.03.03.07.05.12.06l1.17.32v.27h-1.7s-.02-5.25-.02-5.25Z"/>
                  <path d="M7.65,103.01h.23l.16.61c.02.06.05.12.1.16.05.04.11.06.18.06l5.35-.02c.08,0,.14-.02.19-.07.05-.04.09-.1.1-.16l.12-.61h.23s0,1.98,0,1.98l-4.3,1.57-.99.34,5.29,1.89v1.97s-.22,0-.22,0l-.13-.61c-.01-.06-.05-.12-.1-.16-.06-.04-.12-.06-.19-.06l-5.38.02c-.08,0-.14.02-.19.07-.05.04-.08.1-.1.16l-.13.61h-.23s0-2.56,0-2.56h.23l.13.61c.02.06.05.12.1.16.05.04.11.06.18.06l5.56-.02-.74-.25-4.36-1.56-1.11-.5v-.2s5.45-1.99,5.45-1.99l.75-.27-5.54.02c-.07,0-.14.02-.19.07-.05.04-.08.1-.1.16l-.16.62h-.23v-2.1Z"/>
                  <path d="M7.98,113.93l.23-.03.21.59c.02.06.07.11.12.15.06.04.12.05.19.04l5.33-.74c.07-.01.13-.04.18-.09.05-.05.07-.11.08-.17l.04-.63.23-.03.35,2.53-.23.03-.21-.59c-.02-.06-.06-.11-.12-.15s-.12-.05-.2-.04l-5.33.74c-.07,0-.13.04-.17.09-.04.05-.07.11-.08.18l-.05.62-.23.03-.35-2.53Z"/>
                  <path d="M11.5,124.58l.02.08-.39.1c-.19-.13-.39-.3-.61-.5-.22-.2-.42-.43-.6-.69-.18-.26-.31-.55-.39-.86-.16-.63-.17-1.21-.01-1.74.15-.53.45-.99.88-1.37.44-.38,1-.66,1.69-.84.67-.17,1.29-.19,1.87-.04.58.14,1.07.41,1.47.81.41.4.68.89.83,1.47.05.21.09.44.12.7.03.26.04.52.05.77,0,.25,0,.47-.02.65l-1.5.38-.06-.25.79-.54s.05-.05.07-.08c.02-.04.03-.08.05-.15.06-.22.1-.48.1-.79,0-.31-.02-.59-.09-.85-.14-.56-.49-.95-1.05-1.19-.56-.24-1.31-.24-2.25,0-.98.25-1.66.64-2.04,1.19-.38.54-.48,1.2-.28,1.97.09.34.21.62.36.85.15.22.32.41.49.55.17.14.33.26.48.36Z"/>
                  <path d="M16.5,136.99l.04.08-.37.17c-.21-.1-.44-.22-.69-.38-.25-.16-.49-.35-.71-.57-.23-.23-.41-.48-.54-.77-.27-.59-.38-1.16-.33-1.71.05-.55.26-1.05.62-1.51.36-.46.86-.83,1.51-1.14.63-.29,1.24-.42,1.83-.39.6.03,1.13.21,1.6.52.47.31.83.75,1.09,1.29.09.19.17.41.25.67s.14.5.19.75c.05.25.09.46.1.64l-1.4.65-.11-.23.68-.68s.04-.06.05-.1c.01-.04.02-.09.02-.15.02-.23,0-.49-.04-.8-.05-.3-.13-.58-.24-.82-.24-.52-.66-.85-1.25-.98-.59-.13-1.33,0-2.21.42-.91.42-1.51.94-1.79,1.54-.28.6-.25,1.27.09,1.99.15.32.32.57.51.77.19.19.39.34.58.45.2.11.37.2.54.27Z"/>
                  <path d="M18.3,143.07c-.34-.56-.5-1.11-.49-1.66.02-.55.18-1.06.51-1.54.32-.48.77-.89,1.35-1.25.55-.34,1.11-.54,1.69-.6.58-.07,1.12.02,1.62.25s.93.62,1.26,1.17c.36.59.53,1.17.5,1.72-.03.55-.22,1.06-.55,1.53-.33.46-.77.86-1.31,1.19-.36.22-.74.39-1.16.5-.41.12-.83.16-1.25.12-.42-.04-.81-.17-1.19-.39s-.71-.57-.99-1.03ZM18.65,142.96c.24.38.54.64.93.75s.8.12,1.27.02.93-.31,1.41-.6c.55-.34.99-.7,1.33-1.1.34-.39.54-.8.61-1.23.07-.43-.03-.85-.29-1.28-.25-.41-.57-.66-.97-.77-.39-.11-.82-.1-1.27.02-.46.12-.9.31-1.34.58-.54.33-.98.69-1.32,1.09-.35.39-.56.81-.63,1.23-.08.43.02.86.28,1.29Z"/>
                  <path d="M21.85,148.17l.18-.14.48.4c.05.04.11.06.18.07.07,0,.13-.02.19-.06l4.25-3.3c.06-.05.09-.1.11-.17s0-.13-.02-.19l-.28-.56.18-.14,1.59,2.04-.18.14-.49-.43c-.05-.04-.11-.06-.18-.07-.07,0-.13.02-.19.06l-4.47,3.47,1.5,1.93c.04.05.1.07.17.05.07-.02.12-.03.17-.05l1.23-.49.16.2-1.5,1.16-3.06-3.94Z"/>
                  <path d="M26.81,154.3l.17-.16.52.35c.06.04.12.05.19.05s.13-.03.18-.08l3.89-3.72c.05-.05.08-.11.09-.18,0-.07,0-.13-.04-.19l-.33-.53.17-.16,1.79,1.87-.16.16-.54-.38c-.06-.04-.12-.05-.19-.05-.07,0-.13.03-.18.08l-4.09,3.91,1.69,1.77s.1.06.17.04c.07-.02.12-.04.16-.06l1.18-.62.18.19-1.37,1.32-3.45-3.61Z"/>
                  <path d="M32.36,159.88l.15-.18.56.29c.06.03.12.04.19.03.06-.01.12-.04.17-.1l3.45-4.13c.05-.06.07-.12.07-.19s-.02-.13-.06-.18l-.39-.49.15-.17,3.73,3.11-1,1.2-.21-.17.4-1.01s.03-.09.03-.14c0-.04-.02-.08-.07-.12l-1.79-1.49-1.7,2.03,1.17.98s.09.06.14.06c.04,0,.08-.02.12-.04l.72-.43.18.15-1.45,1.74-.18-.15.29-.78s.03-.1.03-.14-.03-.08-.08-.12l-1.17-.98-1.87,2.24,2.11,1.76s.09.05.13.05c.04,0,.09-.02.13-.05l1-.69.21.17-1.09,1.31-4.03-3.37Z"/>
                  <path d="M43.31,167.16l.87-1.35c.04-.06.05-.12.04-.19s-.04-.12-.08-.17l-.5-.47.12-.19,2.18,1.39-.12.19-.59-.22c-.06-.02-.12-.02-.19,0-.06.02-.12.06-.15.12l-.4.63c-.14.22-.26.41-.37.58-.11.17-.19.31-.25.42-.33-.05-.71-.16-1.14-.31-.42-.15-.82-.35-1.19-.58-.47-.3-.82-.69-1.07-1.17-.24-.48-.34-1.02-.3-1.6.04-.59.26-1.19.65-1.8.37-.58.82-1.02,1.33-1.31.52-.29,1.06-.43,1.62-.42.56.01,1.1.18,1.61.5.3.19.56.38.77.56.21.18.39.35.54.52.15.17.28.32.39.46l-.83,1.3-.22-.14.22-.89c.01-.06.01-.11,0-.15-.02-.04-.04-.09-.06-.14-.11-.21-.28-.44-.51-.69-.24-.24-.49-.45-.75-.62-.31-.2-.65-.29-1.02-.26s-.73.17-1.11.44c-.38.27-.74.68-1.09,1.23-.33.52-.56,1.03-.68,1.52-.12.5-.12.95,0,1.35.12.4.37.73.75.97.18.11.37.2.57.27.2.07.39.12.57.16.17.04.3.06.39.06Z"/>
                  <path d="M47.07,170.07l.1-.21.61.14c.06.01.13,0,.19-.02.06-.03.11-.07.14-.14l2.27-4.88c.03-.07.04-.13.02-.2-.02-.07-.05-.12-.11-.16l-.5-.37.1-.21,4.4,2.05-.66,1.42-.25-.11.12-1.08c0-.05,0-.1-.01-.14-.01-.04-.04-.08-.1-.1l-2.11-.98-1.12,2.4,1.39.65c.06.03.11.03.15.02.04-.01.08-.04.11-.07l.58-.6.21.1-.96,2.06-.22-.1.08-.83c0-.05,0-.1,0-.14s-.05-.07-.11-.1l-1.39-.65-1.23,2.65,2.49,1.16c.05.02.1.03.14.02.04-.02.08-.04.11-.08l.79-.92.25.11-.72,1.54-4.76-2.22Z"/>
                </g>
                <path d="M63.42,171.27l1.83.14-1.83.14c-1.2.09-2.15,1.04-2.24,2.24l-.14,1.83-.14-1.83c-.09-1.2-1.04-2.15-2.24-2.24l-1.83-.14,1.83-.14c1.2-.09,2.15-1.04,2.24-2.24l.14-1.83.14,1.83c.09,1.2,1.04,2.15,2.24,2.24Z" fill="#dc001e"/>
              </g>
              <g>
                <g>
                  <g>
                    <path d="M59.67,105.09v-41.48H17.93v42.62c0,.99.03,1.97.08,2.95h37.57c2.26,0,4.09-1.83,4.09-4.09Z" fill="#dc001e" stroke="#940008" stroke-miterlimit="10" stroke-width=".94"/>
                    <g>
                      <g>
                        <polygon points="35.18 84.93 35.18 85.56 38.78 85.56 42.38 85.56 42.38 84.93 38.78 84.93 35.18 84.93" fill="#fff"/>
                        <path d="M43.53,80.82c-.1-.59-.58-1-1.16-1.05-1.04-.08-1.94.47-2.94.65-.08.01-.19-.16-.29-.26.47-.35.4-1.05-.14-1.35-.04-.04-.02-.44,0-.46.04-.04.39.03.44-.01.05-.04.04-.46,0-.5-.03-.04-.42,0-.44-.02-.02-.03.01-.4-.03-.43-.02-.01-.06-.02-.11-.02h0s-.01,0-.01,0h-.15s-.07.01-.08.02c-.04.03,0,.4-.03.43-.02.03-.41-.01-.44.02-.03.04-.04.46,0,.5.05.04.39-.02.44.01.02.02.04.42,0,.46-.54.3-.6.99-.14,1.35-.1.1-.21.27-.29.26-1.01-.18-1.9-.74-2.94-.65-.58.05-1.06.46-1.16,1.05-.18,1.06.58,1.88.95,2.78.12.28.22.67.2,1h7.16c-.02-.33.08-.71.2-1,.37-.9,1.13-1.72.95-2.78M38.39,83.17c-.09.53-.39.87-.63.87-.16,0-.29-.06-.41-.16-.16-.14-.29-.38-.25-.52.04-.05.47.02.5-.02.03-.04-.05-.38-.1-.43-.05-.04-.44.01-.5-.03-.05-.04-.1-.47-.16-.49,0,0-.42-.06-.45,0-.03.06.14.41.11.47-.03.06-.58-.05-.59,0,0,.06.03.37.08.42.05.05.57.05.57.05.11.08.13.25.14.42,0,.22-.17.33-.43.25-.5-.14-1.12-1.22-1.48-1.97-.27-.55-.43-1.46.28-1.73.43-.16.88-.07,1.35.07.49.15,1.13.34,1.5.58.09.06-.11.01.22.76.16.35.31,1.09.25,1.46M38.78,77.37h.05-.05ZM42.81,82.04c-.37.75-.98,1.83-1.48,1.97-.27.08-.44-.04-.43-.25,0-.17.03-.34.14-.42,0,0,.51,0,.57-.05.05-.05.09-.36.08-.42,0-.06-.56.05-.59,0-.03-.06.14-.41.11-.47-.03-.06-.45,0-.45,0-.05.03-.1.45-.16.49-.05.04-.45-.02-.5.03-.05.05-.13.39-.1.43.03.04.47-.02.5.02.04.14-.09.37-.25.52-.12.1-.25.16-.41.16-.25,0-.54-.34-.63-.87-.07-.37.09-1.11.25-1.46.34-.74.13-.7.22-.76.38-.23,1.02-.43,1.5-.58.46-.14.92-.23,1.35-.07.71.27.54,1.17.28,1.73" fill="#fff"/>
                      </g>
                      <g>
                        <polygon points="46.38 84.93 46.38 85.56 49.99 85.56 53.59 85.56 53.59 84.93 49.99 84.93 46.38 84.93" fill="#fff"/>
                        <path d="M54.73,80.82c-.1-.59-.58-1-1.16-1.05-1.04-.08-1.94.47-2.94.65-.08.01-.19-.16-.29-.26.47-.35.4-1.05-.14-1.35-.04-.04-.02-.44,0-.46.04-.04.39.03.44-.01.05-.04.04-.46,0-.5-.03-.04-.42,0-.44-.02-.02-.03.01-.4-.03-.43-.02-.01-.06-.02-.11-.02h0s-.01,0-.01,0h-.15s-.07.01-.08.02c-.04.03,0,.4-.03.43-.02.03-.41-.01-.44.02-.03.04-.04.46,0,.5.05.04.39-.02.44.01.02.02.04.42,0,.46-.54.3-.6.99-.14,1.35-.1.1-.21.27-.29.26-1.01-.18-1.9-.74-2.94-.65-.58.05-1.06.46-1.16,1.05-.18,1.06.58,1.88.95,2.78.12.28.22.67.2,1h7.16c-.02-.33.08-.71.2-1,.37-.9,1.13-1.72.95-2.78M49.6,83.17c-.09.53-.39.87-.63.87-.16,0-.29-.06-.41-.16-.16-.14-.29-.38-.25-.52.04-.05.47.02.5-.02.03-.04-.05-.38-.1-.43-.05-.04-.44.01-.5-.03-.05-.04-.1-.47-.16-.49,0,0-.42-.06-.45,0-.03.06.14.41.11.47-.03.06-.58-.05-.59,0,0,.06.03.37.08.42.05.05.57.05.57.05.11.08.13.25.14.42,0,.22-.17.33-.43.25-.5-.14-1.12-1.22-1.48-1.97-.27-.55-.43-1.46.28-1.73.43-.16.88-.07,1.35.07.49.15,1.13.34,1.5.58.09.06-.11.01.22.76.16.35.31,1.09.25,1.46M49.98,77.37h.05-.05ZM54.02,82.04c-.37.75-.98,1.83-1.48,1.97-.27.08-.44-.04-.43-.25,0-.17.03-.34.14-.42,0,0,.51,0,.57-.05.05-.05.09-.36.08-.42,0-.06-.56.05-.59,0-.03-.06.14-.41.11-.47-.03-.06-.45,0-.45,0-.05.03-.1.45-.16.49-.05.04-.45-.02-.5.03-.05.05-.13.39-.1.43.03.04.47-.02.5.02.04.14-.09.37-.25.52-.12.1-.25.16-.41.16-.25,0-.54-.34-.63-.87-.07-.37.09-1.11.25-1.46.34-.74.13-.7.22-.76.38-.23,1.02-.43,1.5-.58.46-.14.92-.23,1.35-.07.71.27.54,1.17.28,1.73" fill="#fff"/>
                      </g>
                      <g>
                        <polygon points="35.18 75.21 35.18 75.84 38.78 75.84 42.38 75.84 42.38 75.21 38.78 75.21 35.18 75.21" fill="#fff"/>
                        <path d="M43.53,71.1c-.1-.59-.58-1-1.16-1.05-1.04-.08-1.94.47-2.94.65-.08.01-.19-.16-.29-.26.47-.35.4-1.05-.14-1.35-.04-.04-.02-.44,0-.46.04-.04.39.03.44-.01.05-.04.04-.46,0-.5-.03-.04-.42,0-.44-.02-.02-.03.01-.4-.03-.43-.02-.01-.06-.02-.11-.02h0s-.01,0-.01,0h-.15s-.07.01-.08.02c-.04.03,0,.4-.03.43-.02.03-.41-.01-.44.02-.03.04-.04.46,0,.5.05.04.39-.02.44.01.02.02.04.42,0,.46-.54.3-.6.99-.14,1.35-.1.1-.21.27-.29.26-1.01-.18-1.9-.74-2.94-.65-.58.05-1.06.46-1.16,1.05-.18,1.06.58,1.88.95,2.78.12.28.22.67.2,1h7.16c-.02-.33.08-.71.2-1,.37-.9,1.13-1.72.95-2.78M38.39,73.46c-.09.53-.39.87-.63.87-.16,0-.29-.06-.41-.16-.16-.14-.29-.38-.25-.52.04-.05.47.02.5-.02.03-.04-.05-.38-.1-.43-.05-.04-.44.01-.5-.03-.05-.04-.1-.47-.16-.49,0,0-.42-.06-.45,0-.03.06.14.41.11.47-.03.06-.58-.05-.59,0,0,.06.03.37.08.42.05.05.57.05.57.05.11.08.13.25.14.42,0,.22-.17.33-.43.25-.5-.14-1.12-1.22-1.48-1.97-.27-.55-.43-1.46.28-1.73.43-.16.88-.07,1.35.07.49.15,1.13.34,1.5.58.09.06-.11.01.22.76.16.35.31,1.09.25,1.46M38.78,67.66h.05-.05ZM42.81,72.32c-.37.75-.98,1.83-1.48,1.97-.27.08-.44-.04-.43-.25,0-.17.03-.34.14-.42,0,0,.51,0,.57-.05.05-.05.09-.36.08-.42,0-.06-.56.05-.59,0-.03-.06.14-.41.11-.47-.03-.06-.45,0-.45,0-.05.03-.1.45-.16.49-.05.04-.45-.02-.5.03-.05.05-.13.39-.1.43.03.04.47-.02.5.02.04.14-.09.37-.25.52-.12.1-.25.16-.41.16-.25,0-.54-.34-.63-.87-.07-.37.09-1.11.25-1.46.34-.74.13-.7.22-.76.38-.23,1.02-.43,1.5-.58.46-.14.92-.23,1.35-.07.71.27.54,1.17.28,1.73" fill="#fff"/>
                      </g>
                      <g>
                        <polygon points="46.38 75.21 46.38 75.84 49.99 75.84 53.59 75.84 53.59 75.21 49.99 75.21 46.38 75.21" fill="#fff"/>
                        <path d="M54.73,71.1c-.1-.59-.58-1-1.16-1.05-1.04-.08-1.94.47-2.94.65-.08.01-.19-.16-.29-.26.47-.35.4-1.05-.14-1.35-.04-.04-.02-.44,0-.46.04-.04.39.03.44-.01.05-.04.04-.46,0-.5-.03-.04-.42,0-.44-.02-.02-.03.01-.4-.03-.43-.02-.01-.06-.02-.11-.02h0s-.01,0-.01,0h-.15s-.07.01-.08.02c-.04.03,0,.4-.03.43-.02.03-.41-.01-.44.02-.03.04-.04.46,0,.5.05.04.39-.02.44.01.02.02.04.42,0,.46-.54.3-.6.99-.14,1.35-.1.1-.21.27-.29.26-1.01-.18-1.9-.74-2.94-.65-.58.05-1.06.46-1.16,1.05-.18,1.06.58,1.88.95,2.78.12.28.22.67.2,1h7.16c-.02-.33.08-.71.2-1,.37-.9,1.13-1.72.95-2.78M49.6,73.46c-.09.53-.39.87-.63.87-.16,0-.29-.06-.41-.16-.16-.14-.29-.38-.25-.52.04-.05.47.02.5-.02.03-.04-.05-.38-.1-.43-.05-.04-.44.01-.5-.03-.05-.04-.1-.47-.16-.49,0,0-.42-.06-.45,0-.03.06.14.41.11.47-.03.06-.58-.05-.59,0,0,.06.03.37.08.42.05.05.57.05.57.05.11.08.13.25.14.42,0,.22-.17.33-.43.25-.5-.14-1.12-1.22-1.48-1.97-.27-.55-.43-1.46.28-1.73.43-.16.88-.07,1.35.07.49.15,1.13.34,1.5.58.09.06-.11.01.22.76.16.35.31,1.09.25,1.46M49.98,67.66h.05-.05ZM54.02,72.32c-.37.75-.98,1.83-1.48,1.97-.27.08-.44-.04-.43-.25,0-.17.03-.34.14-.42,0,0,.51,0,.57-.05.05-.05.09-.36.08-.42,0-.06-.56.05-.59,0-.03-.06.14-.41.11-.47-.03-.06-.45,0-.45,0-.05.03-.1.45-.16.49-.05.04-.45-.02-.5.03-.05.05-.13.39-.1.43.03.04.47-.02.5.02.04.14-.09.37-.25.52-.12.1-.25.16-.41.16-.25,0-.54-.34-.63-.87-.07-.37.09-1.11.25-1.46.34-.74.13-.7.22-.76.38-.23,1.02-.43,1.5-.58.46-.14.92-.23,1.35-.07.71.27.54,1.17.28,1.73" fill="#fff"/>
                      </g>
                      <g>
                        <polygon points="35.18 94.65 35.18 95.27 38.78 95.27 42.38 95.27 42.38 94.65 38.78 94.65 35.18 94.65" fill="#fff"/>
                        <path d="M43.53,90.54c-.1-.59-.58-1-1.16-1.05-1.04-.08-1.94.47-2.94.65-.08.01-.19-.16-.29-.26.47-.35.4-1.05-.14-1.35-.04-.04-.02-.44,0-.46.04-.04.39.03.44-.01.05-.04.04-.46,0-.5-.03-.04-.42,0-.44-.02-.02-.03.01-.4-.03-.43-.02-.01-.06-.02-.11-.02h0s-.01,0-.01,0h-.15s-.07.01-.08.02c-.04.03,0,.4-.03.43-.02.03-.41-.01-.44.02-.03.04-.04.46,0,.5.05.04.39-.02.44.01.02.02.04.42,0,.46-.54.3-.6.99-.14,1.35-.1.1-.21.27-.29.26-1.01-.18-1.9-.74-2.94-.65-.58.05-1.06.46-1.16,1.05-.18,1.06.58,1.88.95,2.78.12.28.22.67.2,1h7.16c-.02-.33.08-.71.2-1,.37-.9,1.13-1.72.95-2.78M38.39,92.89c-.09.53-.39.87-.63.87-.16,0-.29-.06-.41-.16-.16-.14-.29-.38-.25-.52.04-.05.47.02.5-.02.03-.04-.05-.38-.1-.43-.05-.04-.44.01-.5-.03-.05-.04-.1-.47-.16-.49,0,0-.42-.06-.45,0-.03.06.14.41.11.47-.03.06-.58-.05-.59,0,0,.06.03.37.08.42.05.05.57.05.57.05.11.08.13.25.14.42,0,.22-.17.33-.43.25-.5-.14-1.12-1.22-1.48-1.97-.27-.55-.43-1.46.28-1.73.43-.16.88-.07,1.35.07.49.15,1.13.34,1.5.58.09.06-.11.01.22.76.16.35.31,1.09.25,1.46M38.78,87.09h.05-.05ZM42.81,91.76c-.37.75-.98,1.83-1.48,1.97-.27.08-.44-.04-.43-.25,0-.17.03-.34.14-.42,0,0,.51,0,.57-.05.05-.05.09-.36.08-.42,0-.06-.56.05-.59,0-.03-.06.14-.41.11-.47-.03-.06-.45,0-.45,0-.05.03-.1.45-.16.49-.05.04-.45-.02-.5.03-.05.05-.13.39-.1.43.03.04.47-.02.5.02.04.14-.09.37-.25.52-.12.1-.25.16-.41.16-.25,0-.54-.34-.63-.87-.07-.37.09-1.11.25-1.46.34-.74.13-.7.22-.76.38-.23,1.02-.43,1.5-.58.46-.14.92-.23,1.35-.07.71.27.54,1.17.28,1.73" fill="#fff"/>
                      </g>
                      <g>
                        <polygon points="46.38 94.65 46.38 95.27 49.99 95.27 53.59 95.27 53.59 94.65 49.99 94.65 46.38 94.65" fill="#fff"/>
                        <path d="M54.73,90.54c-.1-.59-.58-1-1.16-1.05-1.04-.08-1.94.47-2.94.65-.08.01-.19-.16-.29-.26.47-.35.4-1.05-.14-1.35-.04-.04-.02-.44,0-.46.04-.04.39.03.44-.01.05-.04.04-.46,0-.5-.03-.04-.42,0-.44-.02-.02-.03.01-.4-.03-.43-.02-.01-.06-.02-.11-.02h0s-.01,0-.01,0h-.15s-.07.01-.08.02c-.04.03,0,.4-.03.43-.02.03-.41-.01-.44.02-.03.04-.04.46,0,.5.05.04.39-.02.44.01.02.02.04.42,0,.46-.54.3-.6.99-.14,1.35-.1.1-.21.27-.29.26-1.01-.18-1.9-.74-2.94-.65-.58.05-1.06.46-1.16,1.05-.18,1.06.58,1.88.95,2.78.12.28.22.67.2,1h7.16c-.02-.33.08-.71.2-1,.37-.9,1.13-1.72.95-2.78M49.6,92.89c-.09.53-.39.87-.63.87-.16,0-.29-.06-.41-.16-.16-.14-.29-.38-.25-.52.04-.05.47.02.5-.02.03-.04-.05-.38-.1-.43-.05-.04-.44.01-.5-.03-.05-.04-.1-.47-.16-.49,0,0-.42-.06-.45,0-.03.06.14.41.11.47-.03.06-.58-.05-.59,0,0,.06.03.37.08.42.05.05.57.05.57.05.11.08.13.25.14.42,0,.22-.17.33-.43.25-.5-.14-1.12-1.22-1.48-1.97-.27-.55-.43-1.46.28-1.73.43-.16.88-.07,1.35.07.49.15,1.13.34,1.5.58.09.06-.11.01.22.76.16.35.31,1.09.25,1.46M49.98,87.09h.05-.05ZM54.02,91.76c-.37.75-.98,1.83-1.48,1.97-.27.08-.44-.04-.43-.25,0-.17.03-.34.14-.42,0,0,.51,0,.57-.05.05-.05.09-.36.08-.42,0-.06-.56.05-.59,0-.03-.06.14-.41.11-.47-.03-.06-.45,0-.45,0-.05.03-.1.45-.16.49-.05.04-.45-.02-.5.03-.05.05-.13.39-.1.43.03.04.47-.02.5.02.04.14-.09.37-.25.52-.12.1-.25.16-.41.16-.25,0-.54-.34-.63-.87-.07-.37.09-1.11.25-1.46.34-.74.13-.7.22-.76.38-.23,1.02-.43,1.5-.58.46-.14.92-.23,1.35-.07.71.27.54,1.17.28,1.73" fill="#fff"/>
                      </g>
                      <g>
                        <polygon points="23.97 94.65 23.97 95.27 27.57 95.27 31.18 95.27 31.18 94.65 27.57 94.65 23.97 94.65" fill="#fff"/>
                        <path d="M32.32,90.54c-.1-.59-.58-1-1.16-1.05-1.04-.08-1.94.47-2.94.65-.08.01-.19-.16-.29-.26.47-.35.4-1.05-.14-1.35-.04-.04-.02-.44,0-.46.04-.04.39.03.44-.01.05-.04.04-.46,0-.5-.03-.04-.42,0-.44-.02-.02-.03.01-.4-.03-.43-.02-.01-.06-.02-.11-.02h0s-.01,0-.01,0h-.15s-.07.01-.08.02c-.04.03,0,.4-.03.43-.02.03-.41-.01-.44.02-.03.04-.04.46,0,.5.05.04.39-.02.44.01.02.02.04.42,0,.46-.54.3-.6.99-.14,1.35-.1.1-.21.27-.29.26-1.01-.18-1.9-.74-2.94-.65-.58.05-1.06.46-1.16,1.05-.18,1.06.58,1.88.95,2.78.12.28.22.67.2,1h7.16c-.02-.33.08-.71.2-1,.37-.9,1.13-1.72.95-2.78M27.18,92.89c-.09.53-.39.87-.63.87-.16,0-.29-.06-.41-.16-.16-.14-.29-.38-.25-.52.04-.05.47.02.5-.02.03-.04-.05-.38-.1-.43-.05-.04-.44.01-.5-.03-.05-.04-.1-.47-.16-.49,0,0-.42-.06-.45,0-.03.06.14.41.11.47-.03.06-.58-.05-.59,0,0,.06.03.37.08.42.05.05.57.05.57.05.11.08.13.25.14.42,0,.22-.17.33-.43.25-.5-.14-1.12-1.22-1.48-1.97-.27-.55-.43-1.46.28-1.73.43-.16.88-.07,1.35.07.49.15,1.13.34,1.5.58.09.06-.11.01.22.76.16.35.31,1.09.25,1.46M27.57,87.09h.05-.05ZM31.6,91.76c-.37.75-.98,1.83-1.48,1.97-.27.08-.44-.04-.43-.25,0-.17.03-.34.14-.42,0,0,.51,0,.57-.05.05-.05.09-.36.08-.42,0-.06-.56.05-.59,0-.03-.06.14-.41.11-.47-.03-.06-.45,0-.45,0-.05.03-.1.45-.16.49-.05.04-.45-.02-.5.03-.05.05-.13.39-.1.43.03.04.47-.02.5.02.04.14-.09.37-.25.52-.12.1-.25.16-.41.16-.25,0-.54-.34-.63-.87-.07-.37.09-1.11.25-1.46.34-.74.13-.7.22-.76.38-.23,1.02-.43,1.5-.58.46-.14.92-.23,1.35-.07.71.27.54,1.17.28,1.73" fill="#fff"/>
                      </g>
                      <g>
                        <polygon points="35.18 104.36 35.18 104.99 38.78 104.99 42.38 104.99 42.38 104.36 38.78 104.36 35.18 104.36" fill="#fff"/>
                        <path d="M43.53,100.26c-.1-.59-.58-1-1.16-1.05-1.04-.08-1.94.47-2.94.65-.08.01-.19-.16-.29-.26.47-.35.4-1.05-.14-1.35-.04-.04-.02-.44,0-.46.04-.04.39.03.44-.01.05-.04.04-.46,0-.5-.03-.04-.42,0-.44-.02-.02-.03.01-.4-.03-.43-.02-.01-.06-.02-.11-.02h0s-.01,0-.01,0h-.15s-.07.01-.08.02c-.04.03,0,.4-.03.43-.02.03-.41-.01-.44.02-.03.04-.04.46,0,.5.05.04.39-.02.44.01.02.02.04.42,0,.46-.54.3-.6.99-.14,1.35-.1.1-.21.27-.29.26-1.01-.18-1.9-.74-2.94-.65-.58.05-1.06.46-1.16,1.05-.18,1.06.58,1.88.95,2.78.12.28.22.67.2,1h7.16c-.02-.33.08-.71.2-1,.37-.9,1.13-1.72.95-2.78M38.39,102.61c-.09.53-.39.87-.63.87-.16,0-.29-.06-.41-.16-.16-.14-.29-.38-.25-.52.04-.05.47.02.5-.02.03-.04-.05-.38-.1-.43-.05-.04-.44.01-.5-.03-.05-.04-.1-.47-.16-.49,0,0-.42-.06-.45,0-.03.06.14.41.11.47-.03.06-.58-.05-.59,0,0,.06.03.37.08.42.05.05.57.05.57.05.11.08.13.25.14.42,0,.22-.17.33-.43.25-.5-.14-1.12-1.22-1.48-1.97-.27-.55-.43-1.46.28-1.73.43-.16.88-.07,1.35.07.49.15,1.13.34,1.5.58.09.06-.11.01.22.76.16.35.31,1.09.25,1.46M38.78,96.81h.05-.05ZM42.81,101.48c-.37.75-.98,1.83-1.48,1.97-.27.08-.44-.04-.43-.25,0-.17.03-.34.14-.42,0,0,.51,0,.57-.05.05-.05.09-.36.08-.42,0-.06-.56.05-.59,0-.03-.06.14-.41.11-.47-.03-.06-.45,0-.45,0-.05.03-.1.45-.16.49-.05.04-.45-.02-.5.03-.05.05-.13.39-.1.43.03.04.47-.02.5.02.04.14-.09.37-.25.52-.12.1-.25.16-.41.16-.25,0-.54-.34-.63-.87-.07-.37.09-1.11.25-1.46.34-.74.13-.7.22-.76.38-.23,1.02-.43,1.5-.58.46-.14.92-.23,1.35-.07.71.27.54,1.17.28,1.73" fill="#fff"/>
                      </g>
                      <g>
                        <polygon points="46.38 104.36 46.38 104.99 49.99 104.99 53.59 104.99 53.59 104.36 49.99 104.36 46.38 104.36" fill="#fff"/>
                        <path d="M54.73,100.26c-.1-.59-.58-1-1.16-1.05-1.04-.08-1.94.47-2.94.65-.08.01-.19-.16-.29-.26.47-.35.4-1.05-.14-1.35-.04-.04-.02-.44,0-.46.04-.04.39.03.44-.01.05-.04.04-.46,0-.5-.03-.04-.42,0-.44-.02-.02-.03.01-.4-.03-.43-.02-.01-.06-.02-.11-.02h0s-.01,0-.01,0h-.15s-.07.01-.08.02c-.04.03,0,.4-.03.43-.02.03-.41-.01-.44.02-.03.04-.04.46,0,.5.05.04.39-.02.44.01.02.02.04.42,0,.46-.54.3-.6.99-.14,1.35-.1.1-.21.27-.29.26-1.01-.18-1.9-.74-2.94-.65-.58.05-1.06.46-1.16,1.05-.18,1.06.58,1.88.95,2.78.12.28.22.67.2,1h7.16c-.02-.33.08-.71.2-1,.37-.9,1.13-1.72.95-2.78M49.6,102.61c-.09.53-.39.87-.63.87-.16,0-.29-.06-.41-.16-.16-.14-.29-.38-.25-.52.04-.05.47.02.5-.02.03-.04-.05-.38-.1-.43-.05-.04-.44.01-.5-.03-.05-.04-.1-.47-.16-.49,0,0-.42-.06-.45,0-.03.06.14.41.11.47-.03.06-.58-.05-.59,0,0,.06.03.37.08.42.05.05.57.05.57.05.11.08.13.25.14.42,0,.22-.17.33-.43.25-.5-.14-1.12-1.22-1.48-1.97-.27-.55-.43-1.46.28-1.73.43-.16.88-.07,1.35.07.49.15,1.13.34,1.5.58.09.06-.11.01.22.76.16.35.31,1.09.25,1.46M49.98,96.81h.05-.05ZM54.02,101.48c-.37.75-.98,1.83-1.48,1.97-.27.08-.44-.04-.43-.25,0-.17.03-.34.14-.42,0,0,.51,0,.57-.05.05-.05.09-.36.08-.42,0-.06-.56.05-.59,0-.03-.06.14-.41.11-.47-.03-.06-.45,0-.45,0-.05.03-.1.45-.16.49-.05.04-.45-.02-.5.03-.05.05-.13.39-.1.43.03.04.47-.02.5.02.04.14-.09.37-.25.52-.12.1-.25.16-.41.16-.25,0-.54-.34-.63-.87-.07-.37.09-1.11.25-1.46.34-.74.13-.7.22-.76.38-.23,1.02-.43,1.5-.58.46-.14.92-.23,1.35-.07.71.27.54,1.17.28,1.73" fill="#fff"/>
                      </g>
                      <g>
                        <polygon points="23.97 104.36 23.97 104.99 27.57 104.99 31.18 104.99 31.18 104.36 27.57 104.36 23.97 104.36" fill="#fff"/>
                        <path d="M32.32,100.26c-.1-.59-.58-1-1.16-1.05-1.04-.08-1.94.47-2.94.65-.08.01-.19-.16-.29-.26.47-.35.4-1.05-.14-1.35-.04-.04-.02-.44,0-.46.04-.04.39.03.44-.01.05-.04.04-.46,0-.5-.03-.04-.42,0-.44-.02-.02-.03.01-.4-.03-.43-.02-.01-.06-.02-.11-.02h0s-.01,0-.01,0h-.15s-.07.01-.08.02c-.04.03,0,.4-.03.43-.02.03-.41-.01-.44.02-.03.04-.04.46,0,.5.05.04.39-.02.44.01.02.02.04.42,0,.46-.54.3-.6.99-.14,1.35-.1.1-.21.27-.29.26-1.01-.18-1.9-.74-2.94-.65-.58.05-1.06.46-1.16,1.05-.18,1.06.58,1.88.95,2.78.12.28.22.67.2,1h7.16c-.02-.33.08-.71.2-1,.37-.9,1.13-1.72.95-2.78M27.18,102.61c-.09.53-.39.87-.63.87-.16,0-.29-.06-.41-.16-.16-.14-.29-.38-.25-.52.04-.05.47.02.5-.02.03-.04-.05-.38-.1-.43-.05-.04-.44.01-.5-.03-.05-.04-.1-.47-.16-.49,0,0-.42-.06-.45,0-.03.06.14.41.11.47-.03.06-.58-.05-.59,0,0,.06.03.37.08.42.05.05.57.05.57.05.11.08.13.25.14.42,0,.22-.17.33-.43.25-.5-.14-1.12-1.22-1.48-1.97-.27-.55-.43-1.46.28-1.73.43-.16.88-.07,1.35.07.49.15,1.13.34,1.5.58.09.06-.11.01.22.76.16.35.31,1.09.25,1.46M27.57,96.81h.05-.05ZM31.6,101.48c-.37.75-.98,1.83-1.48,1.97-.27.08-.44-.04-.43-.25,0-.17.03-.34.14-.42,0,0,.51,0,.57-.05.05-.05.09-.36.08-.42,0-.06-.56.05-.59,0-.03-.06.14-.41.11-.47-.03-.06-.45,0-.45,0-.05.03-.1.45-.16.49-.05.04-.45-.02-.5.03-.05.05-.13.39-.1.43.03.04.47-.02.5.02.04.14-.09.37-.25.52-.12.1-.25.16-.41.16-.25,0-.54-.34-.63-.87-.07-.37.09-1.11.25-1.46.34-.74.13-.7.22-.76.38-.23,1.02-.43,1.5-.58.46-.14.92-.23,1.35-.07.71.27.54,1.17.28,1.73" fill="#fff"/>
                      </g>
                      <g>
                        <polygon points="23.97 84.93 23.97 85.56 27.57 85.56 31.18 85.56 31.18 84.93 27.57 84.93 23.97 84.93" fill="#fff"/>
                        <path d="M32.32,80.82c-.1-.59-.58-1-1.16-1.05-1.04-.08-1.94.47-2.94.65-.08.01-.19-.16-.29-.26.47-.35.4-1.05-.14-1.35-.04-.04-.02-.44,0-.46.04-.04.39.03.44-.01.05-.04.04-.46,0-.5-.03-.04-.42,0-.44-.02-.02-.03.01-.4-.03-.43-.02-.01-.06-.02-.11-.02h0s-.01,0-.01,0h-.15s-.07.01-.08.02c-.04.03,0,.4-.03.43-.02.03-.41-.01-.44.02-.03.04-.04.46,0,.5.05.04.39-.02.44.01.02.02.04.42,0,.46-.54.3-.6.99-.14,1.35-.1.1-.21.27-.29.26-1.01-.18-1.9-.74-2.94-.65-.58.05-1.06.46-1.16,1.05-.18,1.06.58,1.88.95,2.78.12.28.22.67.2,1h7.16c-.02-.33.08-.71.2-1,.37-.9,1.13-1.72.95-2.78M27.18,83.17c-.09.53-.39.87-.63.87-.16,0-.29-.06-.41-.16-.16-.14-.29-.38-.25-.52.04-.05.47.02.5-.02.03-.04-.05-.38-.1-.43-.05-.04-.44.01-.5-.03-.05-.04-.1-.47-.16-.49,0,0-.42-.06-.45,0-.03.06.14.41.11.47-.03.06-.58-.05-.59,0,0,.06.03.37.08.42.05.05.57.05.57.05.11.08.13.25.14.42,0,.22-.17.33-.43.25-.5-.14-1.12-1.22-1.48-1.97-.27-.55-.43-1.46.28-1.73.43-.16.88-.07,1.35.07.49.15,1.13.34,1.5.58.09.06-.11.01.22.76.16.35.31,1.09.25,1.46M27.57,77.37h.05-.05ZM31.6,82.04c-.37.75-.98,1.83-1.48,1.97-.27.08-.44-.04-.43-.25,0-.17.03-.34.14-.42,0,0,.51,0,.57-.05.05-.05.09-.36.08-.42,0-.06-.56.05-.59,0-.03-.06.14-.41.11-.47-.03-.06-.45,0-.45,0-.05.03-.1.45-.16.49-.05.04-.45-.02-.5.03-.05.05-.13.39-.1.43.03.04.47-.02.5.02.04.14-.09.37-.25.52-.12.1-.25.16-.41.16-.25,0-.54-.34-.63-.87-.07-.37.09-1.11.25-1.46.34-.74.13-.7.22-.76.38-.23,1.02-.43,1.5-.58.46-.14.92-.23,1.35-.07.71.27.54,1.17.28,1.73" fill="#fff"/>
                      </g>
                      <g>
                        <polygon points="23.97 75.21 23.97 75.84 27.57 75.84 31.18 75.84 31.18 75.21 27.57 75.21 23.97 75.21" fill="#fff"/>
                        <path d="M32.32,71.1c-.1-.59-.58-1-1.16-1.05-1.04-.08-1.94.47-2.94.65-.08.01-.19-.16-.29-.26.47-.35.4-1.05-.14-1.35-.04-.04-.02-.44,0-.46.04-.04.39.03.44-.01.05-.04.04-.46,0-.5-.03-.04-.42,0-.44-.02-.02-.03.01-.4-.03-.43-.02-.01-.06-.02-.11-.02h0s-.01,0-.01,0h-.15s-.07.01-.08.02c-.04.03,0,.4-.03.43-.02.03-.41-.01-.44.02-.03.04-.04.46,0,.5.05.04.39-.02.44.01.02.02.04.42,0,.46-.54.3-.6.99-.14,1.35-.1.1-.21.27-.29.26-1.01-.18-1.9-.74-2.94-.65-.58.05-1.06.46-1.16,1.05-.18,1.06.58,1.88.95,2.78.12.28.22.67.2,1h7.16c-.02-.33.08-.71.2-1,.37-.9,1.13-1.72.95-2.78M27.18,73.46c-.09.53-.39.87-.63.87-.16,0-.29-.06-.41-.16-.16-.14-.29-.38-.25-.52.04-.05.47.02.5-.02.03-.04-.05-.38-.1-.43-.05-.04-.44.01-.5-.03-.05-.04-.1-.47-.16-.49,0,0-.42-.06-.45,0-.03.06.14.41.11.47-.03.06-.58-.05-.59,0,0,.06.03.37.08.42.05.05.57.05.57.05.11.08.13.25.14.42,0,.22-.17.33-.43.25-.5-.14-1.12-1.22-1.48-1.97-.27-.55-.43-1.46.28-1.73.43-.16.88-.07,1.35.07.49.15,1.13.34,1.5.58.09.06-.11.01.22.76.16.35.31,1.09.25,1.46M27.57,67.66h.05-.05ZM31.6,72.32c-.37.75-.98,1.83-1.48,1.97-.27.08-.44-.04-.43-.25,0-.17.03-.34.14-.42,0,0,.51,0,.57-.05.05-.05.09-.36.08-.42,0-.06-.56.05-.59,0-.03-.06.14-.41.11-.47-.03-.06-.45,0-.45,0-.05.03-.1.45-.16.49-.05.04-.45-.02-.5.03-.05.05-.13.39-.1.43.03.04.47-.02.5.02.04.14-.09.37-.25.52-.12.1-.25.16-.41.16-.25,0-.54-.34-.63-.87-.07-.37.09-1.11.25-1.46.34-.74.13-.7.22-.76.38-.23,1.02-.43,1.5-.58.46-.14.92-.23,1.35-.07.71.27.54,1.17.28,1.73" fill="#fff"/>
                      </g>
                    </g>
                  </g>
                  <g>
                    <path d="M65.69,110.87c-2.27,0-4.1,1.84-4.1,4.1v48.3c.08-.02.16-.05.26-.08.58-.17,1.4-.42,2.42-.79,22.22-7.88,37.39-28.27,39.06-51.53h-37.63Z" fill="#dc001e" stroke="#940008" stroke-miterlimit="10" stroke-width=".94"/>
                    <g clip-path="url(#clippath)">
                      <polygon points="99.06 135.79 94.92 137.51 97.75 138.3 96.85 139.18 98.45 141.07 95.84 141.83 95.86 142.92 91.12 141.35 90.14 142.29 88.53 138.78 80.58 143.38 80.26 143.56 80.26 167.35 79.59 167.35 79.59 143.52 79.33 143.38 71.58 138.9 70.09 142.33 69.13 141.31 64.33 142.84 64.35 141.77 61.72 141.13 63.28 139.2 62.38 138.28 65.27 137.53 61.09 135.69 62.36 134.92 60.77 132.21 63.83 132.27 64.05 130.74 67.62 133.46 66.88 130.62 68.08 130.95 68.93 128.62 70.88 130.52 71.84 129.94 72.84 134.82 74.13 135.22 71.92 138.36 79.59 142.8 79.59 133.3 75.5 133.74 75.94 132.27 71.84 128.57 72.88 127.99 72.04 125.12 74.73 125.56 75.11 124.18 77.42 126.53 76.86 121.54 78.31 122.31 80.03 119.32 81.64 122.27 83.21 121.63 82.57 126.53 84.88 124.28 85.22 125.6 87.91 125.12 87.17 128.03 88.25 128.6 84.15 132.25 84.49 133.7 80.26 133.32 80.26 142.84 88.23 138.24 86.02 135.22 87.37 134.9 88.43 129.98 89.37 130.54 91.24 128.57 92.11 130.88 93.37 130.56 92.57 133.44 96.24 130.74 96.3 132.23 99.42 132.21 97.85 134.84 99.06 135.79" fill="#fff"/>
                    </g>
                  </g>
                  <g>
                    <path d="M65.75,109.17h37.57c.05-.98.08-1.96.08-2.95v-42.62h-41.73v41.48c0,2.26,1.83,4.09,4.09,4.09Z" fill="#143256" stroke="#002235" stroke-miterlimit="10" stroke-width=".94"/>
                    <g clip-path="url(#clippath-1)">
                      <g>
                        <path d="M99.76,104.33s-.43.85-1.3.7c-.87-.15-1.99-1.28-3.49-1.04-1.5.24-2.55,1.32-2.55,1.32,0,0,1.81-.75,2.67-.46.86.29,1.85,1.08,3.01.94,1.16-.14,1.65-1.47,1.65-1.47Z" fill="#fff"/>
                        <path d="M74.38,91.38s-.22.77.03,1.93c.25,1.16.53,2.27.53,2.27,0,0-.04-1.13.23-1.58.27-.45.83-.54.83-.54,0,0,.01.66.19,1.33.18.67.33,1.72.33,1.72,0,0,.4-1.21.94-.87.37.23,1.06,1.57,1.45,2.38.26-.34.52-.69.79-1.06.74-1,1.92-1.56,2.87-2.34.16-.13.34.11.2.25-1.1,1.05-2.32,1.78-3.14,3.11-.13.22-.28.46-.43.69-.05.15-.29.81-.78,1.89-.57,1.23-1.45,2.26-1.94,2.25-.49-.01-2.21-2.23-2.99-2.25-.78-.01-.8.44-.8.44,0,0-.63-.12-1.28.51-.65.63-.92,1.61-.92,1.61,0,0,.7-.59,1.23-.63.53-.03.93.2.93.2,0,0-.98.63-1.53,1.94-.55,1.31-.44,2.69-.44,2.69,0,0,.37-1.16,1.61-1.13,1.24.03,1.79.16,1.79.16,0,0-.73.35-.81,1.51-.08,1.16.54,2.68.54,2.68,0,0,.35-2.19.89-2.1.55.09,1.36.92,2.44-.47,1.08-1.39,1-1.62,1.68-2.33.68-.71,1.5-.99,1.5-.99,0,0-.18.48-.06,1,.11.52.5,1.49.5,1.49,0,0-.15-1.34.16-2.08.31-.74,1.05-1.87,1.05-1.87,0,0-.19.4,0,1.15.19.75.71,1.54.71,1.54,0,0-.17-1.74.31-2.47.47-.72.95-1.41.95-1.41,0,0,.01.37.43.97.41.6,1.22,1.1,1.22,1.1,0,0-.94-1.96-.47-2.73.47-.76,1.09-1.55,1.09-1.55,0,0-.59,1.93.49,3.18,1.08,1.24,2.35,1.8,2.35,1.8,0,0-3.07,1.22-4.45,2.81-1.38,1.59-1.49,2.27-.9,3.21.59.94,1.46,1.6,1.46,1.6,0,0-.77.07-1.38-.17-.61-.24-1.82-.97-1.82-.97,0,0,.61,2.01,2.81,2.72,2.2.72,4.05,1.03,4.05,1.03,0,0,.8.75-1.2,1.4-2,.65-3.78.62-3.78.62,0,0,.13-2.24-1.62-2.44-1.75-.2-2.07.75-2.07.75,0,0-1.42-.13-2.02.25-.6.37-1.05,1.3-1.05,1.3,0,0,1.01-.72,1.68-.61.67.11,1.39.54,1.39.54,0,0-.78.32-1.55.96-.77.64-.95,1.7-.95,1.7,0,0,.79-.77,1.46-.7.67.07,1.35.26,1.35.26,0,0-.87.82-1.43,1.52-.56.7-.87,1.97-.87,1.97,0,0,.99-1.45,1.71-1.27.72.18,1.1,1.08,2.01.86.92-.21,1.72-.9,1.72-.9,0,0,.36.81,1.25.4.89-.41,2.37-.95,2.37-.95,0,0,0,.54.18,1.29.19.75.65,1.72.65,1.72,0,0,.05-1.69.47-2.2.42-.51,1-1.37,1-1.37,0,0-.1.18.28,1.07.37.89,1.41,1.81,1.41,1.81,0,0-.7-1.75-.46-2.36.24-.61.69-1.21.69-1.21,0,0,.28.25.79.96.51.71,1.12,1.24,1.12,1.24,0,0-.98-1.96-.44-2.53.54-.57,1.64-1.51,1.61-2.28-.03-.78-2.1-2.91-2.87-3.74-.78-.84-1.31-2.28-1.31-2.28l2.94.45s-.47,1.34.33,2.58c.79,1.24,2.48,2.69,2.48,2.69,0,0,.03.24-.28.66-.31.41-1.23.91-1.23.91,0,0,.78.26,1.71-.12.93-.38,2.29-1.23,2.29-1.23,0,0-.1.47-.47.72-.37.26-1.37,1.06-1.37,1.06,0,0,2.32-.16,3.42-.81,1.1-.65,1.98-1.1,1.98-1.1,0,0,.52,1.9.41,3.15-.11,1.25-.71,2.53-1.94,2.58-1.23.05-2.35-.08-2.93.46-.58.53-.37,1.45-.37,1.45,0,0-.88.45-1.04,1.34-.16.89,0,2.26,0,2.26,0,0,.33-.58,1.05-1.01.72-.43,1.53-.55,1.53-.55,0,0-.64.71-.77,1.55-.13.84.31,1.93.31,1.93,0,0,1.2-2.55,2.02-2.3.82.25,1.5.69,2.31.33.81-.36,1.11-.32,1.23.52s.03,2.5.03,2.5c0,0,.72-.43,1.2-1.65.48-1.22.53-4.39.53-4.39,0,0,.02-1.03.68-1,.66.03,1.56,1.18,1.56,1.18,0,0,.24-.65.17-2.24-.06-1.59-.66-2.91-.66-2.91,0,0,.49-.32.9.24.41.56,1.18,1.39,1.18,1.39,0,0-.05-2.09-.63-2.99-.58-.9-1.09-1.61-1.09-1.61,0,0,.37-.26.81-.07.44.18,1.13,1.03,1.13,1.03,0,0-.3-1.85-.68-2.49-.38-.64-.63-1.23-.63-1.23,0,0,.78.3,1.55-.63.77-.93,1.06-2.08,1.06-2.08,0,0-.27.7-1.11.86-.84.16-1.47.33-1.47.33,0,0-.45-1.46-1.47-1.68-1.02-.23-5.06,1.13-5.2.12-.14-1.01,1.14-1.81,1.38-3.28.14-.86.17-2.21-.18-3.35,1.05-.47,2.3-1.03,3.54-1.6,3.06-1.4,5.35-2.17,5.84-4.65.5-2.48-.19-4.05-3.13-7.73-2.54-3.18-11.34-8.9-11.12-10.66.22-1.76,1.04-2.67,2.26-2.52,1.23.16,3.91,2.54,7.27,1.62,3.35-.92,3.79-2.25,3.79-2.25,0,0-1.72.54-3.49.32-1.76-.22-1.94-2.35-4.18-3.08-2.24-.73-4.77-1.07-7.28,3.44-2.52,4.51,8.92,11.79,12.03,15.45,3.12,3.66,1.66,5.35-.74,7.07-1.78,1.28-4.65,2.37-6.01,2.85-.07-.04-.13-.08-.21-.11-1.75-.78-5.36-2.16-6.02-3.3-.66-1.14-1.46-3.9-1.46-3.9,0,0,.42.35,1.19.28.77-.07,1.58-.14,1.58-.14,0,0-1.33-.67-1.79-1.31-.46-.63-.74-1.42-.74-1.42,0,0,.49.26,1.25.44.77.18,1.51-.05,1.51-.05,0,0-.95-.6-1.39-1.37-.44-.76-.83-1.81-.83-1.81,0,0,.55.7,1.29.72.74.02,1.22-.38,1.22-.38,0,0-2.01-1.73-2.45-3.06-.44-1.34-.5-2.07-.5-2.07,0,0,.56.78,1.44.86.87.08,1.66-.19,1.66-.19,0,0-1.91-1.33-2.73-3.31-.82-1.98-.93-5.66-.93-5.66,0,0,.22-1.63.66-2.02.44-.39.99-1.13.99-1.13,0,0-1.53-.07-3.1.15-1.57.22-2.61.74-2.61.74,0,0-3.6-1.3-5.06-1.17-1.46.13-1.14,1.23-1.14,1.23,0,0-2.04-.16-3.01.51-.97.67-.36,1.49-.36,1.49l.29.29c.41-.08.85-.07,1.25,0,.04,0,.05.07,0,.08-.33.03-.52.09-.86.14l-.11.07s-.07.67.28,1.07c.34.4.87.33.87.33,0,0,.1.06.31.4.21.34.77.56.77.56,0,0-.5-.34-.44-.76.06-.42.47-.76.47-.76,0,0,.44-.68,1.21-.42.78.26,1.44,1.77.79,2.64-.66.87-2.52,1.34-3.58,1.12-1.06-.22-1.47-.24-1.54.46-.06.71.41,1.13,1.13,1.32.72.18,1.24.03,1.24.03,0,0-.09.55-.6,1.28-.51.73-1.19,1.44-1.19,1.44,0,0,.86-.33,1.76-.33.12,0,.23,0,.34,0,1.72-.51,3.48-.97,5.22-.61.17.03,1.17.37-.03.26-2.16-.19-3.64.31-5.03.91-.66.39-1.47.89-1.92,1.24-.84.67-2,2.38-2,2.38,0,0-1.82-.93-2.62-1.4-.81-.46-1.85-1.18-1.85-1.18,0,0-.62-4.06-1.88-4.83-1.26-.77-2.23-.05-2.23-.05,0,0-.82-.25-1.64.03-.82.28-1.08.81-1.08.81,0,0,1.25-.44,1.6,0,.35.44.72,1.41.72,1.41,0,0-1.45-.22-2.18.42-.73.64-1.17,2.18-1.17,2.18,0,0,1.22-1.58,2.03-1.12.81.46,1.44,1.77,1.44,1.77,0,0-1.66.48-1.96,1.8-.31,1.32.37,2.04.37,2.04,0,0,.06-1.7.68-1.95.62-.25.95.32,1.65.05.7-.26,1.11-.19,1.63-.01.52.17,2.01,1.69,2.01,1.69ZM105.02,123.77c.11-.79.47-1.5.56-2.29,0-.04.03-.07.07-.07.34-.04.72.36,1.03.68-.04-1.39-.15-2.86-.62-4.14-.03-.09.03-.18.13-.18.41.02.77.12,1.09.3-.34-.9-.6-1.83-.89-2.75-.02-.05,0-.1.06-.11.58-.11,1.1,0,1.58.25-.53-.75-1.1-1.44-1.89-1.97-.1-.07.01-.21.11-.15,1.03.66,1.76,1.58,2.46,2.56.1.14-.07.33-.22.22-.44-.33-2.14-1.31-1.67-.11.35.89.75,1.77,1.15,2.64.1.21-.21.4-.35.21-.01-.02-1.35-1.16-1.26-.57.09.57.3,1.15.44,1.7.21.87.31,1.76.32,2.65,0,.22-.34.24-.41.06-.21-.55-.86-1.51-1.05-.45-.09.52-.3,1.05-.5,1.54-.03.07-.14.04-.13-.04ZM92.99,75.38c-.13.41-.14.84-.21,1.26-.03.18-.33.2-.34,0-.01-.29-.32-.56-.51-.76-.2-.22-.43-.42-.66-.61-.02-.02,0-.05.03-.04.23.14.42.31.61.5.15.15.33.44.53.61.02-.68.27-1.76.88-1.92,0,0,.01,0,.01.01-.05.32-.23.64-.33.95ZM99.27,117.26c.39-.45.46-1.08.54-1.64,0-.06.11-.09.13-.02.17.52-.05.97-.23,1.43.86-.48,1.4-1.34,1.79-2.24.06-.13.26-.08.24.06-.13,1.09-1.22,2.43-2.31,2.68-.15.03-.26-.16-.16-.28ZM97.07,116.38c.59-.28.61-.89.84-1.42.04-.09.16-.06.18.02.08.32.06.68-.07,1,.16-.06.32-.11.47-.17.41-.14.91-.41,1.35-.43,0,0,.02,0,.01.02-.17.32-.6.45-.91.59-.42.19-.86.33-1.28.51-.14.12-.3.2-.49.23-.22.04-.28-.26-.1-.35ZM91.66,93.05c.79.23,1.52.47,2.32.55-.66-.81-1.07-1.77-1.44-2.75-.04-.11.08-.2.18-.14.57.38,1.14.56,1.78.66-.74-1.01-1.29-2.16-1.76-3.32-.02-.05.04-.1.08-.06.2.15,1.45.5,1.46.5-.27-.25-.48-.5-.69-.81-.46-.7-.63-1.59-.69-2.41-.02-.21.26-.24.31-.04.3,1.22.76,2.63,1.85,3.41.11.08.03.24-.09.23-.44-.04-1.7-.19-1.91-.55.63,1.08,1.21,2.2,2,3.18.12.15-.04.34-.21.28-.37-.13-1.81-.36-1.96-.72.4.97,1,1.88,1.73,2.64.14.14-.03.33-.18.33-1-.04-2.05-.21-2.89-.77-.12-.08,0-.25.12-.21ZM87.12,75.24s-1.12-.11-1.83.23c.03-.28.18-.37.17-.44-.01-.07-.22-.21-.69-.11.94-.77,2.36.32,2.36.32ZM91.35,118.06c.07-.04.17,0,.2.08.11.3.28.53.53.68.06-.35.18-.67.47-.91.11-.09.27.03.22.16-.15.37-.25.7-.29,1.1-.02.2-.27.24-.39.11-.07-.08-.67-.88-.73-.82-.45.47-.8.87-.93,1.53-.04.19-.31.25-.39.05-.12-.28-.18-.54-.21-.85-.03-.25-.4.13-.46.17-.58.38-.86.77-1.22,1.33-.04.07-.17.06-.19-.02-.22-.71.52-1.17,1.06-1.47,1.09-.61.64-.37,1.12.33.21-.62.62-1.16,1.21-1.48ZM83.86,99.48c.07-.05.17-.01.18.07.05.37.13.73.22,1.09.18-.9.66-1.85,1.64-1.92.11,0,.13.15.02.17-1.12.18-1.34,1.44-1.52,2.37-.03.13-.2.13-.23,0-.09-.37-.18-.73-.25-1.1-.13-.64-.36-.09-.64.23-.54.64-.83,1.42-.97,2.23-.02.14-.21.11-.21-.03.04-1.26.79-2.35,1.75-3.12ZM77.1,94.91c.09-.55-.07-.97-.14-1.51,0-.02.03-.03.03,0,.15.42.2.88.34,1.31.24-.28.54-.52.9-.65.08-.03.17.01.18.1.06.41.16.79.32,1.17.06.15.25.83.34.48.05-.17.13-.33.2-.49.22-.49.52-.8.99-1.03.02,0,.03.02.02.03-.55.42-.77,1.13-1.03,1.74-.02.05-.07.08-.13.07-.02,0-.04,0-.06,0-.05,0-.34-.02-.35-.07-.08-.3-.17-.59-.3-.87-.12-.25-.09-.54-.19-.8-.28.26-.56.33-.78.66-.11.16-.37.05-.34-.14Z" fill="#fff"/>
                      </g>
                    </g>
                  </g>
                  <g>
                    <path d="M55.77,110.8H18.09c1.67,23.3,16.86,43.71,39.12,51.6,1.19.42,2.11.71,2.67.87v-48.36c0-2.27-1.84-4.11-4.11-4.11Z" fill="#143256" stroke="#002235" stroke-miterlimit="10" stroke-width=".94"/>
                    <g clip-path="url(#clippath-2)">
                      <g>
                        <path d="M33.39,128.23s.08,1.16.23,1.22c-1.89,1.57-.88,2.48-1.04,4.79-.62,1.46,0,2.18.14,2.26-.12.99-.23,1.54-.87,2.33-.47.58,0,1.5-.48,2.11-.38-1.51-.85-.9-.92-2.99-.16-.36-.85-.99-1.24-1.04-.03,1.26-.52,2.39-.44,2.93,0,0-1.06-.22-1.39-.11-.26.08-.47.42-.49.63.36.24.36.15.89.56.94.72,1.34,2.15,1.34,2.15,0,0-2.19-1.85-2.35-2.18-.12-.26-.23-.66-.34-1.07-.01-.04,1.18-.7,1.51-1.31,1.05-1.92-1.58,1.11-1.64.84-.13-.68-.58-1.33-.58-1.33.17-.19.57-.3,1.21-1.36,1.46-2.42-1.65,1.01-1.65,1.01-.79-.48-.81.13-.93.78-.01.06-1.39,1.02-1.45,1.08-.37-.36-.63-.85-.78-1.19-.02-.04,2.5-2.16,2.93-2.87,3.54-5.72-2.81,2.5-3.09,2.27-.15-.46-.19-1.08-.15-1.93,0-.02,1.17-.78,1.94-1.98,2.97-4.62-1.9,1.35-1.9,1.31.08-1,1.02-5.35.42-4.05-.31.67-1.3,3.43-1.21,6.27-.3-.52-1.6-1.08-2.1-1.23.22-4.21,2.93-8.82,2.21-7.97-1.82,2.13-2.51,6.83-3.82,10.86,0,0-.79.37-.48-4.77.06-1.04.52-2.42,1.07-3.37,1.07-1.89,3.23-5.05,3.17-5.08-.49-.42-1.78,2.33-2.87,3.4-.71.69-2.63,1.33-2.76,1.24,1.61-2.92,5.38-5.61,5-5.97-2.79,2.48-3.66,2.58-3.76,2.44l2.52-2.32c.72-.91,1.65-1.6,1.52-1.58-1.1.21.6-.89,1.89-1.21.23-.06.61-.07.62-.18.03-.2-.3-.12-.57-.21-.18-.06-.35-.2-.35-.45.49.12.99.02,1.42-.16.88-.38,2.44-.81,3.15-.5.41.18.49.15.93.51.2-.08.76-.41,1.51.54.23.29.51.64.52.89.02.63-.01.03-.18.62-.07.25.2.71,1.33,1.12.44.16.32.59.32.59-.22-.11-.56-.37-1.1-.13-1.06.46-1.24-.32-1.87-.88,0,0,.16.7-.02.73-.81.15-.56.76-.46.85,1,.94.56,1.27.91,1.84.33.54.85.76,1.64.75,1.09,0-1.38-1.72,1.04-2.34-.39.62-.56,1.12.27,1.64.52.32.21,1.88,1.59,1.19Z" fill="#fff"/>
                        <path d="M23.13,139.87c.07-.04,1.27-1.03,1.27-.99,0,.14,0,.12.03.28.05.38.04.68.15,1.12.01.04-.44.21-.64.37-.27-.27-.52-.41-.81-.79Z" fill="#fff"/>
                        <path d="M47.48,140.1c.19-.6.16-1.05.19-1.65.63.67.86.69.82.97-.16.39-.45.67-.77,1-.39.31-.54.58-.24-.33Z" fill="#fff"/>
                        <path d="M24.69,140.65c.07.2.16.43.29.69.11.24-.24.06-.77-.43,0,0,.46-.33.48-.26Z" fill="#fff"/>
                        <path d="M52.09,142.21c-.32.98-.56,1.84-1.14,2.87-.33.59-.83-.86-.24-2.31.46-.18.95-.29,1.37-.56Z" fill="#fff"/>
                        <path d="M19.06,136.7c.55.1,2.02,1.01,2.3,1.52.96,1.35.88,2.58,5,4.54.21,0-.75-.73-1.01-1.57-.12-.39-.62-2.19-.22-3.05.84.9.66,1.18.88,1.84.58,1.72.91,1.89,2.44,2.99.2.15,1.35,2.02,2.9,2.15-.16-.05-.06-.43-.57-.79-1.71-1.18-.98-3.62-3.23-4.09,1.14-.37,1.88.75,2.09.64-.88-1.29-.05-2.34-.15-3.37.3.17.6.55.62.86.12,1.84.97,2.19,1.04,2.98-.22,1.31.81,2.36,1.56,3.3.17-.76-.01-1.45-.96-2.1-.52-.36.09-1.39.09-1.39.19,1.15.82,1.52,1.22,1.59.35.06-1.19-1.63-.96-3.14.1-.67.28-.37.41-1.12,1.32,1.55.3,2.46,1.65,4.24.64.84.85,2.3.93,2.34.04-2.16-.04-1.53-.96-3.32-.75-1.47.12-2.79.25-3.66,1.7,1.24,1.49,3.53,1.55,3.04.06-.49.3-1.35.08-2.13-.35-1.31.52-3.26.52-3.26,2.32,3.87.17,8.25.32,8.2,1.1-1.62,1.86-1.66,2.13-2.92.14-.68,1.49-4.41,3.79-4.42-1.18.97-.91,1.11-1.03,2.74.63,4.11-5.1,4.38-4.77,6.5.82-1.23,2.03-1.73,3.85-2.66.82-.61,1.72-.87,1.8-1.85-.08-.72-.12-.57.03-1.51.11-.67.75-.24,1.27-1.62,1.01.96.6,2.01.5,2.61-.03.17-.16.8-.01,1.18.37-.24.64-.76,1.07-1.27.77-.93.79-2.08,1.18-2.87.18-.37.44-.86.59-.87l.03.02c.14,1.49.02,2.79-.68,3.88,0,0,.18.32.32.41.64-.15,1.57-.67,1.97-1.7.78.69.19,1.54.23,1.53,1.81-.87.1-4.47,2.64-4.3-.65.67-.27,1.56-.24,2.38-.02,1.33-1.74,2.32-1.74,2.32,1.9-.59,2.27.31,2.25.31,0,0-2.81,1.13-7.21,1.47-.57.04-1.39.69-1.26.69.56-.03,1.7-.73,3.27.75-.95,0-1.64,1.52-3.16.6-3.94-1.23-5.47.7-6.13,1.19.13.25,3.1-1.75,5.38-.31,1.21.77,3.2.15,4.78-.96-.67,1.58-3.38,3.3-4.25,3.28-1.08-.03-2.42-1.47-3.99-1.44-2.51.06-2.92,2.29-2.63,2.12,0,0,2.06-3.21,4.5.34-1.17-.58-2.76-.48-4.16.14-.19.08.32.68.68,1.11.24.28,1.25,1.88,2.44.36.18-.23.76-1.64,4.33-1.24-1.37.57-2.9,2.13-3.65,2.84-1.92,1.8-4.64-2.38-4.76-1.92-.02.92-.51,1.36-.77,1.85-.66,1.24.77,1.07,1.55.76,0,0-1.54,2.26-2.74.95-1.33-1.46,1.86-2.44.88-3.6-.55-.65-2.59,1.35-3.49,1.34-2.44.21-2.25-2.1-3.53-2.06,1.24-1.19,2.5-.49,2.76-.17.78.97,1.74.36,2.4-.13.37-.46.97-.51,1.49-.36.25.03-.49-.91-1.48-.74-2.25.37-4.46-.49-5.01-.81-.89-.53-1.37-1.4-2.35-2.38.31.07,2.14,1.15,2.73,1.47,1.77.95,2.92-.19,3.12-.18.34.02.26-.25-.27-.44-1.83-.46-3.05-2.11-4.79-2.8-1.91-.92-4.38-.4-5.97-2.06-.51-.45-.79-1.21-1.46-1.46.52-.45,1,.49,1.26.17-.45-.75-.73-1.32-.76-2.25-.01-.5-.58-.98-.71-1.26Z" fill="#fff"/>
                        <path d="M21.68,142.56c.4,1.41.16,2.85-.34,2.09-.7-1.07-1.09-2.21-1.31-3.43.41.57,1.02,1.07,1.64,1.34Z" fill="#fff"/>
                        <path d="M35.72,121.21c.17-.11.66-.36.86-.42,0,0-.24.18-.25.42,0,.18.22.45.22.45l-.84-.45Z" fill="#fff"/>
                        <path d="M57.77,130.51c-2.52.79-4.82-1.58-4.55-1.01.32.67,3.3,3.38,4.59,4.82-1.04.26-1.97-.6-2.7-1.26-.8-.72-2.12-2.51-1.94-1.63,2.14,2.79,3.73,8.52,2.65,8.85-.58-1.3-2.95-7.93-3.11-7.9-.17.03.15,1.74.18,2.86.06,2.48.04,3.65-.56,6.07-.26-.38-.53-.38-.97-.36-.05-.24-.03-.18.25-.53.73-.92-.05-2.22.31-2.99.3-.64.45-.12.59-.79-.19-.19-.72-.25-.94-.3-.16-2.54-.98-3.86-.7-2.25.14.81.35,2.17.23,2.2-.12.04-.13.04-.23.09-.05.02-4.08-7.03-1.87-2.16.29.64,1.49,2.37,1.49,2.37-.34.33-.66.71-.7.95-.01.06-5.46-7.58-1.77-1.44.23.38,1.35,1.64,1.63,2.01.04.05-.14,1.4-.14,1.4-.58-.42-1.39-1.27-1.77-1.8.07-.76-.11-.67-.13-1.42-.18-.12-.42.19-.71.44-.14.12-3.7-6.5-1.49-1.55.36.79,1.16,1.74,1.2,1.82-.16.17-.41.7-.7,1.31-.01.02-4.81-7.33-1.92-1.79.23.44,1.68,2.28,1.66,2.33-.39.89-.74,1.76-.74,1.76.11-.7.29-2.09-1.14-3.27-.22,1.25-.56,1.29-1.01,1.66-.19.16-.57.87-.6.26-.08-1.78.5-1.73.95-2.47.11-.18.1-.59.02-.56-3.6.01-3.57,3.38-4.17,3.36.3-.85.39-1.69.09-2.39.98-.66.77-1.83.6-2.34,1.11-1.09.55-3.49.05-4,.72-.99-.12-1.71.08-2.33.35-2.19,2.29-1.48,2.79-3.56.3.38.83,1.66.55,2.08-.32.47-.97.5-1.02.85-.02.15-.08.57.03.66.37.08.63-.26,1.02-.4.77-.28,2.58,1.03,2.72-.08.09-.7-.24-.2-.18-.85.05-.67.37-.19.4-1.05.02-.63-.74-.85-.79-1.11-.12-.63-1.3.89-1.92-.77.39.07,1.18-.19,1.12-.57-.17-1.03-.12-3.53,2.19-2.93.83.21,3.13,1.5,3.49.18.8,1.51-.85,1.21-1.35,1.16.19.14.44.37,1.06.26,1.29.9,6,4.07,7.36,4.88-1.88.82-4.69-1.06-4.73-1.06l-.03.03c-.03,1.34,3.69,3.36,5.28,4.27Z" fill="#fff"/>
                        <path d="M37.62,123.92c.12-.26.33-.5.61-.62,1.18-.52,3.38.73,3.4-1.01,0,0,.78.61.4,1.22-.87,1.39-3.14-.43-4.41.41Z" fill="#fff"/>
                        <path d="M39.82,120.46c-.34.02-.29,1.09-.88.9-.14-.05.48-.73.26-1.05-.54-.33-.54.38-.8.11-.12-.47-.65-.74-1.09-.8-1.23-.21-2.23,1.12-3.39.42-.1.53.39.67.38.67-.77.16-1.12-.31-1.26-.6-.33,1.21.9,1.32,1.29,1.4,0,0-.63.16-.67.57-.11,1.03-.77.93-.91.84.02.13.21.75.97.21.12.13-.21.31-.29.82-.1.65-.1,1.25-.86,1.62.45.38,1.02-.56,1.06-.44.05.13-.65.46.06,2.27.35-.19.16-.16.57-.63.31-.25.44-.3.17.11-.46.55-.6,1.83-.46,2.18.37-.15.29-.45.73-.84.04.17-.16,1.02-.62,1.41-.8.68-1.1,1.52-1.12,1.69-.08.64.1,1.49.15,2.31.38-.04.72-1.1.81-1.03.11.08-.07,1.04-.8,1.68-.37.99-.25,1.53-.16,1.57.12.06.53-1.01.73-.81-1.07,2.53-.39,3.43-.15,4.23.23-.8.35-1.4.63-2.31.54.44.65,1.08,1.3,1.68.03-1.04.7-3.54,1.19-4.11.02-.03.8,2.28,1.16,3.3.46,1.33.5,2.97-.11,4.24,1.29-1.73,1.51-5.01.45-5.48-.09-.24.09-1,.33-.9.06.38,0,.7.31,1.08.83-.22.48-1.23.41-1.56-1.03-1.3-.36-1.58-.31-1.55.11.3.2.66.52.8.71-1.16.33-3.01-.93-4.42-.04-.52.57.4.98.38.13-.99-.18-2.71-2.01-2.83.35-.09.54-.15.63-.44-.55-.1-2.28-.28-1.96-1.64.16.17.21.42.65.7.3.19.63.22.81-.04-.8-.29-.51-1.26.54-.95.32.1.8-.23.83-.6-.24.23-.71.04-.98-.14-1.16-.8-1.91.29-2.08.53-.05,0-.5-1.13,1.19-1.38.15-.39.55-1.07,1.69-.95.41-1.32,1.53-.63,1.48-.03,1.23-.86.03-2.01-.45-2.2ZM37.86,120.93c0,.18-.2.26-.72-.09.41.5-.08.88-.08.88.18-.02.43-.07.59-.16.03.18-.22.23-.33.31-.9.34-1.46-.53-2.24-.7v-.03c.53-.06.95-.42,1.43-.59.67-.23,1.36.3,1.36.38Z" fill="#fff"/>
                      </g>
                    </g>
                  </g>
                </g>
                <path d="M16.37,61.82h88.59v47.63c-1.91,26.89-18.5,47.98-44.3,55.85-24.61-7.69-42.38-27.61-44.14-54.73l-.16-48.75Z" fill="none" stroke="#143256" stroke-miterlimit="10" stroke-width=".47"/>
              </g>
            </g>
          </g>
        </g>
      </g>
      <g>
        <g>
          <path d="M73.96,58.97c-.23-.15-.46-.35-.62-.58l.31-.27c.15.19.31.39.54.5.19.12.43.19.62.19.27,0,.5-.08.7-.23.19-.15.27-.39.27-.62,0-.19-.04-.35-.15-.5-.12-.15-.23-.27-.35-.35-.15-.08-.35-.19-.58-.31s-.43-.19-.66-.35c-.15-.12-.27-.23-.39-.39-.12-.19-.15-.39-.15-.62s.04-.43.15-.62c.12-.19.27-.31.46-.43s.43-.15.66-.15c.5,0,.97.27,1.28.66l-.27.31c-.12-.15-.27-.27-.46-.39-.15-.12-.35-.15-.54-.15-.23,0-.46.08-.66.23-.15.15-.27.35-.27.58,0,.15.04.31.15.43.08.12.19.23.35.31.19.12.35.19.54.27.27.12.5.27.7.35.19.12.31.27.43.43.12.19.19.43.19.7,0,.46-.23.89-.66,1.08-.23.12-.5.19-.74.15-.31.04-.58-.08-.85-.23h0Z" fill="#143256"/>
          <path d="M78.57,58.89c-.35-.23-.66-.54-.85-.89-.43-.77-.43-1.7,0-2.48.19-.39.5-.7.85-.89.74-.43,1.63-.46,2.36-.08v.46c-.15-.08-.31-.15-.5-.23-.19-.04-.39-.08-.62-.08-.39,0-.74.08-1.04.27s-.54.46-.74.77c-.15.31-.27.66-.27,1.04,0,.35.08.74.27,1.04.15.31.43.58.74.77.31.19.7.31,1.04.27.19,0,.39-.04.62-.08.19-.04.35-.12.5-.23v.46c-.35.15-.74.23-1.08.23-.43-.04-.89-.15-1.28-.39h0Z" fill="#143256"/>
          <polygon points="85.68 54.33 85.68 59.17 85.29 59.17 85.29 56.92 82.55 56.92 82.55 59.17 82.12 59.17 82.12 54.33 82.55 54.33 82.55 56.53 85.29 56.53 85.29 54.33 85.68 54.33" fill="#143256"/>
          <path d="M90.44,58.55c.31-.19.58-.46.74-.77.35-.66.35-1.43,0-2.05-.58-1.01-1.86-1.35-2.83-.77h-.04c-.31.19-.58.46-.74.77-.15.31-.27.66-.27,1.04,0,.35.08.74.27,1.04.58.97,1.86,1.32,2.86.74h0ZM88.08,58.89c-.39-.23-.66-.54-.89-.89-.43-.77-.43-1.7,0-2.48.19-.39.5-.7.89-.89.81-.46,1.78-.46,2.55,0,.39.23.66.54.89.89.43.77.43,1.7,0,2.48-.19.39-.5.7-.89.89-.77.46-1.74.46-2.55,0Z" fill="#143256"/>
          <path d="M96.61,58.55c.31-.19.58-.46.74-.77.35-.66.35-1.43,0-2.05-.58-1.01-1.86-1.35-2.83-.77h-.04c-.31.19-.58.46-.74.77-.19.31-.27.66-.27,1.04,0,.35.08.74.27,1.04.58.97,1.82,1.32,2.86.74-.04,0,0,0,0,0h0ZM94.25,58.89c-.39-.23-.66-.54-.89-.89-.43-.77-.43-1.7,0-2.48.19-.39.5-.7.89-.89.81-.46,1.78-.46,2.55,0,.39.23.66.54.89.89.43.77.43,1.7,0,2.48-.19.39-.5.7-.89.89-.77.46-1.74.46-2.55,0Z" fill="#143256"/>
          <polygon points="101.53 58.74 101.53 59.17 99.21 59.17 99.21 54.33 99.63 54.33 99.63 58.74 101.53 58.74" fill="#143256"/>
        </g>
        <g>
          <polygon points="27.65 51.8 24.6 47.81 24.6 51.8 23.15 51.8 23.15 43.17 24.6 43.17 24.6 47.43 27.62 43.17 29.32 43.17 26.16 47.57 29.42 51.8 27.65 51.8" fill="#143256"/>
          <path d="M41.52,50.03c.42-.28.76-.62,1.01-1.07.24-.45.35-.97.35-1.49s-.1-1.01-.35-1.46c-.24-.42-.59-.8-1.01-1.04-.45-.28-1.01-.38-1.53-.38h-.97v5.82h.97c.55.03,1.07-.1,1.53-.38h0ZM42.28,43.76c.62.38,1.14.9,1.53,1.56.35.66.55,1.42.52,2.18,0,.76-.17,1.53-.52,2.18-.35.66-.87,1.18-1.53,1.56-.69.38-1.49.59-2.29.55h-2.39v-8.63h2.39c.8,0,1.59.17,2.29.59Z" fill="#143256"/>
          <polygon points="46.3 44.55 46.3 46.74 48.87 46.74 48.87 48.12 46.3 48.12 46.3 50.41 49.7 50.41 49.7 51.8 44.88 51.8 44.88 43.17 49.7 43.17 49.7 44.55 46.3 44.55" fill="#143256"/>
          <polygon points="58.51 51.8 57.4 46.88 55.11 51.9 54.94 51.9 52.68 46.95 51.68 51.8 50.22 51.8 52.13 43.03 52.34 43.03 55.01 49.16 57.71 43.03 57.92 43.03 59.96 51.8 58.51 51.8" fill="#143256"/>
          <polygon points="67.35 51.8 64.3 47.81 64.3 51.8 62.84 51.8 62.84 43.17 64.3 43.17 64.3 47.43 67.31 43.17 69.01 43.17 65.82 47.57 69.12 51.8 67.35 51.8" fill="#143256"/>
          <polygon points="19.16 43.06 18.95 43.06 15.1 51.8 16.66 51.8 17.36 50.17 17.36 50.17 17.91 48.78 19.05 46.04 20.2 48.78 20.75 50.17 20.82 50.27 21.45 51.8 23.01 51.8 19.16 43.06" fill="#143256"/>
          <polygon points="33.48 43.06 33.27 43.06 29.42 51.8 30.98 51.8 31.67 50.17 32.26 48.78 33.37 46.04 34.52 48.78 34.52 48.78 35.11 50.17 35.14 50.27 35.77 51.8 37.33 51.8 33.48 43.06" fill="#143256"/>
          <g>
            <polygon points="62.04 43.51 62.04 43.17 60.59 43.17 60.59 44.86 62.04 43.51" fill="#143256"/>
            <polygon points="60.59 45.49 60.59 51.8 62.04 51.8 62.04 44.07 60.59 45.49" fill="#143256"/>
          </g>
          <polygon points="106.98 43.17 106.98 43.82 106.25 44.55 106.25 43.17 106.98 43.17" fill="#143256"/>
          <polygon points="106.98 44.41 106.98 51.8 106.25 51.8 106.25 45.14 106.98 44.41" fill="#143256"/>
          <polygon points="76.78 51.8 72.97 47.78 72.97 51.8 72.2 51.8 72.2 43.13 72.97 43.13 72.97 47.47 76.78 43.13 77.68 43.13 73.73 47.6 77.79 51.8 76.78 51.8" fill="#143256"/>
          <path d="M84.79,50.69c.55-.35,1.01-.8,1.32-1.39.62-1.14.62-2.57,0-3.71-1.01-1.8-3.33-2.43-5.1-1.42,0,0-.03,0-.03.03-.55.31-1.01.8-1.32,1.35-.31.55-.49,1.21-.49,1.87s.17,1.28.49,1.87c.31.59.76,1.07,1.35,1.39,1.14.69,2.6.69,3.78,0h0ZM80.56,51.31c-.66-.38-1.21-.97-1.59-1.63-.38-.69-.55-1.46-.55-2.25s.21-1.56.59-2.25c.38-.69.9-1.25,1.59-1.63,1.46-.8,3.19-.8,4.65,0,.66.38,1.21.97,1.59,1.63.38.69.55,1.46.55,2.22s-.17,1.56-.55,2.25-.94,1.25-1.59,1.63c-1.49.83-3.22.83-4.68.03h0Z" fill="#143256"/>
          <polygon points="93.49 51.07 93.49 51.8 89.3 51.8 89.3 43.13 90.02 43.13 90.02 51.07 93.49 51.07" fill="#143256"/>
          <polygon points="95.54 43.82 95.54 46.98 98.59 46.98 98.59 47.71 95.54 47.71 95.54 51.07 99.38 51.07 99.38 51.8 94.81 51.8 94.81 43.13 99.38 43.13 99.38 43.82 95.54 43.82" fill="#143256"/>
          <path d="M101.08,51.69c-.31-.14-.62-.38-.87-.62l.49-.55c.17.21.42.38.66.49s.49.17.73.17c.38.03.76-.1,1.04-.42.24-.31.38-.73.35-1.14v-6.48h.73v6.59c.03.59-.17,1.14-.55,1.59-.42.42-.97.66-1.56.62-.35,0-.69-.1-1.01-.24h0Z" fill="#143256"/>
        </g>
        <g>
          <path d="M19.58,54.26h.56v4.95h-.56v-4.95Z" fill="#143256"/>
          <path d="M25.16,54.24v5.04h-.03l-3.39-3.77v3.7h-.56v-5.03h.03l3.39,3.76v-3.7h.56Z" fill="#143256"/>
          <path d="M29.27,54.81h-1.43v4.4h-.56v-4.4h-1.44v-.55h3.43v.55Z" fill="#143256"/>
          <path d="M30.5,54.81v1.57h2.04v.56h-2.04v1.72h2.35v.56h-2.91v-4.95h2.91v.55h-2.35Z" fill="#143256"/>
          <path d="M36.61,59.2l-1.38-1.93h-.92v1.93h-.56v-4.95s1.46,0,1.46,0c.92,0,1.67.71,1.67,1.58,0,.64-.44,1.19-1.04,1.38l1.47,2h-.69ZM35.22,56.8c.59,0,1.07-.45,1.07-.98,0-.57-.49-1.01-1.07-1.01h-.92v1.99h.92Z" fill="#143256"/>
          <path d="M41.85,54.24v5.04h-.03l-3.39-3.77v3.7h-.56v-5.03h.03l3.39,3.76v-3.7h.56Z" fill="#143256"/>
          <path d="M46.12,58.39h-2.7l-.36.81h-.6l2.29-5.03h.06l2.29,5.03h-.61l-.36-.81ZM45.91,57.91l-1.13-2.54-1.14,2.54h2.27Z" fill="#143256"/>
          <path d="M50.14,54.81h-1.43v4.4h-.56v-4.4h-1.44v-.55h3.43v.55Z" fill="#143256"/>
          <path d="M50.82,54.26h.56v4.95h-.56v-4.95Z" fill="#143256"/>
          <path d="M52.16,56.73c0-1.4,1.15-2.55,2.54-2.55s2.54,1.14,2.54,2.55-1.15,2.54-2.55,2.54-2.54-1.14-2.54-2.54ZM56.68,56.73c0-1.09-.89-1.98-1.98-1.98s-1.97.89-1.97,1.98.89,1.97,1.97,1.97,1.98-.89,1.98-1.97Z" fill="#143256"/>
          <path d="M62.01,54.24v5.04h-.03l-3.39-3.77v3.7h-.56v-5.03h.03l3.39,3.76v-3.7h.56Z" fill="#143256"/>
          <path d="M66.28,58.39h-2.7l-.36.81h-.6l2.29-5.03h.06l2.29,5.03h-.61l-.36-.81ZM66.06,57.91l-1.13-2.54-1.14,2.54h2.27Z" fill="#143256"/>
          <path d="M70.83,58.65v.56h-2.98v-4.95h.56v4.39h2.43Z" fill="#143256"/>
        </g>
      </g>
    </g>
  </g>
</svg>